<?xml version="1.0" standalone="no"?>
<!DOCTYPE svg PUBLIC "-//W3C//DTD SVG 20010904//EN"
 "http://www.w3.org/TR/2001/REC-SVG-20010904/DTD/svg10.dtd">
<svg version="1.0" xmlns="http://www.w3.org/2000/svg"
 width="1080.000000pt" height="1080.000000pt" viewBox="0 0 1080.000000 1080.000000"
 preserveAspectRatio="xMidYMid meet">

<g transform="translate(0.000000,1080.000000) scale(0.100000,-0.100000)"
fill="#000000" stroke="none">
<path d="M5750 9424 c-34 -11 -84 -67 -77 -88 7 -21 26 -16 43 13 20 34 44 40
64 15 8 -8 22 -20 32 -25 15 -8 18 -6 18 14 0 13 -8 32 -18 43 -11 11 -21 24
-23 30 -3 6 -17 5 -39 -2z"/>
<path d="M5640 9375 c-7 -9 -8 -15 -2 -15 5 0 12 7 16 15 3 8 4 15 2 15 -2 0
-9 -7 -16 -15z"/>
<path d="M5923 9356 c-4 -7 -23 -21 -40 -30 -48 -24 -60 -51 -67 -146 -3 -47
-9 -119 -12 -160 l-7 -75 22 20 c36 31 90 155 111 256 11 51 27 100 35 109 13
14 12 17 -5 28 -25 15 -27 15 -37 -2z"/>
<path d="M5524 9335 c-16 -13 -38 -32 -49 -42 -11 -10 -29 -23 -40 -28 -29
-15 -83 -101 -90 -143 -3 -20 -12 -59 -20 -86 -8 -26 -15 -75 -15 -108 0 -52
3 -63 29 -89 16 -16 37 -29 45 -29 11 0 16 -9 16 -29 0 -17 5 -33 10 -36 29
-18 0 -37 -135 -90 -165 -65 -228 -106 -344 -224 -56 -58 -84 -97 -118 -165
-24 -50 -50 -97 -58 -106 -7 -8 -17 -28 -21 -45 -4 -16 -16 -44 -27 -62 -13
-23 -22 -65 -28 -131 -12 -135 -43 -293 -74 -382 -23 -63 -26 -85 -21 -140 l6
-65 -20 33 c-11 18 -18 42 -16 55 3 12 5 22 6 22 1 0 3 8 5 18 2 9 -1 17 -6
17 -5 0 -9 6 -9 14 0 17 -33 30 -57 22 -10 -3 -47 -8 -83 -11 -71 -6 -86 -8
-113 -20 -10 -4 -51 -5 -90 -1 -68 6 -115 6 -182 1 -16 -2 -32 -4 -35 -5 -3
-1 -9 -2 -13 -1 -4 1 -3 -8 3 -19 6 -11 17 -20 25 -20 8 0 15 -5 15 -11 0 -5
-4 -8 -8 -5 -11 7 -8 -31 3 -41 4 -5 5 -3 2 3 -8 15 18 38 33 29 5 -3 10 -1
10 4 0 8 7 7 20 -1 17 -11 17 -14 4 -21 -12 -7 -13 -12 -3 -23 9 -11 8 -14 -5
-14 -10 0 -14 5 -11 10 3 6 1 10 -6 10 -7 0 -4 6 6 14 18 13 17 14 -8 14 -15
0 -24 -4 -22 -8 3 -5 -1 -14 -8 -22 -7 -7 -15 -17 -16 -23 -1 -5 -5 -12 -8
-15 -4 -3 -3 1 1 8 4 6 2 12 -4 12 -6 0 -8 5 -5 11 4 6 -2 5 -14 -3 -12 -7
-21 -17 -21 -21 0 -5 -7 -6 -16 -3 -8 3 -12 2 -9 -4 3 -6 3 -10 -2 -10 -4 0
-16 -19 -27 -43 -10 -24 -26 -43 -35 -44 -15 -1 -17 15 -20 140 -1 94 -8 167
-20 217 -19 76 -38 167 -52 250 -18 106 -59 269 -77 310 -11 25 -24 59 -29 75
-5 19 -16 31 -29 33 -12 2 -50 27 -85 57 -65 55 -86 67 -261 148 l-96 45 -8
-26 c-7 -25 -8 -24 -17 18 -5 25 -14 48 -19 51 -7 4 -6 14 1 28 11 20 10 21
-51 21 -35 0 -70 5 -78 10 -14 9 -1 25 70 81 8 7 26 22 39 33 13 12 21 15 17
9 -11 -20 18 -15 47 7 14 11 29 29 32 40 9 30 23 24 18 -7 l-4 -28 15 25 c19
32 20 64 2 79 -9 8 -15 40 -18 89 -6 95 -21 140 -43 122 -11 -9 -15 -9 -15 -1
0 7 -5 9 -11 5 -8 -4 -10 -27 -6 -65 6 -72 15 -89 34 -64 12 18 13 17 13 -6 0
-14 -14 -38 -36 -59 -31 -30 -82 -110 -70 -110 2 0 -10 -15 -28 -33 -17 -18
-49 -54 -72 -80 -33 -38 -47 -47 -73 -47 -32 0 -33 1 -27 33 l6 32 -17 -26
c-28 -45 -142 -43 -168 2 -6 11 -5 12 6 2 23 -22 48 -14 76 25 19 25 34 36 46
34 11 -2 16 -9 13 -18 -12 -31 6 -10 51 59 26 39 48 73 49 75 1 2 12 -2 24 -8
18 -10 24 -9 31 1 13 21 11 -5 -3 -38 -6 -15 -18 -36 -27 -46 -30 -36 -1 -27
44 14 85 78 92 127 32 203 -17 22 -26 37 -20 33 11 -7 57 86 68 141 5 25 3 32
-9 32 -9 0 -16 -5 -16 -11 0 -6 -9 -8 -21 -4 -14 5 -19 3 -15 -3 4 -6 -1 -28
-10 -49 -10 -21 -16 -41 -16 -45 1 -5 -2 -8 -7 -8 -5 0 -7 -19 -5 -42 2 -24 1
-35 -2 -25 -6 18 -24 24 -24 8 0 -5 -9 -13 -20 -16 -11 -3 -23 -17 -26 -31 -3
-13 -10 -24 -16 -24 -5 0 -7 -4 -4 -9 4 -5 1 -11 -6 -13 -9 -3 -9 -6 0 -11 6
-5 18 4 27 20 9 15 14 20 11 10 -4 -11 -9 -30 -12 -43 -3 -13 -11 -24 -18 -24
-7 0 -6 -4 2 -9 11 -7 11 -9 -2 -14 -9 -4 -16 -13 -16 -21 0 -7 -7 -16 -15
-20 -8 -3 -15 -12 -15 -21 0 -9 -9 -15 -25 -15 -14 0 -25 -4 -25 -9 0 -5 -12
-23 -26 -41 l-26 -31 -24 48 c-20 42 -23 63 -24 167 0 144 17 217 64 269 18
21 38 37 44 37 7 0 12 9 12 19 0 20 -25 35 -42 24 -7 -3 -8 -1 -4 5 18 29 -64
-7 -106 -46 -28 -26 -40 -82 -18 -82 7 0 9 -18 5 -47 -4 -32 1 -75 14 -128 22
-91 20 -113 -3 -34 -28 94 -47 215 -43 274 4 58 4 58 -14 34 -13 -18 -28 -24
-55 -24 -65 0 -86 -50 -69 -162 5 -33 4 -53 -2 -53 -16 0 -36 77 -30 116 6 36
6 36 -14 18 -30 -27 -88 -151 -99 -213 -12 -65 0 -155 30 -215 11 -23 20 -49
20 -58 0 -9 6 -31 14 -49 7 -19 17 -48 20 -65 7 -31 7 -31 -56 -49 -99 -27
-158 -57 -277 -140 -69 -47 -137 -105 -181 -153 -76 -83 -100 -137 -155 -335
-14 -50 -31 -101 -37 -112 -7 -11 -15 -56 -19 -100 -4 -44 -12 -138 -18 -210
-7 -71 -21 -171 -32 -222 -17 -72 -20 -110 -15 -180 10 -139 7 -227 -14 -383
-28 -212 -35 -350 -20 -395 10 -30 10 -42 -1 -61 -10 -20 -10 -32 -1 -58 7
-18 9 -42 5 -51 -5 -14 -3 -17 10 -12 16 6 16 5 1 -18 -18 -28 -29 -33 -20 -9
13 34 6 34 -199 5 -38 -5 -122 -17 -185 -26 -63 -8 -126 -19 -140 -25 -14 -5
-46 -12 -73 -15 -26 -3 -59 -10 -72 -15 -14 -5 -55 -14 -92 -20 -36 -6 -94
-20 -127 -31 -33 -11 -80 -23 -105 -25 -26 -3 -66 -12 -91 -19 -25 -8 -70 -17
-100 -20 -66 -8 -150 -33 -169 -50 -8 -8 -23 -10 -40 -5 -32 9 -170 -14 -211
-35 l-30 -16 0 -151 0 -151 20 26 c11 14 20 35 20 48 0 12 9 41 20 64 26 54
105 100 153 91 18 -4 38 -7 45 -8 8 -1 19 -12 25 -25 11 -25 27 -31 27 -10 0
8 13 26 30 40 16 15 30 31 30 36 0 5 14 15 32 24 40 19 66 8 74 -33 7 -34 32
-48 40 -22 15 48 39 81 75 101 56 32 80 25 105 -29 l22 -45 17 43 c19 46 62
88 101 98 29 7 64 -23 67 -57 1 -20 2 -20 12 -4 49 84 78 104 129 91 21 -5 29
-16 38 -51 9 -34 14 -41 22 -29 9 11 11 9 11 -13 0 -16 -5 -34 -12 -41 -7 -7
-13 -9 -13 -4 0 11 -49 4 -66 -9 -6 -5 -34 -8 -63 -8 -34 1 -56 -3 -61 -11 -4
-7 -14 -11 -21 -8 -22 9 -59 -10 -59 -29 0 -15 -2 -16 -10 -3 -5 8 -10 11 -10
5 1 -19 28 -46 51 -50 13 -2 51 -6 84 -9 113 -10 160 -19 185 -35 13 -9 21
-11 17 -5 -4 7 2 14 14 17 12 3 18 10 14 16 -3 6 -1 11 5 11 8 0 8 6 0 20 -6
11 -8 25 -5 30 3 5 1 11 -5 15 -6 4 -8 10 -5 15 3 4 -2 10 -10 14 -37 14 -8
30 120 68 52 16 67 41 28 46 -13 2 -23 8 -23 13 0 5 -7 9 -15 9 -8 0 -15 -4
-15 -8 0 -12 -47 -32 -75 -32 -58 0 -71 27 -34 74 25 32 77 36 103 7 17 -19
18 -19 45 11 22 25 35 30 81 33 106 8 165 17 185 31 11 8 32 14 46 14 l27 0
-18 -37 c-10 -21 -24 -67 -30 -103 -6 -36 -18 -75 -26 -87 -16 -26 -20 -183
-4 -183 6 0 10 7 10 15 0 25 18 17 28 -12 l10 -28 1 30 c1 17 4 40 7 53 6 21
9 19 40 -27 31 -46 73 -85 82 -77 2 3 -18 30 -44 62 -51 63 -83 126 -84 162 0
27 16 29 25 2 9 -28 55 -81 65 -75 4 3 29 -17 54 -43 40 -41 46 -53 47 -92 0
-25 2 -52 4 -62 1 -9 6 -63 10 -120 6 -97 5 -104 -15 -126 -17 -18 -19 -26
-10 -37 6 -8 9 -18 6 -23 -3 -5 8 -12 25 -16 46 -9 52 -8 46 8 -4 10 -1 13 9
9 20 -7 73 16 84 38 6 10 10 30 10 45 0 22 3 24 14 15 8 -7 17 -8 20 -3 3 5
20 8 38 7 64 -3 40 -75 -29 -89 -10 -1 -26 -6 -35 -10 -9 -4 -21 -5 -26 -2 -5
3 -18 -4 -28 -16 -12 -14 -14 -19 -4 -13 8 4 2 -6 -14 -23 -17 -18 -33 -32
-37 -32 -4 0 -25 -15 -45 -34 -31 -28 -80 -52 -130 -62 -5 -1 -28 -10 -51 -21
-24 -12 -53 -18 -70 -16 -23 4 -35 -1 -49 -20 -11 -13 -30 -27 -42 -31 -12 -4
-22 -11 -22 -16 0 -12 -54 -40 -76 -40 -10 0 -28 -9 -40 -21 -12 -11 -28 -21
-36 -23 -20 -2 -71 -36 -81 -52 -4 -7 -22 -13 -40 -12 -18 0 -49 -9 -69 -20
-20 -11 -54 -24 -75 -27 -21 -4 -54 -17 -73 -30 -38 -24 -166 -41 -173 -22 -1
5 -11 2 -20 -7 -12 -13 -17 -14 -17 -4 0 10 -2 10 -9 -1 -6 -9 -6 -22 0 -32
12 -22 -32 -59 -70 -59 -14 0 -42 -9 -62 -19 -51 -27 -104 -34 -123 -16 -17
18 -61 5 -82 -23 -16 -21 -16 -20 -19 46 -2 54 3 59 36 42 18 -10 25 -3 20 23
-1 5 9 17 21 27 27 20 36 70 13 70 -21 0 -25 14 -16 48 7 24 6 32 -7 38 -52
22 -74 2 -36 -33 14 -13 19 -23 13 -23 -7 0 -4 -7 7 -15 12 -9 14 -14 5 -15
-7 0 -11 -6 -8 -14 9 -22 -3 -26 -29 -9 -13 8 -24 12 -24 8 0 -5 -10 0 -22 11
-12 10 -18 13 -14 7 4 -7 3 -13 -2 -13 -6 0 -9 -14 -8 -31 1 -19 -4 -35 -14
-42 -39 -28 -62 -120 -33 -131 7 -3 12 0 10 6 -3 16 44 19 64 4 8 -6 15 -24
15 -41 -1 -28 -4 -30 -43 -33 -24 -2 -43 -7 -43 -13 0 -5 -6 -9 -14 -9 -22 0
-28 31 -10 52 10 10 15 21 11 24 -12 13 -75 21 -91 12 -22 -13 -59 19 -53 44
3 9 2 17 -2 16 -16 -2 -31 3 -29 10 0 4 -7 23 -16 42 -10 21 -15 26 -12 13 2
-13 -1 -26 -6 -29 -6 -4 -4 -11 7 -17 16 -8 15 -12 -11 -33 -16 -13 -35 -23
-41 -24 -9 0 -13 -19 -13 -62 0 -59 2 -64 27 -75 33 -16 53 -17 53 -3 0 6 15
24 32 40 34 31 73 35 105 9 17 -15 17 -39 -2 -39 -28 0 -62 -22 -79 -51 -16
-26 -22 -29 -71 -29 -55 0 -81 -14 -46 -25 27 -8 34 -33 11 -40 -11 -4 -22
-16 -25 -28 -3 -12 -4 -243 -3 -514 l3 -492 102 69 c56 37 121 83 144 100 39
32 144 104 444 304 77 52 160 109 184 127 72 54 416 290 880 603 216 147 293
196 303 196 4 0 9 -26 13 -57 4 -32 13 -98 22 -148 l14 -90 -24 -20 c-13 -11
-77 -58 -142 -105 -65 -47 -137 -101 -159 -121 -42 -37 -213 -167 -270 -205
-17 -12 -54 -43 -81 -68 -28 -26 -75 -64 -105 -84 -30 -20 -71 -48 -90 -63
-32 -24 -196 -147 -259 -193 -14 -11 -89 -70 -166 -131 -77 -61 -158 -122
-180 -135 -22 -13 -64 -43 -93 -67 -30 -24 -58 -43 -64 -43 -6 0 -8 -6 -5 -14
3 -8 -1 -13 -11 -12 -9 0 -16 -5 -14 -12 1 -8 -2 -11 -7 -7 -8 4 -143 -84
-161 -106 -3 -3 -25 -19 -50 -34 -39 -25 -86 -59 -202 -146 l-28 -21 0 -1334
0 -1334 5395 0 5395 0 1 728 c0 400 0 1148 0 1662 -1 514 -1 1006 -1 1093 0
149 -1 157 -20 157 -30 0 -180 92 -180 110 0 12 46 19 135 23 39 2 13 4 -56 5
-125 2 -127 2 -185 37 -32 19 -61 35 -66 35 -13 0 -9 28 4 36 7 5 58 11 113
14 l100 7 -141 1 c-130 2 -145 4 -185 26 -26 14 -70 28 -106 32 -35 3 -63 11
-63 15 0 5 -7 9 -15 9 -21 0 -19 17 4 23 11 2 25 -3 35 -14 19 -23 49 -25 66
-4 7 8 9 15 4 16 -33 3 -61 13 -119 45 -52 29 -66 41 -62 55 4 16 -1 19 -31
20 -21 0 -66 15 -102 33 -51 25 -65 37 -64 54 0 16 -5 22 -21 22 -12 0 -40 14
-61 31 -22 17 -52 38 -69 47 -16 8 -34 20 -40 27 -39 46 -526 344 -616 377
-12 5 -17 26 -22 85 -3 43 -9 94 -13 113 -7 34 -6 34 12 19 23 -20 141 -79
364 -184 157 -73 374 -190 487 -262 29 -18 55 -33 58 -33 3 0 71 -39 150 -87
135 -81 163 -105 132 -116 -6 -2 11 -7 38 -11 58 -8 148 -54 153 -77 2 -11 -7
-21 -25 -27 -24 -9 -18 -10 37 -10 54 1 74 -3 112 -26 65 -38 74 -51 48 -69
-19 -13 -16 -14 42 -16 51 -1 72 -7 111 -31 27 -17 50 -30 53 -30 2 0 3 359 2
797 l-3 797 -32 7 c-26 5 -31 3 -28 -10 2 -13 -4 -17 -25 -16 -15 0 -26 4 -23
9 4 5 -3 7 -15 4 -13 -4 -23 0 -27 9 -4 12 0 14 15 10 11 -3 20 -1 20 5 0 5
-10 8 -22 6 -17 -2 -22 -9 -20 -25 4 -27 -1 -29 -22 -7 -15 14 -16 14 -16 -3
0 -15 -2 -16 -10 -3 -5 8 -10 11 -10 7 0 -4 -10 -3 -21 4 -15 8 -19 8 -15 0 4
-6 0 -11 -9 -11 -12 0 -15 5 -11 17 6 15 4 15 -14 -2 -12 -11 -20 -13 -20 -6
0 7 -4 9 -10 6 -5 -3 -10 0 -10 7 0 9 -3 9 -10 -2 -6 -9 -10 -11 -10 -3 0 7
-8 10 -17 8 -10 -3 -4 1 12 9 17 8 26 15 20 16 -5 0 -3 5 5 10 10 6 11 10 3
10 -7 0 -14 -1 -15 -2 -2 -1 -12 3 -23 9 -20 11 -55 17 -170 29 -33 3 -62 7
-65 9 -3 2 -75 8 -160 15 -85 6 -168 13 -185 15 -16 2 -77 9 -135 15 -58 6
-120 13 -137 16 -96 15 -174 19 -183 10 -5 -5 -10 -20 -10 -31 0 -12 -9 -30
-20 -40 -35 -32 -39 -123 -4 -94 11 9 14 9 14 0 0 -7 4 -10 9 -6 5 3 12 1 15
-4 4 -5 18 -8 31 -5 14 2 25 0 25 -5 0 -6 -22 -8 -50 -6 -36 2 -48 0 -43 -9 4
-7 1 -7 -9 1 -8 7 -19 9 -23 5 -5 -4 -5 -1 -1 6 4 7 2 12 -6 12 -7 0 -25 -18
-41 -39 -18 -26 -38 -42 -58 -46 -17 -4 -40 -16 -51 -27 -19 -19 -22 -19 -30
-4 -14 24 -2 49 33 70 28 17 29 19 13 31 -22 15 -47 8 -40 -12 7 -17 -21 -30
-35 -16 -7 7 4 27 35 62 25 28 50 60 56 70 20 38 39 167 30 203 -5 18 -12 50
-15 71 -5 28 -12 40 -31 47 -33 13 -72 -4 -80 -34 -3 -14 -9 -25 -13 -24 -3 1
-18 -2 -33 -6 -22 -7 -28 -14 -28 -36 0 -16 -5 -32 -11 -35 -7 -5 -9 6 -7 31
2 32 7 40 27 42 13 2 20 7 14 10 -5 4 -13 22 -16 39 -5 27 -2 36 17 48 13 9
39 16 59 17 32 1 45 -7 112 -71 42 -39 86 -76 98 -81 25 -10 265 -46 372 -55
39 -3 81 -8 95 -10 25 -4 61 -8 192 -21 58 -5 72 -3 101 15 39 24 60 20 94
-16 15 -16 33 -23 60 -23 55 0 343 -36 451 -56 51 -9 95 -14 99 -11 8 8 13
135 6 167 -3 15 -17 31 -36 41 -29 14 -31 19 -29 57 3 31 -1 45 -17 58 -11 10
-18 22 -15 28 3 6 -2 2 -10 -8 -9 -11 -16 -36 -16 -56 0 -67 -52 -101 -110
-70 -10 6 -21 7 -24 2 -2 -4 -35 -4 -73 1 -37 5 -93 8 -123 8 -75 0 -146 16
-200 47 -35 20 -61 26 -120 28 -127 5 -204 15 -232 32 -15 9 -25 19 -23 22 2
4 -3 16 -11 26 -11 14 -17 16 -21 6 -3 -7 -17 -26 -31 -41 -30 -32 -51 -32
-110 -2 -27 14 -43 16 -55 10 -11 -7 -17 -6 -17 0 0 17 58 43 62 29 3 -8 7 -6
11 4 3 9 -1 22 -9 28 -11 10 -14 10 -14 -1 0 -9 -3 -10 -8 -4 -4 6 -24 23 -45
38 -35 26 -39 27 -59 13 -27 -20 -72 -21 -87 -3 -6 8 -23 12 -41 9 -17 -2 -37
1 -45 8 -12 10 -18 10 -31 -1 -15 -13 -16 -8 -10 56 10 99 12 104 44 100 15
-2 40 -8 56 -14 21 -9 32 -8 42 0 18 15 58 4 82 -21 18 -20 19 -20 36 -2 21
24 65 20 87 -7 16 -19 19 -20 46 -6 37 19 46 19 74 -4 19 -15 27 -17 44 -6 11
6 25 11 30 10 24 -3 55 -17 55 -25 0 -16 30 -19 57 -5 38 20 67 19 87 -4 17
-19 32 -20 79 -7 37 11 69 1 100 -29 16 -17 28 -22 32 -15 24 40 103 29 123
-16 14 -30 23 -30 52 1 29 30 62 32 101 4 29 -20 46 -21 121 -3 21 5 33 -1 59
-25 34 -33 38 -33 105 -5 31 13 33 17 39 79 9 81 1 113 -28 119 -12 2 -110 9
-217 15 -107 5 -206 12 -220 15 -14 2 -99 9 -190 15 -91 6 -199 16 -240 21
-67 9 -433 39 -470 38 -8 0 -33 1 -55 2 -22 0 -56 -1 -77 -3 -34 -5 -37 -3
-42 27 -3 17 -8 74 -12 126 l-6 95 53 0 c46 0 55 3 64 23 5 12 13 22 18 22 4
0 3 10 -4 21 -8 17 -8 20 1 14 9 -6 11 0 8 24 -3 18 -1 34 4 37 7 5 12 -10 9
-28 0 -5 3 -8 8 -8 14 0 19 -35 8 -55 -6 -12 -6 -16 1 -11 6 3 13 -6 17 -23 7
-32 24 -41 65 -37 14 1 31 -2 38 -8 7 -5 34 -8 60 -7 26 1 62 2 79 3 22 1 35
8 39 20 3 10 10 18 16 18 6 0 19 10 29 22 11 12 19 16 19 8 0 -24 40 -47 91
-54 l51 -7 -5 -34 c-3 -20 -1 -37 5 -41 7 -5 8 -2 3 5 -5 10 -3 10 11 1 15 -9
27 -8 57 4 20 9 37 19 37 22 0 3 -4 2 -10 -1 -5 -3 -10 -2 -10 3 0 14 62 41
88 39 12 -1 22 -6 22 -12 0 -5 4 -3 10 5 8 12 10 12 15 -2 4 -10 15 -15 26
-13 10 2 21 0 24 -5 3 -5 14 -7 24 -5 11 2 22 -3 26 -13 5 -14 7 -14 15 -2 8
13 10 13 10 -1 0 -11 12 -19 34 -23 19 -4 37 -12 40 -19 3 -7 5 -6 4 3 -1 8 2
22 5 30 11 29 22 155 17 196 -7 51 10 129 28 129 20 0 40 -66 46 -149 12 -154
10 -153 171 -157 33 -1 88 0 122 2 l62 3 6 71 c4 38 4 111 1 160 -3 50 -6 248
-6 441 l0 350 -57 0 c-32 0 -78 6 -102 13 -34 9 -51 9 -73 0 -57 -23 -165 8
-189 55 -19 36 -40 36 -79 2 -14 -12 -45 -35 -69 -51 l-45 -28 -67 23 -66 23
-48 -27 c-38 -23 -56 -27 -87 -23 -35 5 -45 1 -81 -31 -23 -20 -44 -39 -47
-42 -27 -28 -97 -61 -128 -61 -54 0 -85 9 -94 26 -12 21 -31 19 -89 -11 -44
-23 -53 -25 -74 -14 -13 7 -32 9 -42 5 -10 -3 -40 -9 -68 -12 -27 -3 -52 -7
-54 -10 -6 -4 16 -253 22 -259 2 -2 149 -7 327 -11 295 -6 325 -8 342 -25 21
-21 23 -75 4 -101 -9 -11 -33 -20 -67 -24 -85 -9 -89 -17 -89 -151 0 -64 -2
-113 -5 -110 -4 4 -14 157 -15 223 0 22 -69 35 -189 35 -130 0 -171 -12 -171
-51 0 -11 -4 -19 -9 -19 -5 0 -7 8 -4 19 7 28 -33 51 -90 51 -52 0 -52 0 -62
-72 l-6 -46 -27 15 -28 16 19 38 c10 20 20 50 22 66 2 15 4 28 5 28 8 0 11 92
5 140 -3 17 -6 44 -8 60 -2 17 -7 38 -11 48 -5 9 -6 24 -3 32 4 8 2 17 -4 21
-7 4 -7 10 0 18 14 16 11 77 -3 69 -6 -4 -3 3 7 14 9 11 14 23 10 27 -4 3 -8
35 -9 69 -3 67 -5 79 -28 180 -16 64 -48 135 -68 148 -5 3 -11 19 -14 35 -3
16 -11 32 -17 36 -9 6 -9 10 2 17 14 9 7 51 -9 51 -24 0 -112 -121 -165 -228
-52 -105 -59 -126 -65 -202 -4 -47 -8 -66 -9 -42 0 23 -4 42 -9 42 -10 0 -3
-91 10 -117 6 -12 7 -30 3 -40 -6 -15 -10 -13 -23 17 -10 23 -16 68 -16 132
-1 65 -4 89 -10 75 -14 -37 -12 -189 3 -225 7 -18 11 -35 8 -38 -3 -4 -13 18
-21 47 -19 68 -22 191 -7 289 6 41 13 100 16 130 4 49 3 51 -4 15 -5 -22 -16
-71 -25 -110 -8 -38 -16 -88 -17 -110 -2 -55 8 -220 15 -247 13 -50 -24 41
-50 125 -19 59 -31 83 -37 75 -5 -9 -7 -2 -4 17 3 16 1 73 -5 126 -14 136 4
433 28 460 9 10 22 19 28 19 18 0 62 45 75 79 10 24 11 41 2 74 -7 30 -7 55
-1 78 16 56 11 124 -15 206 -22 71 -85 183 -103 183 -4 0 -27 18 -52 41 -53
48 -131 90 -176 94 -18 2 -41 8 -52 14 -27 15 -152 -11 -201 -41 -51 -32 -142
-102 -169 -130 -26 -29 -102 -194 -102 -224 0 -11 -9 -29 -20 -39 -26 -23 -25
-33 6 -94 23 -47 24 -53 10 -73 -34 -48 -13 -98 48 -112 34 -8 28 -15 -34 -41
-69 -29 -177 -101 -239 -160 -31 -29 -73 -59 -94 -66 -40 -14 -67 -50 -67 -87
0 -11 -18 -44 -40 -73 -56 -74 -97 -235 -120 -464 -6 -60 -16 -129 -22 -153
-6 -24 -9 -110 -7 -205 2 -89 3 -150 1 -134 -3 25 -22 40 -22 17 0 -6 -12 -10
-27 -10 -16 1 -39 -2 -54 -5 -20 -5 -27 -2 -37 20 -17 37 -15 51 10 74 20 19
34 76 16 65 -4 -3 -8 2 -8 11 0 9 -9 19 -20 22 -11 3 -17 9 -14 14 3 5 -2 6
-11 3 -9 -4 -25 2 -37 12 -12 11 -18 13 -14 7 4 -7 2 -13 -3 -13 -11 0 -12 4
-15 40 0 10 -9 27 -19 37 -15 15 -20 16 -38 5 -12 -8 -18 -9 -14 -3 3 6 2 11
-4 11 -5 0 -13 -4 -16 -10 -3 -5 -11 -10 -17 -10 -6 0 -5 7 3 17 10 12 11 15
1 9 -7 -4 -20 -2 -28 5 -12 10 -13 9 -9 -3 4 -9 0 -15 -8 -15 -11 0 -18 27
-27 106 -7 58 -19 133 -26 166 -8 33 -14 88 -14 122 0 68 -27 168 -66 248 -27
56 -30 89 -13 146 15 47 0 88 -39 111 -18 11 -38 42 -61 95 -40 90 -65 120
-181 213 -108 86 -179 120 -308 151 -101 23 -103 24 -98 49 20 87 26 133 21
148 -4 14 3 22 27 33 44 19 58 51 58 130 0 53 -6 81 -31 135 -45 102 -73 154
-81 154 -5 0 -8 -24 -8 -52 0 -61 -20 -109 -81 -200 -54 -82 -98 -128 -122
-128 -14 0 -17 5 -12 23 6 21 6 21 -13 -3 -18 -21 -30 -25 -95 -28 -46 -2 -78
1 -82 7 -8 14 -45 14 -45 1 0 -21 -18 -8 -36 26 -13 26 -16 38 -7 41 8 3 6 17
-7 49 -11 24 -19 47 -19 49 0 3 -9 35 -21 71 -26 85 -35 166 -22 190 10 17 11
17 16 -6 2 -14 7 -53 10 -88 9 -96 96 -285 121 -260 4 4 2 44 -4 89 -6 45 -11
114 -11 154 0 71 0 72 -44 118 -24 26 -51 47 -59 47 -8 0 -27 -11 -43 -25z
m-105 -152 c-1 -21 3 -49 9 -63 l11 -25 0 27 c1 15 6 30 11 33 6 3 10 15 10
26 0 10 7 19 15 19 20 0 19 -20 -2 -35 -10 -8 -16 -28 -17 -57 -1 -38 5 -52
38 -92 21 -26 48 -52 60 -58 12 -5 27 -23 34 -41 9 -23 9 -28 0 -19 -7 7 -20
12 -30 12 -9 0 -22 9 -28 19 -5 11 -28 41 -50 66 -22 26 -49 64 -60 86 -25 49
-27 139 -3 139 2 0 3 -17 2 -37z m-2778 -56 c-13 -13 -15 1 -4 30 7 17 8 17
11 -1 2 -10 -1 -23 -7 -29z m-75 6 c-3 -16 -9 -41 -14 -58 -10 -29 -10 -28
-11 16 -1 25 4 50 11 57 17 17 18 15 14 -15z m17 -115 c-2 -18 0 -27 3 -20 12
25 21 1 17 -42 -7 -59 27 -168 72 -236 40 -59 40 -75 1 -33 -52 55 -99 180
-96 257 0 16 -4 32 -10 36 -16 10 -21 53 -7 62 20 13 24 9 20 -24z m3577 -8
c0 -22 -4 -40 -8 -40 -7 0 -8 22 -3 68 3 29 11 9 11 -28z m-3665 -185 c14 -32
56 -86 107 -137 44 -44 61 -78 40 -78 -5 0 -46 39 -92 87 -46 47 -75 83 -65
79 14 -5 15 -4 7 6 -20 24 -35 106 -26 145 8 38 8 38 14 -22 4 -33 10 -69 15
-80z m-70 115 c3 -5 1 -10 -4 -10 -6 0 -11 5 -11 10 0 6 2 10 4 10 3 0 8 -4
11 -10z m3745 -10 c0 -5 -8 -10 -17 -10 -15 0 -16 2 -3 10 19 12 20 12 20 0z
m2210 -19 c0 -5 -3 -17 -6 -25 -5 -13 -9 -14 -20 -5 -21 17 -17 39 6 39 11 0
20 -4 20 -9z m-5310 -12 c0 -6 -7 -9 -15 -5 -12 4 -14 0 -9 -18 6 -26 -12 -44
-28 -28 -7 7 -4 18 7 36 17 26 45 35 45 15z m150 -31 c0 -20 -49 -95 -66 -102
-10 -4 -7 5 11 25 14 18 29 45 32 60 5 28 23 41 23 17z m4996 -54 c-4 -14 -11
-22 -16 -19 -14 9 -23 -40 -17 -93 l5 -47 -13 40 c-8 22 -14 51 -14 64 -1 37
21 90 38 93 20 5 25 -6 17 -38z m317 39 c2 -5 -1 -24 -6 -43 l-10 -35 -7 30
c-3 17 -4 36 -2 43 5 13 19 16 25 5z m-2524 -38 c8 -8 13 -16 10 -18 -4 -4
-212 -20 -259 -19 -14 0 -34 2 -45 5 -11 3 -33 6 -50 7 l-30 1 25 11 c82 35
318 44 349 13z m-3401 -61 c28 -94 23 -107 -7 -22 -33 92 -34 98 -24 98 5 0
19 -34 31 -76z m6076 40 c8 -22 8 -26 -3 -19 -6 3 -14 -3 -20 -12 -12 -20 -14
-9 -5 25 7 26 19 29 28 6z m-2774 -44 c0 -13 -20 -13 -40 0 -12 8 -9 10 13 10
15 0 27 -4 27 -10z m2557 2 c13 10 14 6 7 -38 -12 -81 -43 -177 -64 -198 -18
-19 -20 -19 -26 -2 -4 10 0 39 9 65 9 25 20 64 26 86 5 22 12 54 16 70 4 17
10 24 12 17 4 -10 8 -10 20 0z m-2393 -24 c14 -68 16 -101 7 -112 -6 -7 -17
-38 -25 -70 -9 -32 -26 -77 -39 -100 -13 -22 -32 -57 -43 -76 -10 -19 -25 -39
-32 -43 -7 -5 -9 -13 -6 -19 4 -6 3 -8 -3 -5 -5 4 -25 -5 -44 -19 -19 -13 -35
-21 -36 -17 -2 4 -30 6 -63 5 -52 -3 -65 0 -93 21 -18 14 -42 44 -52 67 -15
34 -20 39 -25 24 -6 -17 -8 -17 -19 5 -7 12 -10 30 -6 39 6 16 7 16 16 -1 6
-9 15 -15 20 -11 5 3 17 -3 27 -14 22 -25 104 -35 129 -16 16 12 14 13 -17 14
-19 0 -44 7 -54 15 -19 15 -19 15 5 15 13 0 59 7 102 17 54 12 77 22 77 32 0
12 -3 12 -12 3 -14 -14 -188 -17 -188 -4 0 10 45 32 65 32 8 0 15 4 15 8 0 5
12 13 28 20 26 11 26 11 -11 9 -48 -4 -59 14 -51 77 8 55 24 59 53 13 11 -19
32 -39 46 -45 14 -6 33 -25 43 -42 10 -16 22 -27 25 -24 4 4 -2 19 -13 34 -11
16 -20 30 -20 33 0 3 24 13 53 23 28 9 62 24 75 32 29 19 56 68 42 77 -6 4 -8
11 -5 16 11 16 24 10 29 -13z m-184 -20 c0 -12 -6 -9 -26 13 -19 22 -19 22 4
8 12 -8 22 -17 22 -21z m2194 -136 c21 -41 32 -71 25 -67 -25 16 -79 153 -78
197 l1 43 8 -50 c4 -27 24 -83 44 -123z m-2424 135 c0 -2 -12 -14 -27 -28
l-28 -24 24 28 c23 25 31 32 31 24z m2950 -43 c0 -13 -13 -52 -29 -87 -31 -66
-70 -121 -71 -99 0 7 -5 10 -11 6 -6 -4 0 13 13 37 14 24 38 74 53 111 28 67
45 79 45 32z m97 -26 c-3 -8 -6 -5 -6 6 -1 11 2 17 5 13 3 -3 4 -12 1 -19z
m60 -15 c-3 -10 -5 -4 -5 12 0 17 2 24 5 18 2 -7 2 -21 0 -30z m-557 -8 c0 -5
-5 -3 -10 5 -5 8 -10 20 -10 25 0 6 5 3 10 -5 5 -8 10 -19 10 -25z m137 13
c-3 -8 -6 -5 -6 6 -1 11 2 17 5 13 3 -3 4 -12 1 -19z m23 -53 c0 -5 -5 -3 -10
5 -5 8 -10 20 -10 25 0 6 5 3 10 -5 5 -8 10 -19 10 -25z m-5290 8 c55 -9 10
-21 -80 -22 -86 -1 -118 11 -74 27 28 9 76 8 154 -5z m2542 3 c25 -13 29 -13
38 2 5 10 10 12 10 4 0 -7 -15 -28 -33 -48 l-33 -36 -27 39 c-15 21 -27 42
-27 46 0 12 44 8 72 -7z m3031 -77 c-24 -42 -102 -129 -116 -129 -6 0 -1 10
11 23 26 27 28 37 7 37 -8 0 -15 7 -15 15 0 11 7 13 28 9 30 -6 49 6 79 52 22
35 27 29 6 -7z m-5853 11 c0 -12 -17 -12 -45 0 -17 7 -15 9 13 9 17 1 32 -3
32 -9z m115 3 c-11 -3 -25 -9 -31 -14 -6 -5 -14 -6 -17 -2 -16 15 -5 23 31 22
21 -1 29 -3 17 -6z m254 -68 c1 -16 -1 -17 -8 -6 -7 11 -11 4 -17 -25 -4 -21
-7 -41 -6 -44 0 -3 -3 -9 -8 -15 -4 -5 -11 -27 -15 -48 -6 -32 -9 -36 -23 -25
-13 11 -14 8 -8 -26 7 -36 6 -38 -13 -33 -16 4 -22 -2 -32 -30 -7 -23 -16 -33
-25 -29 -9 4 -14 -2 -14 -16 0 -17 -2 -18 -15 -8 -13 10 -15 9 -15 -11 0 -32
-15 -54 -37 -54 -11 0 -17 -7 -17 -18 2 -14 -1 -15 -12 -6 -8 6 -14 7 -14 2 0
-6 -16 -9 -35 -6 -28 3 -35 0 -35 -13 0 -18 -7 -17 -10 1 -3 18 -22 35 -33 28
-6 -3 -7 -1 -3 5 4 7 2 12 -3 12 -6 0 -11 7 -11 15 0 8 5 15 10 15 6 0 10 12
10 26 0 23 3 25 25 20 33 -8 32 2 -1 15 -15 5 -24 12 -21 15 6 6 114 16 170
15 24 -1 37 4 37 12 0 10 -13 11 -65 3 -36 -5 -67 -7 -69 -5 -2 2 -6 20 -8 39
-2 23 -10 39 -23 45 -17 9 -20 21 -20 79 0 77 5 89 31 84 12 -2 25 -21 37 -54
25 -69 46 -79 121 -60 84 22 121 54 136 117 12 50 13 51 26 28 7 -13 13 -33
13 -44z m-108 2 c12 -43 0 -66 -39 -77 -71 -19 -113 5 -141 81 -9 24 -7 25 20
21 16 -2 27 -8 24 -12 -6 -10 19 -20 48 -20 20 0 21 0 1 16 -10 8 -14 13 -8
10 7 -3 17 0 23 8 19 22 63 5 72 -27z m39 -24 c-11 -17 -11 -17 -6 0 3 10 7
28 7 40 2 22 2 22 6 0 2 -12 -1 -30 -7 -40z m5329 20 c-13 -15 -11 -16 10 -10
16 4 21 3 14 -4 -6 -6 -28 -9 -49 -7 l-39 3 30 17 c38 22 51 22 34 1z m-5809
-14 c0 8 17 11 53 9 50 -3 52 -4 52 -33 0 -28 -3 -30 -42 -33 -38 -3 -43 -1
-43 17 0 12 -6 21 -14 21 -7 0 -20 8 -27 18 -13 15 -12 16 4 3 12 -9 17 -10
17 -2z m3402 -57 c-5 -1 -8 -13 -5 -25 3 -16 2 -18 -5 -9 -7 10 -12 6 -22 -18
-7 -17 -28 -56 -46 -87 -19 -30 -26 -49 -17 -42 15 13 16 11 10 -11 -6 -24 -5
-24 8 -6 17 23 20 40 5 31 -17 -11 -11 10 11 33 11 12 26 37 34 55 24 54 17
12 -10 -58 -19 -51 -38 -80 -81 -122 -53 -51 -60 -55 -95 -50 -35 5 -38 3 -41
-22 -3 -22 -23 -34 -23 -13 0 4 -4 13 -8 20 -10 14 0 52 14 52 5 0 9 8 9 19 0
11 12 23 30 31 17 7 34 19 38 27 7 12 24 19 55 22 4 1 7 7 7 14 0 8 11 24 25
37 14 14 45 55 68 93 29 46 43 62 46 50 2 -9 -1 -19 -7 -21z m2672 -24 c-9
-60 -25 -85 -18 -28 7 53 11 70 19 70 3 0 2 -19 -1 -42z m-3636 25 c-10 -2
-26 -2 -35 0 -10 3 -2 5 17 5 19 0 27 -2 18 -5z m47 -13 c3 -6 -1 -7 -9 -4
-18 7 -21 14 -7 14 6 0 13 -4 16 -10z m-2375 -14 c0 -2 -7 -20 -16 -41 -8 -21
-13 -44 -10 -51 7 -17 -10 -18 -21 -1 -4 6 -17 17 -28 23 -32 18 -26 48 10 52
17 2 34 8 40 13 9 9 25 12 25 5z m423 -16 c-3 -12 -8 -19 -11 -16 -5 6 5 36
12 36 2 0 2 -9 -1 -20z m5477 10 c0 -24 -45 -51 -127 -76 -96 -30 -152 -34
-198 -15 l-30 13 36 13 c20 7 67 18 105 24 38 6 98 19 134 30 78 23 80 24 80
11z m27 -32 c-3 -8 -6 -5 -6 6 -1 11 2 17 5 13 3 -3 4 -12 1 -19z m-5820 -94
c-1 -1 -20 2 -42 6 -36 7 -40 10 -17 14 5 0 17 9 27 20 19 18 19 18 27 -10 4
-15 6 -29 5 -30z m-177 37 c0 -5 -7 -14 -15 -21 -8 -7 -15 -10 -15 -7 0 3 -3
12 -6 21 -4 12 0 16 15 16 12 0 21 -4 21 -9z m5939 -121 c-21 -63 -47 -128
-56 -145 -30 -53 -68 -95 -81 -90 -7 3 -10 0 -7 -5 3 -6 2 -10 -3 -10 -5 0
-12 -9 -15 -20 -7 -25 -73 -55 -91 -41 -7 6 -22 8 -34 4 -12 -3 -22 -1 -22 5
0 6 -12 17 -27 24 -51 25 -40 38 31 38 64 0 84 10 49 25 -14 6 -9 10 22 20
l40 13 -48 1 c-31 1 -46 5 -42 11 4 6 15 8 25 5 12 -4 19 1 23 14 3 13 -1 21
-15 25 -16 4 -19 10 -14 28 3 13 6 47 6 76 0 61 12 66 54 21 32 -34 45 -34
122 3 42 19 52 29 98 92 10 15 20 25 22 24 1 -2 -15 -55 -37 -118z m-5449 90
c0 -5 -4 -10 -10 -10 -5 0 -10 5 -10 10 0 6 5 10 10 10 6 0 10 -4 10 -10z
m-425 -77 c14 -15 25 -31 25 -35 0 -13 -20 -9 -36 6 -7 8 -19 16 -26 18 -11 4
-5 38 6 38 3 0 17 -12 31 -27z m2955 -31 c-15 -5 -41 18 -34 30 3 5 15 1 26
-9 11 -10 15 -19 8 -21z m2951 -94 c-7 -46 -17 -101 -23 -123 -6 -22 -12 -76
-14 -120 -4 -92 -8 -134 -18 -190 -6 -36 2 -78 39 -215 6 -20 -5 -13 -51 34
-35 35 -54 61 -46 64 15 5 16 46 1 74 -9 16 -8 39 1 92 7 39 16 76 20 81 12
18 18 55 9 55 -5 0 -9 -4 -9 -10 0 -5 -8 -10 -18 -10 -10 0 -27 -7 -38 -15
-10 -8 -39 -14 -64 -14 -42 0 -44 1 -26 14 11 8 28 15 37 15 10 0 21 4 24 10
3 5 -13 9 -40 8 -25 0 -45 -4 -45 -9 0 -5 -14 -16 -31 -25 -29 -14 -33 -14
-47 0 -31 31 7 48 123 56 6 0 3 4 -4 9 -12 8 -10 12 12 22 15 7 51 44 81 84
58 77 80 115 90 158 4 15 10 25 15 22 5 -2 12 2 15 11 15 38 18 -1 7 -78z
m-388 73 c17 -6 17 -9 -5 -41 -21 -30 -61 -59 -44 -31 4 6 -2 24 -13 40 -11
15 -18 31 -14 35 8 8 53 7 76 -3z m-5225 -49 c-20 -36 -58 -64 -58 -43 0 8 73
89 78 86 1 -1 -8 -20 -20 -43z m2232 -12 c0 -11 -4 -20 -9 -20 -5 0 -7 9 -4
20 3 11 7 20 9 20 2 0 4 -9 4 -20z m998 -65 c-3 -3 -9 2 -12 12 -6 14 -5 15 5
6 7 -7 10 -15 7 -18z m-3372 -173 c-11 -10 -13 3 -7 43 l6 40 3 -39 c2 -21 1
-41 -2 -44z m3063 -32 c0 -9 -4 -8 -9 5 -5 11 -9 27 -9 35 0 9 4 8 9 -5 5 -11
9 -27 9 -35z m-3092 -7 c-3 -10 -5 -2 -5 17 0 19 2 27 5 18 2 -10 2 -26 0 -35z
m4938 -29 c8 -28 17 -40 35 -44 19 -4 26 -14 31 -41 7 -46 62 -103 90 -94 10
4 33 18 49 31 18 16 37 23 48 20 26 -9 28 -125 2 -218 -11 -39 -17 -82 -13
-96 7 -28 -4 -25 -43 10 -29 25 -38 10 -30 -47 9 -54 42 -92 91 -101 20 -3 67
-17 103 -30 37 -12 68 -21 70 -19 2 1 -22 20 -53 40 -65 44 -85 69 -85 108 0
39 21 117 31 117 12 0 25 -29 33 -70 6 -31 5 -33 -7 -17 -19 23 -27 22 -27 -5
1 -44 26 -76 113 -149 l88 -73 -6 -50 c-8 -56 -33 -146 -46 -160 -5 -6 -19 -4
-36 3 l-28 13 24 -26 c94 -100 -239 115 -380 246 -20 18 -29 36 -29 57 0 18
-5 31 -12 31 -9 0 -8 3 2 10 15 9 7 25 -13 25 -7 0 -12 14 -12 30 0 39 39 49
50 14 4 -12 15 -30 24 -39 22 -23 102 -80 112 -80 4 0 1 19 -7 43 -16 42 -15
86 5 240 7 54 6 57 -13 51 -12 -3 -25 -11 -31 -17 -7 -7 -4 -8 9 -3 15 5 17 3
12 -16 -4 -13 -9 -44 -13 -70 -6 -47 -23 -68 -23 -29 0 11 -4 23 -10 26 -5 3
-10 19 -10 36 0 29 -14 40 -23 17 -2 -7 -3 10 -1 37 4 47 3 48 -7 20 -7 -16
-17 -38 -24 -48 -11 -16 -13 -16 -19 -2 -3 9 -2 13 4 10 15 -9 12 22 -4 37 -8
8 -15 46 -18 93 -4 70 -24 144 -64 240 -8 19 -7 19 21 -2 17 -12 33 -37 40
-59z m685 -31 c0 -7 -10 -34 -21 -60 -23 -50 -34 -78 -42 -103 -3 -8 -6 -3 -6
13 -1 15 -5 27 -9 27 -9 0 -5 -106 7 -188 8 -50 -2 -82 -13 -45 -3 10 -4 -6
-2 -36 2 -30 0 -47 -5 -40 -4 8 -12 83 -18 168 -12 166 -12 269 -1 166 6 -55
7 -56 8 -16 2 41 3 43 28 37 17 -5 23 -3 19 4 -3 5 -1 10 5 10 6 0 9 4 5 9 -3
5 0 13 6 16 6 4 8 17 5 29 -4 17 -1 22 14 22 11 0 20 -6 20 -13z m-2570 -18
c0 -16 -6 -25 -15 -25 -28 0 -18 40 13 49 1 1 2 -10 2 -24z m2385 -65 c4 -44
11 -80 16 -80 5 0 9 -5 9 -11 0 -5 -4 -7 -10 -4 -5 3 -10 2 -10 -3 0 -6 7 -12
14 -15 12 -5 16 5 19 41 2 36 4 30 5 -25 1 -41 -2 -75 -8 -78 -7 -4 -9 2 -5
18 5 17 2 26 -8 30 -16 6 -16 -9 -3 -165 2 -21 0 -35 -4 -33 -4 3 -11 42 -15
87 -5 46 -9 88 -10 93 -1 6 -3 20 -3 33 -1 13 -9 22 -18 22 -13 0 -15 -7 -10
-35 4 -21 3 -35 -3 -35 -22 0 20 -159 49 -185 11 -10 20 -25 20 -34 0 -12 -6
-9 -21 9 -35 43 -59 84 -59 102 0 18 -55 78 -71 78 -12 0 -2 -39 16 -60 7 -8
15 -31 18 -50 3 -19 9 -44 13 -55 7 -20 7 -20 -14 -1 -14 12 -22 31 -22 51 0
24 -5 34 -20 38 -31 8 -34 33 -10 82 19 39 21 56 16 129 l-5 83 39 16 c22 8
49 13 60 10 22 -6 28 12 8 20 -8 4 -7 6 3 6 14 1 18 -14 24 -79z m32 18 c-3
-7 -5 -2 -5 12 0 14 2 19 5 13 2 -7 2 -19 0 -25z m340 -35 c-3 -10 -5 -4 -5
12 0 17 2 24 5 18 2 -7 2 -21 0 -30z m-350 -15 c-3 -8 -6 -5 -6 6 -1 11 2 17
5 13 3 -3 4 -12 1 -19z m-2407 2 c0 -5 -4 -10 -10 -10 -5 0 -10 5 -10 10 0 6
5 10 10 10 6 0 10 -4 10 -10z m-3340 -235 c6 -88 13 -190 17 -227 3 -42 2 -68
-4 -68 -11 0 -21 135 -28 355 -5 174 1 150 15 -60z m2647 133 c-3 -8 -6 -5 -6
6 -1 11 2 17 5 13 3 -3 4 -12 1 -19z m3526 -102 c-9 -14 -33 25 -33 53 1 25 2
24 19 -9 11 -19 17 -39 14 -44z m697 17 c0 -9 6 -13 14 -10 8 3 17 -1 20 -9 3
-8 2 -12 -3 -9 -5 3 -16 -4 -25 -16 -11 -16 -20 -19 -33 -14 -10 5 -22 9 -28
9 -21 2 -10 50 14 63 28 13 41 9 41 -14z m840 17 c0 -5 -5 -10 -11 -10 -5 0
-7 5 -4 10 3 6 8 10 11 10 2 0 4 -4 4 -10z m-1933 -77 c-2 -16 -4 -3 -4 27 0
30 2 43 4 28 2 -16 2 -40 0 -55z m-4119 54 c-1 -2 3 -12 11 -21 12 -15 12 -17
0 -14 -8 2 -13 -3 -11 -12 2 -12 -1 -11 -11 2 -8 10 -17 15 -20 12 -3 -4 -5 3
-4 14 0 11 4 19 8 16 4 -2 11 1 14 7 4 5 9 8 12 5 2 -2 3 -6 1 -9z m4336 -40
c39 -58 31 -96 -14 -67 -13 9 -13 11 -1 19 11 7 12 13 4 23 -9 11 -26 74 -17
66 1 -2 14 -20 28 -41z m-55 -91 c23 -25 24 -28 6 -24 -25 4 -74 76 -81 120
-5 30 -3 29 22 -17 14 -27 38 -63 53 -79z m-4509 80 c0 -3 -4 -8 -10 -11 -5
-3 -10 -1 -10 4 0 6 5 11 10 11 6 0 10 -2 10 -4z m3736 -53 c-4 -32 -11 -121
-16 -197 -5 -77 -13 -143 -17 -147 -11 -11 -10 113 1 130 6 9 5 12 0 8 -11 -6
-11 33 -1 50 3 5 5 20 2 32 -2 11 0 21 6 21 5 0 9 25 9 56 0 34 -4 53 -10 49
-5 -3 -10 -2 -10 3 0 6 7 12 15 16 8 3 15 12 15 21 0 8 3 15 6 15 3 0 3 -26 0
-57z m-3649 23 c0 -8 -6 -12 -14 -9 -7 3 -10 9 -7 14 8 14 21 11 21 -5z m4460
-68 c-3 -8 -6 -5 -6 6 -1 11 2 17 5 13 3 -3 4 -12 1 -19z m1866 9 c3 -7 3 -51
1 -97 -5 -112 -7 -121 -16 -112 -7 7 -10 135 -6 205 2 20 14 23 21 4z m-4101
-122 c3 -66 2 -106 -2 -90 -8 30 -13 222 -6 214 2 -2 6 -58 8 -124z m1908 95
c0 -5 15 -14 34 -20 38 -12 86 -46 86 -61 0 -9 -115 62 -140 87 -13 13 -13 14
3 8 9 -3 17 -10 17 -14z m-4339 -30 c17 0 18 -3 9 -20 -8 -15 -8 -18 3 -14 8
3 41 -21 77 -57 35 -34 66 -57 68 -51 2 7 9 9 15 5 6 -4 8 0 5 9 -5 11 0 14
18 10 15 -3 24 0 24 9 0 7 3 10 6 6 9 -8 30 14 38 40 8 25 24 30 100 29 56 -1
60 -3 67 -28 4 -17 3 -28 -3 -28 -6 0 -8 -6 -5 -14 3 -8 0 -20 -8 -26 -7 -6
-12 -20 -10 -30 3 -15 -5 -22 -36 -31 -71 -22 -98 -65 -67 -106 7 -9 2 -14
-16 -19 -14 -3 -23 -10 -20 -15 3 -5 0 -9 -5 -9 -6 0 -11 5 -11 10 0 6 -5 10
-11 10 -5 0 -8 -3 -6 -7 3 -5 -9 -9 -26 -9 -18 -1 -23 1 -13 3 14 4 16 7 6 13
-17 11 -42 1 -33 -14 3 -6 0 -5 -8 2 -12 11 -12 14 1 22 8 5 10 10 4 10 -6 0
-17 -7 -24 -15 -7 -8 -18 -15 -26 -15 -7 0 -20 -7 -28 -16 -10 -10 -16 -11
-16 -4 0 7 -7 10 -15 6 -9 -3 -15 0 -15 9 0 13 -3 13 -20 3 -10 -7 -17 -14
-15 -16 2 -3 0 -13 -5 -22 -8 -15 -6 -17 13 -13 14 3 18 2 10 -4 -9 -7 -6 -16
14 -37 14 -15 28 -24 32 -18 4 6 11 4 19 -4 10 -11 10 -14 0 -14 -9 0 -10 -3
-2 -8 6 -4 14 -18 17 -32 3 -14 13 -45 22 -70 13 -37 22 -47 50 -56 19 -6 35
-8 35 -5 0 3 18 6 39 7 22 0 38 -3 36 -6 -2 -4 2 -7 10 -7 8 0 12 4 9 9 -3 4
3 8 13 8 11 0 24 5 30 11 22 22 243 3 243 -20 0 -4 9 -7 20 -8 18 -2 20 4 20
50 0 29 4 57 8 64 13 20 56 32 76 21 17 -9 17 -4 13 94 l-5 103 9 -95 c5 -52
14 -117 19 -145 6 -27 15 -84 20 -125 19 -141 18 -140 46 -140 l25 0 -2 -97
c-1 -54 -1 -111 1 -126 3 -38 -4 -43 -29 -18 -19 19 -21 33 -21 127 l0 107
-27 -29 c-15 -16 -38 -49 -51 -73 -23 -43 -23 -56 -5 -116 5 -17 3 -18 -9 -8
-8 7 -18 10 -21 7 -3 -3 -12 -2 -19 2 -14 9 -68 12 -68 4 0 -5 -119 -4 -130 1
-3 1 -10 3 -15 3 -6 1 -28 12 -49 24 -29 17 -36 26 -27 36 6 7 8 15 5 19 -3 3
8 3 25 1 21 -4 31 -1 31 7 0 10 3 10 12 1 7 -7 17 -8 28 -2 9 5 22 5 29 0 8
-4 29 -3 48 2 18 5 41 8 51 7 36 -5 122 31 122 51 0 9 -31 12 -160 14 -110 1
-180 -5 -180 -15 0 -4 -13 -10 -29 -14 -31 -7 -64 -35 -42 -35 7 0 3 -10 -9
-22 -11 -12 -20 -31 -21 -42 -1 -29 -4 -39 -39 -140 -39 -112 -56 -145 -115
-226 -55 -74 -270 -289 -369 -368 -61 -49 -66 -52 -67 -30 -1 13 -3 56 -4 96
-2 41 -6 76 -9 79 -13 13 -5 35 27 70 31 35 77 107 77 120 0 13 -35 -25 -94
-102 -53 -68 -62 -86 -59 -112 3 -17 0 -34 -6 -38 -6 -3 -11 -3 -10 2 5 28 -2
53 -13 47 -10 -5 -10 -4 -1 6 9 10 8 18 -3 36 -9 13 -13 32 -9 43 5 15 2 18
-13 14 -34 -8 -36 27 -5 72 16 22 39 66 52 98 13 33 30 61 38 64 20 8 63 -14
63 -32 0 -8 7 -15 15 -15 8 0 23 -9 32 -20 10 -11 30 -20 46 -20 16 0 30 -6
32 -15 15 -48 18 -51 24 -24 3 15 28 53 55 84 27 31 60 78 74 103 13 26 30 56
36 67 7 11 16 32 20 48 7 31 1 33 -59 15 -22 -6 -46 -11 -52 -9 -7 1 -13 -2
-13 -8 0 -5 -12 -12 -27 -15 -16 -4 -39 -9 -53 -12 -14 -3 -31 -6 -38 -6 -7
-1 -10 -8 -7 -16 4 -11 2 -12 -7 -4 -7 5 -32 16 -55 23 -24 6 -43 15 -43 19 0
11 -50 29 -90 32 -19 2 -34 8 -32 13 2 6 14 9 28 8 31 -2 31 15 0 23 -17 4
-30 -1 -49 -20 -30 -30 -50 -34 -45 -9 2 9 22 23 46 32 39 14 46 14 89 -2 43
-16 49 -16 59 -2 10 14 12 12 18 -8 8 -35 51 -34 64 2 25 73 28 93 25 165 -3
70 -1 81 18 102 11 12 18 27 15 33 -4 6 0 36 8 68 25 100 47 276 41 328 -5 39
0 74 25 160 17 61 37 129 43 153 6 24 13 38 15 33 2 -6 12 -11 23 -11z m706
-42 c-3 -7 -5 -2 -5 12 0 14 2 19 5 13 2 -7 2 -19 0 -25z m2533 -14 c0 -7 -5
-16 -12 -20 -6 -4 -8 -3 -4 4 3 6 2 13 -3 16 -5 3 -12 -1 -15 -10 -8 -20 -25
-9 -21 14 2 9 4 18 4 18 5 8 51 -12 51 -22z m1195 -8 c22 -8 39 -17 38 -20 -2
-3 -3 -15 -3 -26 0 -30 -15 -24 -50 20 -17 22 -30 40 -28 40 1 0 21 -7 43 -14z
m-3738 -18 c-3 -8 -6 -5 -6 6 -1 11 2 17 5 13 3 -3 4 -12 1 -19z m-257 -52 c0
-3 -4 -8 -10 -11 -5 -3 -10 -1 -10 4 0 6 5 11 10 11 6 0 10 -2 10 -4z m45 -26
c-3 -5 -12 -7 -20 -3 -21 7 -19 13 6 13 11 0 18 -4 14 -10z m222 -72 c-2 -18
-4 -6 -4 27 0 33 2 48 4 33 2 -15 2 -42 0 -60z m4293 -44 c0 -59 -3 -75 -13
-71 -7 3 -33 1 -58 -3 -24 -5 -45 -7 -47 -6 -1 2 4 16 13 32 8 16 15 47 15 70
0 50 4 54 52 54 l38 0 0 -76z m-1366 34 c-3 -4 7 -8 22 -8 15 0 25 -3 22 -6
-4 -3 -27 -2 -53 2 -26 3 -42 10 -36 13 15 9 51 8 45 -1z m169 -61 c4 3 7 -1
7 -10 0 -22 -3 -21 -26 5 -12 14 -13 18 -3 10 9 -6 19 -9 22 -5z m-5563 -42
c-12 -19 -26 -48 -30 -63 -7 -24 -8 -22 -6 13 1 27 9 48 26 66 33 34 37 28 10
-16z m1877 -13 c0 -10 -7 -19 -13 -19 -15 0 -14 18 1 29 14 10 14 10 12 -10z
m3296 -14 c41 -21 11 -101 -46 -121 -32 -12 -10 -23 42 -22 50 0 51 -1 51 -29
0 -17 -5 -55 -11 -85 l-12 -56 -91 6 c-85 6 -329 -6 -346 -16 -14 -9 -19 52
-8 91 6 22 13 33 15 26 4 -10 8 -10 19 -1 17 14 73 23 145 23 l57 0 -5 53 c-5
50 -4 54 34 92 57 59 97 69 156 39z m1612 -87 c7 -50 6 -53 -11 -46 -40 16
-79 25 -152 35 -42 6 -78 12 -80 15 -3 2 3 16 12 29 15 24 22 25 113 28 54 2
101 1 104 -2 4 -3 10 -29 14 -59z m-6844 -153 c-43 -173 -51 -234 -51 -390 0
-95 -3 -138 -11 -138 -7 0 -9 9 -6 21 3 12 1 33 -5 48 -13 32 -20 100 -9 82
12 -18 20 20 16 72 -4 52 11 153 35 232 10 33 27 95 37 137 10 43 19 73 21 68
2 -5 -10 -65 -27 -132z m6689 -16 c27 -25 40 -28 40 -9 0 8 -10 19 -22 25 -38
18 72 15 116 -3 30 -13 36 -20 36 -45 l0 -30 -92 -2 c-136 -3 -176 -5 -243
-13 -67 -8 -175 -12 -175 -7 0 2 14 23 30 48 33 47 34 47 158 48 12 0 22 4 22
9 0 19 106 1 130 -21z m-310 12 c0 -14 -64 -83 -72 -78 -6 4 -5 11 1 17 6 6
11 21 11 32 0 12 3 25 7 28 8 8 53 9 53 1z m-2747 -131 c-23 -2 -64 -2 -90 0
-26 2 -7 3 42 3 50 0 71 -1 48 -3z m92 -3 c3 -5 -3 -10 -15 -10 -12 0 -18 5
-15 10 3 6 10 10 15 10 5 0 12 -4 15 -10z m1525 -75 c0 -53 -3 -63 -15 -59 -8
4 -13 9 -11 13 2 3 -7 6 -20 6 -13 0 -24 -3 -24 -7 0 -4 -9 -5 -20 -3 -11 2
-22 0 -25 -4 -2 -5 -44 -7 -92 -4 -49 2 -117 4 -153 5 -36 0 -68 6 -72 12 -5
7 -8 6 -8 -3 0 -8 7 -19 15 -25 22 -16 41 -131 26 -163 -7 -14 -9 -28 -6 -31
3 -3 5 0 5 7 0 8 7 11 15 7 8 -3 15 0 16 7 0 7 4 3 9 -8 5 -11 9 -15 9 -9 1 6
19 10 44 10 28 -1 41 3 40 11 -2 8 4 10 14 6 11 -4 13 -8 5 -11 -7 -2 -12 -13
-11 -25 0 -12 3 -16 6 -9 2 6 9 12 14 12 6 0 7 -5 4 -11 -4 -6 2 -5 14 3 17
10 23 10 33 -1 8 -9 9 -12 1 -7 -6 3 -14 2 -17 -3 -4 -5 7 -7 24 -5 17 3 30 1
30 -5 0 -6 3 -10 8 -9 4 1 30 -3 57 -9 28 -7 67 -15 88 -18 34 -5 37 -4 37 17
0 13 -7 32 -15 42 -8 11 -15 16 -15 10 0 -10 -146 -9 -197 2 -18 3 -33 10 -33
15 0 4 -13 16 -30 25 -22 14 -27 21 -18 31 8 10 6 13 -6 13 -27 0 -18 15 19
33 60 28 107 19 189 -36 21 -15 43 -24 49 -20 6 3 7 1 3 -5 -4 -7 -5 -12 -2
-12 2 0 11 -3 20 -6 12 -5 16 0 17 17 2 57 29 -84 31 -163 3 -71 0 -90 -14
-104 -12 -13 -21 -14 -30 -7 -7 6 -31 11 -53 10 -22 0 -59 9 -83 21 -42 20
-100 38 -114 34 -5 -1 -8 2 -8 8 0 6 -8 10 -17 10 -10 0 -33 9 -51 20 -19 12
-55 28 -80 37 -43 14 -47 14 -57 -2 -19 -32 -124 -140 -125 -128 0 7 16 30 35
50 40 42 42 48 19 57 -22 8 -28 1 -29 -32 0 -20 -6 -28 -22 -30 -21 -3 -22 -6
-16 -90 3 -48 2 -84 -2 -79 -5 4 -9 44 -11 90 -1 45 -5 90 -9 99 -4 9 0 66 8
125 9 66 11 115 6 125 -5 9 -9 29 -9 45 0 16 -9 45 -20 65 l-20 37 35 7 c19 3
50 3 68 0 71 -15 92 -13 95 12 3 17 8 22 23 17 10 -3 29 -8 40 -11 16 -4 19
-3 14 6 -5 8 -4 11 3 6 14 -8 130 -9 162 -1 14 4 63 9 110 12 47 3 87 9 88 14
8 22 12 4 12 -56z m-2454 45 l34 0 -30 -27 c-28 -27 -30 -32 -32 -118 -1 -49
1 -121 6 -160 6 -56 4 -74 -8 -90 -14 -17 -17 -18 -26 -5 -6 8 -9 25 -7 38 3
12 0 25 -5 28 -4 3 -6 9 -3 14 3 5 0 20 -7 32 -7 13 -17 37 -23 54 -13 34 -13
213 -1 233 6 8 19 11 38 7 17 -3 46 -6 64 -6z m964 -45 c0 -20 -5 -25 -22 -24
-18 1 -19 2 -5 6 12 3 16 10 12 24 -4 11 -2 19 4 19 6 0 11 -11 11 -25z m-835
5 c3 -5 16 -10 27 -10 12 0 30 -7 40 -17 29 -26 22 -69 -19 -121 -57 -73 -63
-76 -90 -50 -31 29 -29 56 6 99 26 31 29 40 21 72 -7 35 1 50 15 27z m-39 -31
c3 -6 1 -22 -6 -35 l-13 -24 -22 30 c-21 29 -39 32 -29 5 3 -7 1 -16 -5 -20
-15 -9 -14 28 1 43 15 15 65 16 74 1z m531 -5 c2 -6 -5 -14 -17 -17 -15 -4
-20 0 -20 15 0 21 30 23 37 2z m1000 -6 c-3 -8 -6 -5 -6 6 -1 11 2 17 5 13 3
-3 4 -12 1 -19z m83 -12 c0 -20 -48 -48 -70 -41 -30 9 -24 21 18 38 48 19 52
20 52 3z m96 -18 c5 -7 9 -20 9 -30 1 -14 -4 -16 -24 -11 -33 7 -51 22 -51 39
0 18 56 19 66 2z m-3866 -12 c0 -8 6 -16 13 -19 18 -6 6 -14 -36 -21 -27 -5
-37 -4 -32 3 3 6 13 11 21 11 8 0 14 9 14 20 0 11 5 20 10 20 6 0 10 -6 10
-14z m5430 -27 c0 -5 -4 -9 -10 -9 -5 0 -10 7 -10 16 0 8 5 12 10 9 6 -3 10
-10 10 -16z m-4712 -5 c36 -10 25 -20 -18 -16 -22 2 -37 8 -34 13 6 10 20 11
52 3z m3063 -29 c36 -19 50 -51 36 -82 -15 -33 -31 -28 -45 12 -7 19 -18 32
-25 30 -19 -7 -33 8 -40 42 -6 31 -5 32 18 23 14 -5 39 -17 56 -25z m-135 -53
c-21 -2 -40 -1 -42 1 -3 2 8 18 22 35 l27 31 16 -32 16 -32 -39 -3z m-778 31
c5 -17 -23 -16 -37 1 -9 10 -7 13 11 12 12 0 23 -7 26 -13z m-2008 -28 c0 -9
-6 -12 -15 -9 -8 4 -15 10 -15 15 0 5 7 9 15 9 8 0 15 -7 15 -15z m4597 9 c-3
-3 -12 -4 -19 -1 -8 3 -5 6 6 6 11 1 17 -2 13 -5z m81 -1 c-10 -2 -26 -2 -35
0 -10 3 -2 5 17 5 19 0 27 -2 18 -5z m-5678 -10 c0 -5 -35 -8 -78 -9 -58 -1
-67 1 -37 6 57 10 115 11 115 3z m4010 -3 c0 -5 -4 -10 -10 -10 -5 0 -10 5
-10 10 0 6 5 10 10 10 6 0 10 -4 10 -10z m1142 -15 c9 -3 19 -13 22 -22 5 -12
1 -14 -21 -8 -40 10 -76 28 -80 42 -4 11 39 5 79 -12z m-5329 8 c-13 -2 -33
-2 -45 0 -13 2 -3 4 22 4 25 0 35 -2 23 -4z m2437 -7 c0 -8 -4 -17 -9 -21 -12
-7 -24 12 -16 25 9 15 25 12 25 -4z m2778 -27 c-3 -20 -5 -19 -9 9 -3 20 -2
29 4 23 5 -5 7 -19 5 -32z m-1964 6 c-16 -24 -16 -27 1 -45 21 -24 4 -27 -19
-4 -21 21 -20 51 2 63 28 17 33 12 16 -14z m-2801 -134 c41 -79 38 -91 -23
-91 l-50 0 0 81 c0 44 -5 89 -10 100 -8 15 -7 19 5 19 9 0 15 9 16 23 1 13 7
3 18 -29 9 -27 28 -74 44 -103z m2464 127 c-3 -8 -6 -5 -6 6 -1 11 2 17 5 13
3 -3 4 -12 1 -19z m463 -13 c0 -13 -7 -25 -15 -29 -12 -4 -15 3 -15 29 0 26 3
33 15 29 8 -4 15 -16 15 -29z m-406 4 c-3 -5 -10 -7 -15 -3 -5 3 -7 10 -3 15
3 5 10 7 15 3 5 -3 7 -10 3 -15z m672 -6 c-10 -10 -19 5 -10 18 6 11 8 11 12
0 2 -7 1 -15 -2 -18z m-316 9 c0 -4 -9 -8 -19 -8 -11 0 -17 4 -15 8 3 4 12 8
20 8 8 0 14 -4 14 -8z m870 -27 c0 -5 -5 -3 -10 5 -5 8 -10 20 -10 25 0 6 5 3
10 -5 5 -8 10 -19 10 -25z m-3977 5 c3 -11 1 -20 -4 -20 -5 0 -9 9 -9 20 0 11
2 20 4 20 2 0 6 -9 9 -20z m34 -12 c-3 -7 -5 -2 -5 12 0 14 2 19 5 13 2 -7 2
-19 0 -25z m713 7 c0 -9 6 -12 15 -9 8 4 26 -1 40 -10 15 -10 26 -12 30 -6 7
12 52 14 57 3 2 -5 17 -16 33 -25 39 -22 34 -33 -15 -33 -34 0 -44 -5 -60 -30
-13 -19 -20 -24 -20 -14 0 9 -9 28 -21 43 -29 36 -73 36 -93 -1 -8 -16 -15
-22 -16 -15 0 7 5 22 11 33 10 20 10 20 -21 4 -30 -16 -32 -19 -25 -53 4 -21
7 -46 8 -57 1 -11 6 -23 11 -26 10 -8 -2 -49 -15 -49 -5 0 -9 16 -9 35 0 19
-3 35 -7 35 -5 0 -8 20 -8 45 0 38 7 54 43 101 40 51 62 62 62 29z m2630 16
c0 -10 -55 -9 -66 2 -4 4 9 7 29 7 21 0 37 -4 37 -9z m-4195 -24 c30 -17 43
-33 53 -62 7 -22 18 -44 24 -50 8 -7 9 -6 4 3 -9 15 10 16 19 2 5 -8 11 -8 19
-1 7 6 16 8 19 4 11 -10 8 -93 -3 -93 -5 0 -10 -9 -10 -21 0 -11 -4 -18 -9
-14 -5 3 -13 -18 -18 -47 l-8 -53 36 -3 37 -3 7 -67 c4 -37 22 -125 41 -197
48 -181 66 -271 61 -297 -4 -20 -4 -19 -6 5 0 15 -5 27 -11 27 -5 0 -7 7 -3
16 3 8 -2 49 -12 90 -13 54 -22 74 -34 75 -9 0 -24 2 -34 4 -10 2 -16 -2 -15
-10 3 -13 0 -15 -24 -15 -9 0 -8 4 2 10 8 5 10 10 4 10 -6 0 -18 -8 -25 -17
-10 -11 -10 -14 -1 -9 6 4 12 3 12 -3 0 -5 -5 -13 -10 -16 -8 -5 -7 -12 2 -23
11 -13 11 -15 -2 -8 -9 4 -8 2 2 -7 10 -8 15 -17 11 -20 -3 -4 -2 -7 3 -7 5 0
10 -9 10 -19 0 -14 -4 -17 -12 -11 -6 6 -15 6 -19 2 -5 -4 -5 -1 -1 6 4 6 2
12 -4 12 -6 0 -14 -10 -19 -22 -8 -21 -9 -20 -15 12 -8 47 -28 269 -32 352 -1
39 -9 77 -18 90 -12 19 -14 32 -6 58 19 65 4 190 -22 190 -6 0 -5 -7 3 -17 11
-13 11 -17 2 -20 -18 -6 -16 -39 4 -58 10 -10 12 -19 6 -23 -5 -4 -14 -34 -20
-67 -10 -53 -9 -64 8 -98 27 -54 25 -71 -7 -63 -15 4 -33 14 -41 21 -8 8 -18
15 -22 15 -7 0 -32 46 -72 132 l-18 38 29 15 c38 20 37 20 45 -14 3 -16 15
-46 26 -67 l19 -38 0 57 c0 31 3 57 8 57 4 0 8 18 10 40 2 35 0 40 -23 46 -24
6 -35 24 -15 24 6 0 10 5 10 12 0 26 -33 -22 -41 -59 -7 -30 -7 -25 -3 22 5
66 24 95 61 95 18 0 24 5 21 18 -3 13 -12 16 -35 14 -38 -4 -52 13 -18 22 16
4 22 11 19 21 -4 10 -14 13 -32 8 -17 -4 -23 -2 -18 6 11 18 58 13 101 -12z
m5814 -41 c-9 -8 -10 -7 -5 7 3 10 7 26 7 35 1 9 4 6 6 -7 3 -13 -1 -28 -8
-35z m-5923 15 c0 -11 -8 -22 -18 -24 -20 -6 -24 13 -6 31 17 17 24 15 24 -7z
m594 9 c13 -8 12 -11 -5 -24 -17 -12 -21 -13 -28 0 -8 14 -2 34 11 34 4 0 14
-5 22 -10z m2615 -31 c-4 -6 -13 -8 -20 -5 -20 7 -34 -15 -29 -48 l4 -31 -10
29 c-12 38 3 66 36 66 15 0 23 -4 19 -11z m955 1 c-119 -5 -154 -10 -194 -28
-73 -33 -113 -67 -146 -125 -16 -29 -30 -47 -30 -41 0 19 56 99 91 128 71 60
127 74 294 73 l130 0 -145 -7z m2409 -62 c0 -10 -3 -18 -9 -18 -5 0 -9 21 -9
48 1 42 2 44 9 17 4 -16 8 -38 9 -47z m-2622 56 c-3 -3 -12 -4 -19 -1 -8 3 -5
6 6 6 11 1 17 -2 13 -5z m872 -43 c0 -14 -1 -14 -6 -1 -3 8 -13 24 -22 35 -16
20 -16 20 7 1 12 -11 22 -26 21 -35z m-680 30 c12 -8 9 -11 -11 -16 -28 -7
-48 -1 -48 16 0 12 40 12 59 0z m589 2 c-22 -3 -28 -10 -28 -30 0 -31 -5 -28
-14 10 -6 26 -5 27 31 26 30 -2 33 -3 11 -6z m-3008 -13 c0 -5 -5 -10 -11 -10
-5 0 -7 5 -4 10 3 6 8 10 11 10 2 0 4 -4 4 -10z m4730 -20 c0 -16 -4 -30 -8
-30 -5 0 -7 14 -4 30 2 17 6 30 8 30 2 0 4 -13 4 -30z m-2303 -15 c7 -11 12
-29 12 -40 0 -18 -1 -18 -9 3 -5 12 -14 22 -20 22 -6 0 -8 -4 -5 -10 8 -12
-15 -13 -34 -1 -8 5 -11 16 -8 24 3 9 1 18 -6 20 -7 3 4 4 23 3 23 -1 39 -8
47 -21z m-4151 -1 c-3 -9 -6 -24 -6 -34 0 -28 -61 -42 -85 -19 -7 7 2 20 25
39 39 33 76 40 66 14z m1722 -19 c0 -32 -7 -27 -14 10 -2 14 -1 24 4 21 5 -3
10 -17 10 -31z m4075 16 c17 -6 27 -18 27 -30 0 -12 12 -27 29 -35 36 -19 41
-33 35 -98 -6 -56 -42 -178 -53 -178 -4 0 -17 7 -29 16 -27 18 -29 66 -6 113
9 19 14 44 10 59 -3 15 -9 48 -14 74 -11 57 -27 78 -60 78 -28 0 -62 -25 -62
-47 0 -7 -6 -13 -14 -13 -8 0 -23 -3 -33 -7 -10 -4 2 15 27 41 40 43 49 47 80
43 19 -3 47 -10 63 -16z m-1783 -4 c0 -1 -21 -20 -47 -41 l-48 -38 42 41 c37
36 53 48 53 38z m-3211 -16 c7 -5 11 -14 7 -19 -9 -15 -36 -4 -36 14 0 16 9
18 29 5z m155 -6 c-5 -11 -2 -13 10 -9 13 5 16 0 16 -25 0 -24 3 -29 17 -24
11 4 14 3 9 -5 -4 -7 -2 -12 6 -12 7 0 2 -7 -10 -16 -15 -11 -22 -25 -22 -50
0 -19 -5 -34 -11 -34 -6 0 -8 9 -4 20 4 11 2 20 -4 20 -6 0 -11 -7 -11 -15 0
-8 -5 -15 -11 -15 -13 0 -9 149 4 168 13 16 18 15 11 -3z m-86 -95 c1 -66 -1
-90 -8 -80 -5 8 -10 11 -10 6 0 -5 -7 -3 -15 4 -11 9 -14 26 -11 59 3 25 5 61
5 79 1 26 5 33 19 30 14 -3 17 -17 20 -98z m2279 38 c-2 -13 -4 -3 -4 22 0 25
2 35 4 23 2 -13 2 -33 0 -45z m1665 15 c4 7 7 -35 6 -93 -1 -58 -3 -91 -5 -73
-3 25 -11 34 -41 46 -23 9 -39 11 -43 5 -8 -12 -16 20 -25 99 l-7 63 54 -30
c39 -21 56 -26 61 -17z m1828 27 c0 -5 -4 -10 -10 -10 -5 0 -10 5 -10 10 0 6
5 10 10 10 6 0 10 -4 10 -10z m-4673 -22 c-3 -8 -6 -5 -6 6 -1 11 2 17 5 13 3
-3 4 -12 1 -19z m1030 -10 c-3 -7 -5 -2 -5 12 0 14 2 19 5 13 2 -7 2 -19 0
-25z m-1296 -10 c2 -48 -2 -72 -12 -82 -5 -6 -9 14 -9 52 0 63 19 90 21 30z
m2513 -79 c25 -45 18 -38 -43 46 -42 56 -45 62 -14 29 21 -23 47 -57 57 -75z
m2499 98 c3 -8 1 -20 -4 -28 -7 -12 -11 -11 -25 3 -17 17 -12 38 11 38 7 0 15
-6 18 -13z m-3672 -67 c-9 -24 -10 -24 -10 7 -1 17 2 40 7 50 6 15 7 14 10 -7
2 -14 -2 -37 -7 -50z m-1121 34 c0 -14 -4 -23 -10 -19 -5 3 -10 15 -10 26 0
10 5 19 10 19 6 0 10 -12 10 -26z m1297 -26 c-2 -13 -4 -5 -4 17 -1 22 1 32 4
23 2 -10 2 -28 0 -40z m924 -36 c6 -18 9 -35 7 -38 -3 -2 -10 14 -17 37 -11
36 -14 39 -28 27 -15 -11 -16 -11 -10 5 3 9 2 17 -3 17 -6 0 -10 10 -10 23 1
21 2 20 25 -8 14 -16 30 -45 36 -63z m1629 52 c0 -13 -4 -24 -9 -24 -11 0 -19
30 -14 48 7 20 23 3 23 -24z m-4854 11 c-1 -8 -7 -20 -13 -26 -14 -14 -27 5
-19 26 7 20 35 19 32 0z m194 -5 c0 -21 -33 -29 -45 -10 -9 15 4 30 26 30 12
0 19 -7 19 -20z m5462 -15 c-2 -14 -8 -25 -13 -25 -10 0 -11 7 -3 37 8 31 23
20 16 -12z m-5822 15 c0 -5 -3 -10 -7 -10 -5 0 -18 -3 -30 -6 -17 -5 -23 -2
-23 10 0 11 9 16 30 16 17 0 30 -4 30 -10z m3276 -74 c1 -37 5 -70 8 -73 3 -4
16 -1 29 4 l24 11 2 -133 c2 -120 0 -136 -19 -169 -12 -20 -25 -36 -29 -36 -5
0 -16 16 -27 35 -10 19 -21 35 -24 35 -3 0 -3 24 -2 54 3 42 7 53 18 49 10 -4
12 0 8 13 -4 11 -10 24 -14 29 -4 6 -6 46 -4 90 1 44 3 100 3 123 2 73 24 46
27 -32z m2391 12 c-2 -13 -4 -3 -4 22 0 25 2 35 4 23 2 -13 2 -33 0 -45z m180
42 c-1 -12 -5 -16 -10 -11 -5 5 -6 14 -3 20 11 16 15 13 13 -9z m-991 -7 c3
-10 10 -26 15 -35 5 -10 9 -24 9 -32 0 -8 10 -27 23 -43 12 -15 29 -40 36 -55
24 -46 70 -94 78 -82 13 19 53 27 68 14 25 -21 17 -39 -17 -42 l-33 -3 43 -23
c23 -12 42 -24 42 -27 0 -2 -9 -29 -21 -60 -15 -41 -25 -55 -36 -51 -8 3 -19
6 -24 6 -5 0 -9 12 -9 26 0 14 -4 23 -10 19 -5 -3 -26 4 -47 15 -21 11 -42 20
-48 21 -16 0 -87 99 -72 99 8 0 22 -9 33 -21 22 -25 133 -83 142 -75 11 11
-21 55 -44 60 -13 4 -34 20 -46 37 -13 17 -32 35 -44 39 -14 6 -25 24 -34 57
-7 26 -22 68 -32 92 -20 46 -16 81 8 81 8 0 17 -8 20 -17z m-5126 -6 c0 -9
-12 -14 -30 -14 -32 0 -29 12 5 20 11 3 21 5 23 6 1 0 2 -5 2 -12z m123 3 c9
0 17 -4 17 -9 0 -5 -8 -8 -17 -6 -10 2 -35 4 -55 4 -21 1 -38 6 -38 12 0 8 13
10 38 5 20 -3 45 -6 55 -6z m-203 -10 c0 -5 -4 -10 -10 -10 -5 0 -10 5 -10 10
0 6 5 10 10 10 6 0 10 -4 10 -10z m3495 -9 c-3 -10 -6 -40 -7 -65 -1 -48 -18
-66 -18 -18 0 31 18 102 26 102 3 0 3 -9 -1 -19z m289 -23 c3 -18 1 -46 -4
-63 -10 -29 -10 -29 -6 7 3 21 1 51 -4 68 -5 17 -5 28 0 25 4 -2 10 -19 14
-37z m1011 -30 c55 -17 136 -42 180 -56 98 -32 98 -32 107 -7 5 18 6 18 7 -4
1 -13 15 -40 32 -60 73 -86 127 -165 121 -180 -4 -10 -7 -11 -10 -3 -5 16 -64
42 -187 82 -55 18 -122 41 -150 52 -27 11 -59 24 -70 28 -11 4 -49 19 -85 33
-36 14 -89 34 -117 44 -49 16 -53 20 -53 49 0 17 -3 45 -6 62 l-6 30 68 -20
c38 -11 114 -33 169 -50z m2245 62 c0 -5 -7 -7 -15 -4 -8 4 -15 8 -15 10 0 2
7 4 15 4 8 0 15 -4 15 -10z m-7133 -6 c-3 -3 -12 -4 -19 -1 -8 3 -5 6 6 6 11
1 17 -2 13 -5z m53 -4 c0 -5 -2 -10 -4 -10 -3 0 -8 5 -11 10 -3 6 -1 10 4 10
6 0 11 -4 11 -10z m323 3 c-7 -2 -21 -2 -30 0 -10 3 -4 5 12 5 17 0 24 -2 18
-5z m5083 -7 c3 -8 2 -22 -3 -30 -8 -14 -11 -14 -31 0 -12 8 -22 22 -22 30 0
19 49 19 56 0z m-2619 -93 c-2 -21 -4 -6 -4 32 0 39 2 55 4 38 2 -18 2 -50 0
-70z m950 75 c-3 -8 -6 -5 -6 6 -1 11 2 17 5 13 3 -3 4 -12 1 -19z m2527 7
c-4 -8 -11 -12 -16 -9 -6 4 -5 10 3 15 19 12 19 11 13 -6z m816 -6 c9 -17 8
-23 -6 -34 -16 -11 -21 -10 -36 8 -23 25 -23 34 0 40 30 8 31 8 42 -14z m-154
-13 c16 -16 18 -44 5 -65 -11 -16 -16 -7 -25 42 -7 40 -3 45 20 23z m-6058
-38 c6 -24 13 -54 16 -68 2 -14 7 -36 11 -50 4 -16 -2 -10 -16 15 -11 22 -21
45 -22 52 -1 20 -17 3 -17 -18 0 -11 -4 -17 -10 -14 -5 3 -7 0 -5 -7 6 -14
-40 -65 -53 -60 -4 1 -7 -4 -7 -10 -1 -7 -6 -12 -12 -11 -12 2 -11 -35 1 -77
5 -18 1 -15 -13 10 -17 30 -20 54 -21 158 l0 122 69 0 68 0 11 -42z m5294 15
c-5 -10 -11 -25 -14 -33 -3 -8 -7 -10 -11 -4 -3 6 1 20 9 32 18 26 28 29 16 5z
m-2745 -30 c-3 -10 -5 -4 -5 12 0 17 2 24 5 18 2 -7 2 -21 0 -30z m-3857 14
c0 -8 9 -22 21 -33 12 -10 27 -31 35 -46 8 -15 32 -37 54 -48 45 -23 73 -60
64 -84 -3 -9 -9 -16 -13 -16 -3 0 -46 38 -94 83 -71 68 -89 91 -94 120 -4 30
-3 37 11 37 9 0 16 -6 16 -13z m6027 7 c-3 -3 -12 -4 -19 -1 -8 3 -5 6 6 6 11
1 17 -2 13 -5z m70 0 c-3 -3 -12 -4 -19 -1 -8 3 -5 6 6 6 11 1 17 -2 13 -5z
m623 -16 c0 -16 -3 -19 -11 -11 -6 6 -8 16 -5 22 11 17 16 13 16 -11z m120 7
c0 -10 -10 -15 -32 -15 -34 0 -29 14 7 23 11 3 21 5 23 6 1 0 2 -6 2 -14z
m-5860 -31 c0 -2 -13 2 -30 11 -16 9 -30 18 -30 21 0 2 14 -2 30 -11 17 -9 30
-18 30 -21z m2337 -1 c-3 -10 -5 -4 -5 12 0 17 2 24 5 18 2 -7 2 -21 0 -30z
m3623 27 c0 -5 -4 -10 -10 -10 -5 0 -10 5 -10 10 0 6 5 10 10 10 6 0 10 -4 10
-10z m-530 -20 c0 -5 -2 -10 -4 -10 -3 0 -8 5 -11 10 -3 6 -1 10 4 10 6 0 11
-4 11 -10z m-2406 -6 c12 -5 16 -21 16 -75 0 -106 -27 -88 -37 24 -5 60 -4 61
21 51z m-2934 -58 c22 -27 -5 -17 -31 10 -21 24 -22 26 -3 16 11 -6 26 -18 34
-26z m5456 -43 c3 -19 2 -18 -41 35 l-39 47 39 -34 c22 -19 40 -40 41 -48z
m894 13 c-8 -8 -13 -7 -20 4 -15 24 -12 48 8 52 20 4 30 -38 12 -56z m-3143 2
c-2 -13 -4 -5 -4 17 -1 22 1 32 4 23 2 -10 2 -28 0 -40z m-1050 10 c-3 -7 -5
-2 -5 12 0 14 2 19 5 13 2 -7 2 -19 0 -25z m3492 -22 c-9 -8 -10 -7 -5 7 3 10
7 24 7 30 1 7 3 4 6 -7 3 -10 -1 -23 -8 -30z m-135 19 c-4 -8 -11 -12 -16 -9
-6 4 -5 10 3 15 19 12 19 11 13 -6z m791 -30 c7 -29 6 -40 -3 -43 -17 -5 -15
-41 3 -48 12 -5 15 -24 14 -93 -1 -61 -4 -77 -9 -56 -4 17 -8 24 -9 17 0 -7
-5 -11 -10 -7 -6 3 -28 1 -50 -4 -50 -11 -50 -11 -16 107 14 48 30 106 36 130
12 52 30 51 44 -3z m-6402 20 c-3 -9 -8 -14 -10 -11 -3 3 -2 9 2 15 9 16 15
13 8 -4z m51 -6 c-3 -5 1 -12 9 -15 12 -4 13 -13 6 -39 -6 -19 -9 -47 -7 -61
2 -15 -3 -29 -9 -31 -9 -3 -13 10 -13 47 0 30 4 49 10 45 5 -3 3 12 -5 34 -12
35 -12 39 1 34 7 -3 11 -9 8 -14z m5495 -77 c-1 -25 -2 -24 -11 8 -9 34 -10
34 -25 15 -15 -19 -15 -19 -9 5 3 14 6 34 6 45 0 16 4 13 20 -13 11 -18 20
-45 19 -60z m-5172 36 c-3 -8 -6 -5 -6 6 -1 11 2 17 5 13 3 -3 4 -12 1 -19z
m2643 -17 c0 -9 7 -26 15 -37 8 -10 15 -32 15 -49 0 -29 0 -29 -19 -10 -20 22
-40 132 -21 120 5 -3 10 -14 10 -24z m2682 -41 c-3 -32 -10 -37 -28 -19 -18
19 -8 51 15 47 10 -3 15 -12 13 -28z m1123 20 c3 -5 1 -10 -4 -10 -6 0 -11 5
-11 10 0 6 2 10 4 10 3 0 8 -4 11 -10z m-3008 -22 c-3 -8 -6 -5 -6 6 -1 11 2
17 5 13 3 -3 4 -12 1 -19z m1956 -31 c4 -31 3 -46 -3 -42 -6 3 -10 27 -10 52
0 57 5 53 13 -10z m2350 38 c-3 -9 -8 -14 -10 -11 -3 3 -2 9 2 15 9 16 15 13
8 -4z m-7736 -42 c-3 -10 -5 -2 -5 17 0 19 2 27 5 18 2 -10 2 -26 0 -35z m448
18 c-3 -12 -11 -19 -16 -16 -5 4 -5 14 2 26 13 26 23 18 14 -10z m4721 -28
c-11 -11 -19 6 -11 24 8 17 8 17 12 0 3 -10 2 -21 -1 -24z m-6343 -14 c-8 -29
-13 -23 -13 14 0 22 3 28 9 18 5 -7 6 -22 4 -32z m947 -49 c0 -53 -4 -90 -10
-90 -11 0 -14 162 -3 173 12 13 13 7 13 -83z m5529 -17 c0 -80 4 -126 12 -133
7 -6 20 -110 14 -110 -24 0 -50 137 -48 248 0 23 -3 42 -8 42 -5 0 -9 5 -9 10
0 6 9 10 20 10 18 0 20 -7 19 -67z m-5482 25 c-3 -7 -5 -2 -5 12 0 14 2 19 5
13 2 -7 2 -19 0 -25z m2842 -175 c0 -104 -3 -203 -7 -221 l-7 -34 -20 23 c-15
16 -17 23 -7 27 10 3 7 8 -8 19 -15 11 -18 18 -11 27 6 7 14 92 17 189 7 164
8 175 25 167 15 -9 17 -29 18 -197z m-2989 182 c16 -19 7 -107 -17 -167 l-17
-42 -12 29 c-25 64 -26 75 -8 75 14 0 16 7 10 50 -4 28 -4 55 -1 60 9 15 31
12 45 -5z m4687 -52 c-2 -16 -4 -5 -4 22 0 28 2 40 4 28 2 -13 2 -35 0 -50z
m1840 0 c-2 -16 -4 -5 -4 22 0 28 2 40 4 28 2 -13 2 -35 0 -50z m373 63 c0 -3
-4 -8 -10 -11 -5 -3 -10 -1 -10 4 0 6 5 11 10 11 6 0 10 -2 10 -4z m115 -10
c22 -2 48 -5 58 -5 9 -1 17 -8 17 -17 0 -8 5 -12 10 -9 6 3 13 0 16 -8 3 -9
14 -12 30 -9 13 2 24 0 24 -6 0 -6 8 -9 19 -7 11 2 23 -5 31 -20 8 -16 18 -21
34 -18 18 4 18 3 -4 -9 -15 -9 -28 -10 -31 -5 -4 5 -12 6 -19 2 -19 -12 -80
-13 -80 -2 0 5 -6 4 -14 -2 -7 -6 -23 -10 -34 -8 -24 3 -42 17 -24 17 18 0 15
18 -8 50 -11 15 -17 30 -13 34 3 3 1 6 -5 6 -7 0 -12 -4 -12 -9 0 -5 -17 -4
-40 1 -22 6 -40 14 -40 18 0 10 22 18 35 13 6 -2 28 -5 50 -7z m-3925 -53 c0
-21 -16 -15 -34 12 -24 37 -19 51 9 25 14 -13 25 -29 25 -37z m50 17 c0 -29
-4 -40 -15 -40 -17 0 -20 32 -5 61 16 28 20 24 20 -21z m2307 8 c-3 -7 -5 -2
-5 12 0 14 2 19 5 13 2 -7 2 -19 0 -25z m1040 0 c-3 -8 -6 -5 -6 6 -1 11 2 17
5 13 3 -3 4 -12 1 -19z m-6160 -30 c-3 -7 -5 -2 -5 12 0 14 2 19 5 13 2 -7 2
-19 0 -25z m5376 12 c3 -11 1 -23 -4 -26 -5 -3 -9 6 -9 20 0 31 6 34 13 6z
m-5676 -32 c-3 -8 -6 -5 -6 6 -1 11 2 17 5 13 3 -3 4 -12 1 -19z m3041 -1 c18
-20 20 -28 12 -56 -7 -27 -6 -40 7 -62 20 -33 33 -21 28 23 -4 30 9 38 19 12
3 -9 6 -50 5 -92 l-1 -77 -12 50 -11 50 -23 -23 c-26 -26 -27 -38 -7 -85 10
-25 20 -35 30 -31 26 10 16 -16 -17 -47 -55 -50 -58 -45 -58 112 0 91 4 138
10 134 6 -4 10 7 10 24 0 17 -4 31 -9 31 -5 0 -11 14 -13 30 -5 36 1 38 30 7z
m1782 12 c0 8 2 12 5 9 3 -3 2 -19 -1 -37 -8 -37 -24 -24 -24 19 0 20 2 22 10
10 8 -12 10 -12 10 -1z m2425 -9 c4 -6 11 -7 17 -4 7 5 8 2 3 -6 -6 -10 -4
-12 10 -6 15 6 16 4 4 -10 -12 -14 -14 -14 -24 0 -7 9 -22 17 -33 19 -31 5
-35 12 -7 15 13 1 27 -3 30 -8z m-2588 -42 c-3 -7 -5 -2 -5 12 0 14 2 19 5 13
2 -7 2 -19 0 -25z m-1547 7 c0 -8 -4 -15 -10 -15 -5 0 -10 7 -10 15 0 8 5 15
10 15 6 0 10 -7 10 -15z m2286 -15 c7 0 4 -38 -7 -89 -10 -47 -12 -50 -40 -48
l-29 2 0 83 0 82 36 -15 c20 -8 38 -15 40 -15z m-5392 14 c10 -4 16 -18 16
-36 0 -27 2 -29 16 -17 10 8 12 15 5 17 -21 7 -11 22 14 22 22 0 27 -5 24 -26
0 -3 8 -12 17 -19 17 -12 16 -14 -11 -39 -35 -33 -39 -32 -52 2 -9 22 -11 10
-12 -73 l-2 -100 -38 74 -38 75 21 63 c11 35 21 63 22 63 1 0 9 -3 18 -6z
m-96 -59 c19 -50 20 -58 7 -87 -38 -85 -40 -83 -40 33 0 60 3 109 6 109 3 0
16 -25 27 -55z m4902 -11 c0 -27 -4 -43 -10 -39 -5 3 -10 24 -10 46 0 21 5 39
10 39 6 0 10 -21 10 -46z m917 24 c-3 -8 -6 -5 -6 6 -1 11 2 17 5 13 3 -3 4
-12 1 -19z m-1017 -8 c0 -5 -4 -10 -10 -10 -5 0 -10 5 -10 10 0 6 5 10 10 10
6 0 10 -4 10 -10z m-4435 -309 c-13 -14 -15 -13 -15 3 0 9 -6 24 -14 32 -8 7
-24 43 -36 79 -12 36 -28 71 -35 79 -11 10 -3 20 43 57 32 24 59 48 62 54 3 5
6 -57 8 -139 2 -124 0 -152 -13 -165z m3022 287 c-3 -8 -6 -5 -6 6 -1 11 2 17
5 13 3 -3 4 -12 1 -19z m2920 -15 c-3 -10 -5 -4 -5 12 0 17 2 24 5 18 2 -7 2
-21 0 -30z m253 21 c0 -8 -5 -12 -10 -9 -6 4 -8 11 -5 16 9 14 15 11 15 -7z
m-1760 -14 c0 -5 -5 -10 -11 -10 -5 0 -7 5 -4 10 3 6 8 10 11 10 2 0 4 -4 4
-10z m2180 -17 c0 -14 -2 -15 -9 -5 -6 10 -10 10 -20 -2 -11 -13 -17 -13 -35
-4 -20 12 -20 12 9 19 49 11 55 10 55 -8z m-6788 -63 c-2 -3 -7 0 -9 7 -2 7
-12 9 -21 6 -13 -4 -12 -2 3 10 18 14 21 14 26 -1 4 -9 4 -19 1 -22z m5508
-28 l20 -52 -30 0 -30 0 0 62 c0 72 10 69 40 -10z m67 46 c-3 -8 -6 -5 -6 6
-1 11 2 17 5 13 3 -3 4 -12 1 -19z m-5698 -65 c50 -101 58 -128 38 -120 -23 9
-25 2 -15 -59 6 -41 15 -62 32 -75 22 -17 33 -48 39 -105 1 -11 7 -27 13 -35
13 -15 7 -79 -7 -79 -5 0 -12 12 -15 26 -4 17 -9 22 -14 14 -12 -19 -55 24
-46 45 3 10 11 13 18 8 7 -4 21 -9 31 -10 19 -3 18 1 -15 50 -11 15 -16 27
-12 27 4 0 -1 6 -11 14 -11 8 -23 12 -27 10 -4 -3 -12 5 -18 16 -9 16 -21 20
-66 20 -30 0 -71 -7 -91 -15 -41 -17 -40 -31 1 -16 58 23 70 -19 20 -66 -25
-23 -32 -53 -13 -53 6 0 3 -7 -5 -16 -9 -8 -16 -25 -16 -37 0 -16 -3 -18 -9
-8 -5 7 -6 22 -4 32 3 11 0 19 -7 19 -10 0 -9 5 2 18 12 12 14 28 9 57 -5 29
-9 35 -13 23 -10 -24 -30 -23 -46 3 -9 14 -10 25 -3 32 5 7 14 39 20 72 l10
60 -3 -62 c-4 -62 -4 -62 20 -51 13 6 26 23 29 40 8 33 27 33 35 0 4 -16 9
-19 20 -12 12 7 11 12 -5 30 -11 12 -41 33 -67 46 -36 18 -45 28 -41 43 8 31
28 31 48 1 17 -26 118 -100 135 -100 4 0 6 20 6 45 -1 44 -2 45 -33 45 -31 0
-32 1 -26 38 6 36 51 162 59 162 2 0 21 -35 43 -77z m798 40 c-3 -10 -5 -4 -5
12 0 17 2 24 5 18 2 -7 2 -21 0 -30z m4961 13 c20 -11 34 -31 50 -78 12 -34
22 -76 22 -91 0 -25 -2 -27 -15 -14 -8 8 -37 23 -64 33 -45 16 -52 22 -57 52
-6 29 19 112 33 112 2 0 16 -6 31 -14z m-5543 -94 c23 -72 14 -122 -31 -162
-19 -16 -40 -30 -47 -29 -7 0 -2 5 11 11 27 14 28 29 2 53 -30 27 -29 141 1
179 27 34 39 24 64 -52z m5131 24 c-3 -18 -13 -41 -21 -52 -11 -15 -11 -7 2
46 16 64 31 69 19 6z m29 -26 c-8 -30 -13 -43 -11 -27 2 15 -1 27 -6 27 -5 0
-4 8 1 19 6 10 7 21 4 25 -3 3 -1 6 5 6 7 0 13 8 13 18 1 12 2 13 5 2 2 -8 -3
-40 -11 -70z m2293 49 c12 0 22 -4 22 -10 0 -5 4 -8 9 -4 5 3 12 1 15 -3 3 -5
17 -8 31 -7 17 2 25 -2 25 -13 0 -13 3 -12 16 4 14 18 15 18 4 -4 -9 -18 -14
-20 -31 -12 -15 8 -19 8 -17 -2 2 -9 -13 -13 -54 -14 -31 -1 -62 -5 -70 -9 -7
-5 -10 -5 -6 0 4 4 -7 21 -25 38 -27 25 -29 29 -9 23 16 -5 24 -3 28 9 4 10
12 14 23 9 9 -4 26 -6 39 -5z m-4771 -21 c-3 -8 -6 -5 -6 6 -1 11 2 17 5 13 3
-3 4 -12 1 -19z m-2110 -25 c-3 -10 -5 -4 -5 12 0 17 2 24 5 18 2 -7 2 -21 0
-30z m-987 -2 c0 -29 -15 -33 -18 -5 -1 13 3 24 8 24 6 0 10 -9 10 -19z m297
-113 c-2 -18 -4 -4 -4 32 0 36 2 50 4 33 2 -18 2 -48 0 -65z m680 45 c-3 -10
-5 -4 -5 12 0 17 2 24 5 18 2 -7 2 -21 0 -30z m4654 -75 c-18 -93 -29 -123
-56 -148 -30 -28 -29 -29 -9 74 12 56 25 90 43 112 14 17 28 29 30 28 2 -2 -2
-32 -8 -66z m87 33 c-13 -15 -25 -27 -27 -25 -7 6 29 54 40 54 6 0 0 -13 -13
-29z m-6131 -13 c-3 -7 -5 -2 -5 12 0 14 2 19 5 13 2 -7 2 -19 0 -25z m6270 0
c-3 -7 -5 -2 -5 12 0 14 2 19 5 13 2 -7 2 -19 0 -25z m-5560 -60 c-3 -7 -5 -2
-5 12 0 14 2 19 5 13 2 -7 2 -19 0 -25z m2773 18 c0 -2 -7 -19 -16 -37 -11
-25 -14 -27 -10 -9 3 14 6 31 6 38 0 6 5 12 10 12 6 0 10 -2 10 -4z m2799 -53
c-1 -62 -6 -56 -11 15 -2 23 0 42 4 42 5 0 7 -26 7 -57z m-4912 15 c-3 -7 -5
-2 -5 12 0 14 2 19 5 13 2 -7 2 -19 0 -25z m2290 -20 c-3 -7 -5 -2 -5 12 0 14
2 19 5 13 2 -7 2 -19 0 -25z m-2789 7 c14 -14 -10 -14 -39 0 l-34 15 34 -5
c19 -3 37 -7 39 -10z m-308 -14 c0 -6 -4 -13 -10 -16 -5 -3 -10 1 -10 9 0 9 5
16 10 16 6 0 10 -4 10 -9z m350 -6 c14 -16 10 -18 -14 -9 -9 3 -16 10 -16 15
0 14 16 11 30 -6z m2890 -30 c0 -5 -5 -3 -10 5 -5 8 -10 20 -10 25 0 6 5 3 10
-5 5 -8 10 -19 10 -25z m2537 3 c-3 -8 -6 -5 -6 6 -1 11 2 17 5 13 3 -3 4 -12
1 -19z m-5527 -8 c11 -11 22 -31 26 -45 3 -14 10 -22 15 -19 10 6 13 -29 3
-39 -3 -3 -19 18 -34 46 -18 34 -35 53 -49 55 -12 2 -19 8 -16 13 10 15 34 10
55 -11z m-200 -11 c0 -5 -4 -9 -10 -9 -5 0 -10 7 -10 16 0 8 5 12 10 9 6 -3
10 -10 10 -16z m320 7 c0 -2 -11 -6 -25 -8 -13 -3 -22 -1 -19 3 5 9 44 13 44
5z m5347 -38 c-3 -7 -5 -2 -5 12 0 14 2 19 5 13 2 -7 2 -19 0 -25z m70 -5 c-3
-10 -5 -4 -5 12 0 17 2 24 5 18 2 -7 2 -21 0 -30z m-5434 -10 c5 -26 4 -26 -9
-9 -7 10 -11 23 -8 27 8 14 11 11 17 -18z m-539 -10 c-10 -40 -14 -41 -14 -5
0 18 5 32 10 32 6 0 8 -11 4 -27z m973 -5 c-3 -7 -5 -2 -5 12 0 14 2 19 5 13
2 -7 2 -19 0 -25z m2460 10 c-3 -8 -6 -5 -6 6 -1 11 2 17 5 13 3 -3 4 -12 1
-19z m513 -30 c0 -5 -11 -8 -25 -8 -19 0 -25 -5 -24 -22 0 -13 3 -17 6 -10 6
16 23 15 23 -2 0 -7 7 -19 15 -26 9 -7 15 -23 13 -34 -2 -12 5 -30 15 -40 10
-12 15 -28 11 -39 -4 -11 1 -23 11 -31 10 -7 17 -23 16 -37 0 -13 -2 -43 -3
-67 -2 -23 1 -43 6 -45 13 -4 20 -143 7 -151 -6 -4 -11 -15 -11 -25 0 -31 -80
-100 -134 -116 -86 -26 -172 -13 -200 29 l-15 24 62 -4 62 -4 -59 14 c-42 10
-67 23 -87 45 -16 17 -24 26 -17 21 22 -18 32 -10 13 10 -10 11 -16 20 -13 20
2 0 15 -12 29 -27 13 -14 18 -23 12 -19 -7 4 -13 3 -13 -1 0 -5 46 -7 103 -5
77 3 111 8 137 23 19 11 56 29 82 42 46 21 64 47 33 47 -8 0 -48 -13 -89 -30
-66 -26 -83 -29 -143 -23 -51 4 -80 13 -115 35 -42 26 -46 32 -33 45 8 8 15
21 15 30 0 11 3 13 13 5 9 -8 11 0 9 39 -2 29 0 49 6 49 6 0 8 -17 6 -40 -3
-24 -1 -40 6 -40 5 0 10 11 10 24 0 17 8 28 28 35 l27 11 -27 -4 c-28 -3 -39
16 -18 29 6 3 10 13 10 22 0 13 -3 13 -15 3 -12 -10 -15 -9 -15 5 0 9 9 19 20
22 11 3 20 12 20 20 0 10 -6 12 -20 8 -16 -5 -20 -2 -20 19 0 18 9 30 33 43
l32 18 -43 3 -43 3 3 47 c3 43 5 47 30 50 19 2 25 8 21 18 -4 11 11 14 85 14
50 0 94 -4 97 -10 3 -5 13 -10 22 -10 11 0 14 7 9 28 l-6 27 15 -25 c8 -14 14
-28 15 -32z m1970 -17 c0 -27 2 -64 5 -82 l5 -34 -10 30 c-13 40 -19 135 -9
135 5 0 9 -22 9 -49z m-225 -41 c-4 -39 -9 -69 -12 -67 -2 3 -1 37 3 76 3 40
9 70 11 67 3 -3 2 -37 -2 -76z m-5478 38 c-3 -7 -5 -2 -5 12 0 14 2 19 5 13 2
-7 2 -19 0 -25z m5792 -123 c11 -83 22 -188 25 -235 l5 -85 -10 75 c-5 41 -18
145 -29 230 -21 166 -22 176 -16 169 3 -2 14 -72 25 -154z m-2535 -465 c26
-437 27 -464 16 -480 -7 -12 -13 -12 -27 -4 -15 9 -19 31 -25 125 -12 213 -20
295 -76 852 -8 77 -8 78 14 73 14 -4 28 1 40 15 19 21 19 19 31 -147 6 -93 18
-288 27 -434z m-384 580 c0 -6 12 -8 28 -5 15 3 21 2 15 -1 -17 -8 -16 -31 0
-37 8 -3 13 -16 11 -34 -5 -37 -28 -222 -65 -517 -16 -131 -33 -283 -38 -338
-8 -103 -18 -125 -47 -114 -15 6 -16 18 -10 109 4 56 9 122 12 147 58 577 75
759 75 778 0 12 4 22 9 22 6 0 10 -5 10 -10z m-2794 -38 c-9 -8 -26 10 -26 26
1 15 2 15 15 -2 8 -11 13 -21 11 -24z m321 -19 c-3 -10 -5 -2 -5 17 0 19 2 27
5 18 2 -10 2 -26 0 -35z m-405 -18 c-12 -66 27 -250 59 -275 6 -5 25 -382 26
-520 1 -107 12 -253 21 -290 8 -30 10 -32 17 -16 5 11 0 73 -10 145 -10 69
-20 144 -21 166 -3 37 -2 38 6 10 6 -22 8 -13 4 35 -22 327 -25 634 -6 615 3
-3 9 -38 13 -77 4 -40 14 -143 23 -228 37 -373 40 -418 29 -482 -12 -63 -11
-91 3 -200 5 -43 4 -58 -6 -58 -9 0 -10 -16 -6 -62 4 -42 3 -56 -3 -43 -5 11
-10 35 -10 53 -1 17 -5 32 -9 32 -4 0 -7 17 -6 38 2 20 0 27 -2 15 -4 -18 -12
-23 -35 -23 -16 0 -29 -4 -29 -10 0 -5 -16 -9 -35 -7 -33 2 -35 4 -35 36 0 28
3 33 20 28 29 -7 33 19 28 188 -2 80 0 137 5 128 5 -13 6 -10 2 7 -3 14 -7 52
-10 85 l-5 60 14 -40 c18 -52 19 -36 1 45 -8 36 -14 85 -14 110 l1 45 13 -50
c15 -58 19 -30 5 31 -5 23 -19 113 -30 200 -11 88 -24 190 -30 227 -10 67 -5
121 10 112 4 -2 5 -16 2 -30z m3810 26 c4 0 3 -13 -3 -28 -5 -14 -8 -32 -5
-40 3 -7 0 -13 -5 -13 -7 0 -9 11 -7 25 4 20 3 23 -8 14 -8 -6 -14 -8 -14 -3
0 5 -3 19 -6 30 -5 21 3 23 48 15z m-735 -68 c-3 -10 -5 -4 -5 12 0 17 2 24 5
18 2 -7 2 -21 0 -30z m2299 -85 c-11 -57 -21 -105 -22 -107 -2 -2 -11 2 -19 9
-24 20 -10 114 22 163 14 20 29 37 32 37 4 0 -2 -46 -13 -102z m89 17 c-4 -37
-9 -65 -11 -62 -3 2 -2 34 2 71 4 37 9 64 12 62 2 -3 1 -35 -3 -71z m-5327
-55 c-1 -29 -2 -26 -8 15 -11 69 -10 126 1 65 4 -25 7 -61 7 -80z m19 83 c-3
-10 -5 -4 -5 12 0 17 2 24 5 18 2 -7 2 -21 0 -30z m5550 5 c-3 -8 -6 -5 -6 6
-1 11 2 17 5 13 3 -3 4 -12 1 -19z m-5740 -40 c-3 -8 -6 -5 -6 6 -1 11 2 17 5
13 3 -3 4 -12 1 -19z m-90 -30 c-3 -8 -6 -5 -6 6 -1 11 2 17 5 13 3 -3 4 -12
1 -19z m5843 -55 c0 -29 -4 -53 -10 -53 -5 0 -9 29 -8 66 1 77 18 65 18 -13z
m-5753 25 c-3 -7 -5 -2 -5 12 0 14 2 19 5 13 2 -7 2 -19 0 -25z m-102 -87 c-4
-51 -10 -90 -12 -87 -3 3 -2 46 2 96 4 50 9 89 12 86 3 -2 1 -45 -2 -95z m195
62 c0 -43 -5 -41 -13 5 -4 18 -2 32 3 32 6 0 10 -16 10 -37z m-23 -15 c-3 -8
-6 -5 -6 6 -1 11 2 17 5 13 3 -3 4 -12 1 -19z m264 -42 c5 -22 15 -59 21 -81
5 -22 28 -86 49 -143 31 -81 39 -116 39 -168 0 -65 -12 -78 -25 -27 -3 16 -31
90 -61 166 -42 108 -53 146 -48 171 4 24 1 38 -12 51 -22 22 -30 65 -13 76 22
13 39 -2 50 -45z m-334 7 c-3 -10 -5 -4 -5 12 0 17 2 24 5 18 2 -7 2 -21 0
-30z m186 -48 c4 -60 3 -69 -3 -35 -9 46 -13 127 -6 119 2 -2 6 -40 9 -84z
m5104 63 c-3 -8 -6 -5 -6 6 -1 11 2 17 5 13 3 -3 4 -12 1 -19z m187 -117 c-4
-73 -10 -128 -15 -124 -7 8 11 266 18 259 2 -2 1 -63 -3 -135z m-94 100 c0 -5
-16 -87 -35 -182 -19 -96 -35 -177 -35 -181 0 -5 -7 -8 -15 -8 -20 0 -19 21 6
160 28 158 39 224 39 233 0 4 9 3 20 -3 11 -6 20 -15 20 -19z m-156 10 c3 -5
9 -40 12 -78 5 -54 3 -76 -10 -101 -16 -30 -43 -39 -62 -19 -4 4 -21 7 -37 7
l-30 0 5 73 c3 39 11 84 17 100 9 24 16 27 55 27 25 0 47 -4 50 -9z m-186
-197 c6 -21 10 -46 10 -54 0 -8 3 -36 7 -61 l7 -46 -35 -6 c-20 -3 -53 -17
-74 -32 l-38 -25 -3 23 c-2 13 2 35 7 50 9 23 16 26 63 29 36 2 52 7 50 16 -1
6 -3 28 -5 48 -2 30 -5 35 -22 31 -16 -3 -21 2 -23 20 -1 18 3 23 16 21 15 -3
17 7 15 92 l-2 95 9 -81 c5 -45 13 -99 18 -120z m-6680 133 c5 -24 -15 -21
-28 4 -10 18 -9 20 7 17 10 -2 19 -11 21 -21z m1639 -39 c-3 -7 -5 -2 -5 12 0
14 2 19 5 13 2 -7 2 -19 0 -25z m666 25 c-7 -2 -19 -2 -25 0 -7 3 -2 5 12 5
14 0 19 -2 13 -5z m4317 -3 c0 -5 -2 -10 -4 -10 -3 0 -8 5 -11 10 -3 6 -1 10
4 10 6 0 11 -4 11 -10z m-1573 -22 c-3 -8 -6 -5 -6 6 -1 11 2 17 5 13 3 -3 4
-12 1 -19z m-3124 -45 c3 -21 17 -114 31 -208 29 -188 30 -203 17 -189 -4 5
-16 65 -26 134 -9 69 -23 163 -31 209 -17 99 -16 91 -5 91 4 0 11 -17 14 -37z
m-403 -20 c-4 -42 -5 -44 -8 -15 -3 30 2 62 10 62 2 0 1 -21 -2 -47z m710 37
c0 -5 -2 -10 -4 -10 -3 0 -8 5 -11 10 -3 6 -1 10 4 10 6 0 11 -4 11 -10z
m5287 -165 c0 -47 0 -46 -7 15 -4 36 -8 88 -7 115 0 47 0 46 7 -15 4 -36 8
-87 7 -115z m-5973 63 c-7 -112 -32 -264 -33 -211 -1 17 3 65 8 105 6 40 13
103 16 141 10 106 17 78 9 -35z m353 50 c-3 -8 -6 -5 -6 6 -1 11 2 17 5 13 3
-3 4 -12 1 -19z m403 18 c0 -3 -4 -8 -10 -11 -5 -3 -10 -1 -10 4 0 6 5 11 10
11 6 0 10 -2 10 -4z m36 -17 c8 -14 -18 -31 -30 -19 -9 9 0 30 14 30 5 0 12
-5 16 -11z m5051 -66 c-2 -16 -4 -5 -4 22 0 28 2 40 4 28 2 -13 2 -35 0 -50z
m-120 35 c-3 -8 -6 -5 -6 6 -1 11 2 17 5 13 3 -3 4 -12 1 -19z m-4897 2 c0 -5
-2 -10 -4 -10 -3 0 -8 5 -11 10 -3 6 -1 10 4 10 6 0 11 -4 11 -10z m4519 -76
c5 -98 5 -113 -4 -173 l-8 -55 -29 34 c-19 24 -28 45 -28 71 0 24 -5 39 -15
43 -21 7 -19 16 12 71 24 43 27 46 39 30 11 -15 12 -13 7 20 -5 30 -3 37 8 33
10 -3 15 -26 18 -74z m-114 -58 c6 -14 5 -18 -6 -14 -16 5 -27 39 -28 89 -2
58 13 56 20 -3 3 -29 9 -61 14 -72z m51 97 c-3 -8 -6 -17 -6 -19 0 -3 -4 -2
-10 1 -17 11 -12 45 6 38 8 -3 13 -12 10 -20z m-5319 -60 c-2 -16 -4 -3 -4 27
0 30 2 43 4 28 2 -16 2 -40 0 -55z m5283 37 c0 -16 -4 -30 -10 -30 -5 0 -10
14 -10 30 0 17 5 30 10 30 6 0 10 -13 10 -30z m305 -107 c-4 -52 -9 -92 -11
-90 -3 2 -1 53 3 113 4 60 9 100 11 90 2 -11 1 -62 -3 -113z m-5248 70 c-3
-10 -5 -2 -5 17 0 19 2 27 5 18 2 -10 2 -26 0 -35z m563 12 c0 -5 -5 -3 -10 5
-5 8 -10 20 -10 25 0 6 5 3 10 -5 5 -8 10 -19 10 -25z m-20 -26 c0 -6 -4 -7
-10 -4 -5 3 -10 11 -10 16 0 6 5 7 10 4 6 -3 10 -11 10 -16z m4977 -197 c2
-140 0 -202 -7 -192 -11 17 -14 418 -3 407 4 -4 8 -101 10 -215z m-2410 186
c-3 -8 -6 -5 -6 6 -1 11 2 17 5 13 3 -3 4 -12 1 -19z m-2660 -12 c3 -3 17 -6
30 -6 13 0 23 -5 23 -11 0 -8 -11 -9 -32 -5 -18 4 -48 10 -65 13 -18 3 -33 9
-33 14 0 9 67 5 77 -5z m2425 -153 c-4 -216 -9 -233 -10 -37 -2 141 1 184 12
184 1 0 0 -66 -2 -147z m-2865 105 c-3 -7 -5 -2 -5 12 0 14 2 19 5 13 2 -7 2
-19 0 -25z m606 -19 c4 -13 1 -19 -6 -16 -7 3 -11 10 -9 17 1 7 -3 20 -10 29
-11 14 -11 14 3 3 9 -7 19 -22 22 -33z m5076 -179 c0 -58 -3 -110 -7 -116 -4
-7 -7 68 -8 165 0 116 2 156 7 116 4 -33 7 -107 8 -165z m-6044 160 c-4 -23
-9 -39 -11 -37 -3 2 -2 23 2 46 4 23 9 40 11 37 3 -3 2 -23 -2 -46z m926 33
c13 -15 12 -15 -11 -3 -34 17 -36 20 -18 20 9 0 22 -7 29 -17z m-98 0 c-7 -2
-19 -2 -25 0 -7 3 -2 5 12 5 14 0 19 -2 13 -5z m4617 -12 c0 -34 -12 -81 -21
-81 -5 0 -9 23 -9 50 0 38 4 50 15 50 8 0 15 -8 15 -19z m97 -13 c-3 -8 -6 -5
-6 6 -1 11 2 17 5 13 3 -3 4 -12 1 -19z m438 12 c3 -5 1 -10 -4 -10 -6 0 -11
5 -11 10 0 6 2 10 4 10 3 0 8 -4 11 -10z m-804 -28 c43 2 53 0 63 -17 6 -11
18 -25 26 -31 12 -10 12 -14 0 -29 -14 -17 -13 -17 18 -1 17 9 32 18 32 20 0
15 -14 35 -21 30 -5 -3 -9 0 -9 5 0 15 19 14 33 -1 65 -68 75 -123 28 -151
-27 -16 -29 -16 -47 4 -15 17 -19 18 -26 4 -18 -31 -81 -19 -145 29 -52 38
-62 50 -72 91 -7 26 -11 48 -9 50 25 19 45 22 60 8 12 -10 32 -14 69 -11z
m-4359 -22 c7 -11 34 -27 59 -35 26 -9 55 -25 64 -35 10 -11 26 -20 37 -20 22
0 21 0 5 -38 -12 -30 -13 -30 -43 -16 -38 19 -63 64 -36 65 24 1 -58 37 -87
38 -13 1 -21 -2 -17 -6 7 -8 11 -8 51 -11 14 -2 16 -5 8 -13 -15 -15 -58 -4
-81 21 -11 11 -33 22 -50 23 -36 2 -36 2 -22 28 15 28 95 27 112 -1z m-445
-22 c-3 -8 -6 -5 -6 6 -1 11 2 17 5 13 3 -3 4 -12 1 -19z m2698 0 c6 -4 0 -8
-12 -8 -16 0 -21 4 -16 15 3 9 8 12 12 8 3 -4 11 -11 16 -15z m470 3 c3 -5 1
-12 -5 -16 -5 -3 -10 1 -10 9 0 18 6 21 15 7z m1970 -10 c-3 -6 -14 -11 -23
-11 -13 0 -13 2 4 14 21 15 30 14 19 -3z m125 9 c0 -5 -7 -10 -15 -10 -8 0
-15 5 -15 10 0 6 7 10 15 10 8 0 15 -4 15 -10z m-5643 -37 c-3 -10 -5 -4 -5
12 0 17 2 24 5 18 2 -7 2 -21 0 -30z m5594 -64 l-9 -34 -1 31 c-1 17 2 47 6
65 l8 34 3 -31 c2 -18 -1 -47 -7 -65z m-5464 49 c-3 -8 -6 -5 -6 6 -1 11 2 17
5 13 3 -3 4 -12 1 -19z m3459 -3 c9 -23 -3 -45 -21 -39 -20 8 -20 54 0 54 9 0
18 -7 21 -15z m-3145 -65 c-9 -5 -10 -10 -2 -14 6 -4 11 -20 11 -37 0 -16 3
-28 8 -28 20 3 25 -2 12 -12 -11 -8 -12 -12 -2 -16 6 -2 10 -9 7 -13 -7 -11
17 -103 29 -111 5 -4 6 -27 2 -52 l-7 -45 -47 -4 c-62 -6 -75 9 -66 77 3 28 9
56 13 63 12 21 31 -9 35 -54 3 -29 9 -40 22 -42 14 -2 16 -1 5 6 -10 8 -11 14
-1 31 15 29 4 92 -26 153 -24 47 -33 125 -14 113 6 -3 10 4 11 17 l0 23 12
-23 c8 -18 8 -25 -2 -32z m5548 -87 c-1 -96 -4 -124 -9 -93 -7 42 -2 230 6
230 2 0 3 -62 3 -137z m-6002 80 c-3 -10 -5 -2 -5 17 0 19 2 27 5 18 2 -10 2
-26 0 -35z m400 25 c-3 -8 -6 -5 -6 6 -1 11 2 17 5 13 3 -3 4 -12 1 -19z
m-260 -155 c-2 -32 -3 -8 -3 52 0 61 1 87 3 58 2 -29 2 -78 0 -110z m3513 133
c0 -11 -19 -15 -25 -6 -3 5 1 10 9 10 9 0 16 -2 16 -4z m-54 -63 l-16 -28 6
30 c8 38 17 52 21 38 3 -7 -3 -24 -11 -40z m2001 -30 c-2 -16 -4 -5 -4 22 0
28 2 40 4 28 2 -13 2 -35 0 -50z m-4863 2 c5 -22 4 -26 -4 -15 -5 8 -10 24
-10 34 0 26 6 18 14 -19z m69 5 c4 -15 0 -20 -14 -20 -12 0 -19 7 -19 18 0 37
23 38 33 2z m63 0 c8 0 14 -4 14 -10 0 -5 -9 -10 -19 -10 -11 0 -21 -6 -24
-12 -2 -7 -8 -10 -12 -5 -5 4 -3 13 3 19 7 7 13 21 13 33 1 16 2 17 6 3 2 -10
11 -18 19 -18z m2074 26 c0 -2 -7 -6 -15 -10 -8 -3 -15 -1 -15 4 0 6 7 10 15
10 8 0 15 -2 15 -4z m-2953 -53 c-3 -10 -5 -2 -5 17 0 19 2 27 5 18 2 -10 2
-26 0 -35z m394 -26 l-8 -21 -5 21 c-3 12 -3 34 0 50 l5 28 8 -28 c4 -16 4
-38 0 -50z m5419 13 c0 -29 -2 -30 -45 -30 -26 0 -45 5 -45 11 0 7 15 10 40 7
36 -3 40 -1 40 19 0 13 2 23 5 23 3 0 5 -13 5 -30z m-5350 -13 c0 -5 -4 -5
-10 -2 -5 3 -10 14 -10 23 0 15 2 15 10 2 5 -8 10 -19 10 -23z m196 6 c4 -16
6 -32 5 -37 -1 -5 5 -6 14 -3 10 5 15 0 15 -13 0 -22 -16 -27 -23 -7 -5 15
-57 -30 -57 -50 0 -8 -4 -11 -10 -8 -19 11 -11 84 12 115 27 37 34 37 44 3z
m62 20 c-10 -2 -26 -2 -35 0 -10 3 -2 5 17 5 19 0 27 -2 18 -5z m-639 -228
c-3 -16 -2 -41 2 -55 4 -14 7 -47 7 -75 0 -49 0 -49 -9 -15 -5 19 -11 53 -14
75 -3 21 -10 42 -16 46 -8 4 -9 34 -4 93 4 47 11 83 16 80 5 -3 10 12 11 33 1
21 4 -5 7 -57 4 -52 4 -108 0 -125z m3318 183 c-3 -7 -5 -2 -5 12 0 14 2 19 5
13 2 -7 2 -19 0 -25z m-3090 -10 c-3 -7 -5 -2 -5 12 0 14 2 19 5 13 2 -7 2
-19 0 -25z m2793 1 c0 -11 -4 -17 -10 -14 -5 3 -10 13 -10 21 0 8 5 14 10 14
6 0 10 -9 10 -21z m217 -36 c-3 -10 -5 -2 -5 17 0 19 2 27 5 18 2 -10 2 -26 0
-35z m-404 22 c-3 -9 -8 -14 -10 -11 -3 3 -2 9 2 15 9 16 15 13 8 -4z m2894
-7 c-3 -8 -6 -5 -6 6 -1 11 2 17 5 13 3 -3 4 -12 1 -19z m-2673 -19 c-8 -14
-24 -10 -24 6 0 9 6 12 15 9 8 -4 12 -10 9 -15z m3123 13 c28 -18 44 -207 18
-207 -5 0 -11 17 -13 38 -3 39 -10 45 -30 25 -16 -16 -15 -45 1 -51 7 -3 5 -6
-5 -6 -10 -1 -22 -10 -28 -21 -20 -38 -25 -20 -24 87 0 98 2 107 23 125 25 19
39 22 58 10z m-6262 -71 c3 -60 -9 -87 -26 -60 -12 19 -11 72 1 105 15 37 21
26 25 -45z m152 27 c-3 -7 -5 -2 -5 12 0 14 2 19 5 13 2 -7 2 -19 0 -25z
m6244 -64 c5 -25 15 -52 24 -60 8 -9 15 -31 15 -51 0 -23 11 -51 32 -82 45
-65 45 -156 1 -120 -43 34 -109 54 -208 63 -27 3 -53 5 -57 5 -5 1 -8 11 -8
24 0 12 -4 28 -9 36 -17 27 -1 40 47 37 26 -1 59 2 73 7 19 5 38 3 63 -7 22
-9 38 -11 42 -5 3 5 -13 17 -35 27 -47 20 -50 34 -20 94 20 39 20 50 3 93 -8
19 -7 19 10 2 11 -10 23 -39 27 -63z m-6351 56 c0 -5 -4 -10 -10 -10 -5 0 -10
5 -10 10 0 6 5 10 10 10 6 0 10 -4 10 -10z m5550 0 c0 -5 -4 -10 -10 -10 -5 0
-10 5 -10 10 0 6 5 10 10 10 6 0 10 -4 10 -10z m-2503 -22 c-3 -8 -6 -5 -6 6
-1 11 2 17 5 13 3 -3 4 -12 1 -19z m2920 -10 c-3 -7 -5 -2 -5 12 0 14 2 19 5
13 2 -7 2 -19 0 -25z m-199 -98 c0 -36 -3 -74 -8 -85 -5 -13 -8 20 -8 90 0 70
3 101 8 85 4 -14 8 -54 8 -90z m-2378 46 c0 -6 -7 -2 -15 8 -8 11 -15 25 -15
30 0 6 7 2 15 -8 8 -11 15 -25 15 -30z m2160 34 c0 -5 -4 -10 -10 -10 -5 0
-10 5 -10 10 0 6 5 10 10 10 6 0 10 -4 10 -10z m-5647 -20 c-6 -22 -33 -24
-40 -3 -4 10 9 17 39 22 3 0 4 -8 1 -19z m6057 -16 c0 -19 -4 -33 -8 -30 -8 5
-4 66 4 66 2 0 4 -16 4 -36z m-6195 -4 c3 -5 1 -10 -4 -10 -6 0 -11 5 -11 10
0 6 2 10 4 10 3 0 8 -4 11 -10z m3292 -22 c-3 -7 -5 -2 -5 12 0 14 2 19 5 13
2 -7 2 -19 0 -25z m-2605 -13 c-2 -14 -8 -22 -13 -19 -5 3 -9 -3 -9 -12 0 -16
-1 -16 -19 0 -10 9 -24 16 -32 14 -7 -2 -14 5 -16 14 -4 17 14 24 68 27 23 1
26 -2 21 -24z m4872 -16 c-24 -27 -30 -16 -7 14 10 14 20 21 22 15 1 -5 -5
-18 -15 -29z m-5048 -19 c1 -25 4 -90 7 -145 4 -67 3 -90 -3 -70 -7 25 -9 20
-6 -28 1 -33 -1 -52 -5 -45 -5 7 -8 -17 -7 -57 1 -69 1 -70 8 -20 4 29 8 -48
8 -181 1 -127 -2 -244 -7 -260 -13 -39 -20 -149 -9 -132 4 7 6 -26 4 -75 -8
-159 -26 -222 -40 -144 -26 143 -29 358 -4 373 6 4 5 10 -3 15 -11 7 -12 12
-1 29 15 24 15 33 2 25 -7 -4 -10 106 -8 344 l3 350 -30 9 -30 10 29 1 c19 1
27 5 23 15 -8 20 14 37 43 34 22 -3 25 -8 26 -48z m5934 40 c0 -5 -4 -10 -10
-10 -5 0 -10 5 -10 10 0 6 5 10 10 10 6 0 10 -4 10 -10z m-6460 -4 c0 -3 -4
-8 -10 -11 -5 -3 -10 -1 -10 4 0 6 5 11 10 11 6 0 10 -2 10 -4z m250 -16 c9
-16 8 -20 -5 -20 -8 0 -15 9 -15 20 0 11 2 20 5 20 2 0 9 -9 15 -20z m337 -12
c-3 -8 -6 -5 -6 6 -1 11 2 17 5 13 3 -3 4 -12 1 -19z m4113 12 c0 -5 -2 -10
-4 -10 -3 0 -8 5 -11 10 -3 6 -1 10 4 10 6 0 11 -4 11 -10z m-1747 -7 c-7 -2
-21 -2 -30 0 -10 3 -4 5 12 5 17 0 24 -2 18 -5z m342 -3 c3 -5 1 -10 -4 -10
-6 0 -11 5 -11 10 0 6 2 10 4 10 3 0 8 -4 11 -10z m335 -24 c0 -21 -17 -28
-24 -10 -3 8 -10 12 -16 9 -5 -3 -10 -1 -10 4 0 6 11 11 25 11 15 0 25 -6 25
-14z m-3005 -26 c39 -20 48 -67 13 -75 -45 -10 -64 -3 -66 26 -1 15 3 31 8 34
6 4 8 16 5 28 -4 12 -3 18 2 12 4 -5 22 -17 38 -25z m2413 16 c2 -3 5 -20 7
-38 l1 -33 -109 -2 -109 -3 3 38 c2 20 8 41 14 45 10 8 184 1 193 -7z m-222
-64 c-12 -11 -17 7 -9 34 l8 29 3 -28 c2 -16 1 -31 -2 -35z m494 42 c0 -2 -7
-4 -15 -4 -8 0 -15 4 -15 10 0 5 7 7 15 4 8 -4 15 -8 15 -10z m2490 6 c0 -5
-5 -10 -11 -10 -5 0 -7 5 -4 10 3 6 8 10 11 10 2 0 4 -4 4 -10z m-2080 -10 c0
-5 -4 -10 -10 -10 -5 0 -10 5 -10 10 0 6 5 10 10 10 6 0 10 -4 10 -10z m-3292
-41 c-3 -38 -22 -31 -26 9 -3 26 0 31 12 26 11 -4 15 -17 14 -35z m125 11 c3
-11 1 -20 -4 -20 -5 0 -9 9 -9 20 0 11 2 20 4 20 2 0 6 -9 9 -20z m2784 -52
c-3 -8 -6 -5 -6 6 -1 11 2 17 5 13 3 -3 4 -12 1 -19z m-2664 -65 c-6 -114 -5
-191 3 -254 4 -37 2 -59 -5 -63 -6 -4 -11 0 -12 11 0 16 -1 16 -9 -2 -7 -17
-9 -15 -9 13 -1 21 -6 32 -16 32 -8 0 -15 9 -15 20 0 11 7 20 15 20 8 0 15 5
15 10 0 6 -4 10 -10 10 -5 0 -10 9 -10 20 0 11 5 20 10 20 6 0 10 15 10 33 0
17 -4 27 -8 20 -4 -6 -8 25 -10 68 -2 77 -1 80 23 89 14 5 25 14 25 20 0 5 1
10 3 10 2 0 1 -35 0 -77z m2333 59 c1 -6 2 -13 4 -14 1 -2 3 -15 4 -29 1 -24
-2 -27 -31 -26 -37 1 -79 -19 -88 -41 -4 -12 -3 -13 10 -2 9 7 18 10 22 7 3
-4 12 -2 20 4 9 8 13 8 13 1 0 -6 7 -9 15 -6 9 4 15 0 15 -9 0 -8 12 -18 27
-22 40 -10 53 -24 53 -57 0 -16 6 -31 15 -34 19 -8 11 -21 -29 -45 -36 -22
-24 -26 14 -4 32 18 50 19 50 2 0 -7 -15 -21 -32 -31 -18 -9 -44 -23 -58 -31
-37 -21 -148 -19 -201 4 -24 10 -53 22 -64 26 l-20 7 20 8 c19 8 19 9 -2 9
-50 2 -68 26 -38 51 8 6 14 15 13 18 -4 36 3 42 50 42 61 1 90 17 83 47 -6 21
-7 22 -39 6 -31 -15 -34 -15 -47 3 -21 28 -18 42 13 58 15 8 22 15 16 16 -6 0
-11 7 -11 15 0 8 4 12 8 9 4 -2 10 0 14 6 3 5 19 10 35 10 16 0 32 5 35 11 10
15 110 7 111 -9z m-2609 -24 c-3 -8 -6 -5 -6 6 -1 11 2 17 5 13 3 -3 4 -12 1
-19z m2950 -60 c-2 -13 -4 -3 -4 22 0 25 2 35 4 23 2 -13 2 -33 0 -45z m-584
37 c-3 -9 -8 -14 -10 -11 -3 3 -2 9 2 15 9 16 15 13 8 -4z m-4186 -41 c-3 -3
-12 -4 -19 -1 -8 3 -5 6 6 6 11 1 17 -2 13 -5z m1820 -46 c-3 -7 -5 -2 -5 12
0 14 2 19 5 13 2 -7 2 -19 0 -25z m6127 -7 c4 -5 -3 -7 -14 -4 -23 6 -26 13
-6 13 8 0 17 -4 20 -9z m126 -17 c0 -8 -5 -12 -10 -9 -6 4 -8 11 -5 16 9 14
15 11 15 -7z m-7387 -11 c-7 -2 -19 -2 -25 0 -7 3 -2 5 12 5 14 0 19 -2 13 -5z
m6624 -25 c-3 -7 -5 -2 -5 12 0 14 2 19 5 13 2 -7 2 -19 0 -25z m0 -60 c-3 -8
-6 -5 -6 6 -1 11 2 17 5 13 3 -3 4 -12 1 -19z m-2717 8 c0 -11 -19 -15 -25 -6
-3 5 1 10 9 10 9 0 16 -2 16 -4z m2837 -28 c-3 -8 -6 -5 -6 6 -1 11 2 17 5 13
3 -3 4 -12 1 -19z m-6010 6 c-3 -3 -12 -4 -19 -1 -8 3 -5 6 6 6 11 1 17 -2 13
-5z m4923 -4 c0 -5 -2 -10 -4 -10 -3 0 -8 5 -11 10 -3 6 -1 10 4 10 6 0 11 -4
11 -10z m1037 -22 c-3 -8 -6 -5 -6 6 -1 11 2 17 5 13 3 -3 4 -12 1 -19z
m-4107 -8 c0 -5 -5 -10 -11 -10 -5 0 -7 5 -4 10 3 6 8 10 11 10 2 0 4 -4 4
-10z m2465 -20 c-3 -5 -10 -10 -16 -10 -5 0 -9 5 -9 10 0 6 7 10 16 10 8 0 12
-4 9 -10z m-4245 -26 c0 -14 -3 -14 -15 -4 -8 7 -15 14 -15 16 0 2 7 4 15 4 8
0 15 -7 15 -16z m3063 -40 c-10 -8 -36 -24 -58 -34 -37 -18 -38 -20 -13 -20
15 0 38 4 52 10 14 5 28 5 31 1 7 -12 -52 -61 -74 -61 -9 0 -21 -4 -26 -9 -32
-31 -195 -12 -209 24 -3 8 -12 12 -20 9 -24 -9 -86 54 -86 87 0 35 15 37 72 8
49 -25 193 -37 254 -20 22 6 51 22 65 37 24 26 24 26 27 4 2 -12 -4 -28 -15
-36z m-966 40 c-3 -3 -12 -4 -19 -1 -8 3 -5 6 6 6 11 1 17 -2 13 -5z m-1537
-79 c2 6 6 -8 10 -30 l7 -40 2 50 c2 36 5 45 10 30 7 -16 9 -17 13 -5 3 8 3 6
0 -5 -3 -11 -5 -79 -4 -152 1 -76 -3 -135 -8 -138 -6 -3 -10 -20 -10 -37 0
-60 -15 -16 -22 65 -11 132 -18 337 -9 292 5 -22 9 -35 11 -30z m1645 55 c-3
-5 -11 -10 -16 -10 -6 0 -7 5 -4 10 3 6 11 10 16 10 6 0 7 -4 4 -10z m3612
-12 c-3 -8 -6 -5 -6 6 -1 11 2 17 5 13 3 -3 4 -12 1 -19z m79 -56 c-12 -11
-15 5 -8 44 l7 39 3 -39 c2 -21 1 -41 -2 -44z m-5831 58 c-27 -12 -35 -12 -35
0 0 6 12 10 28 9 24 0 25 -1 7 -9z m5125 -14 c0 -2 -7 -9 -15 -16 -13 -11 -14
-10 -9 4 5 14 24 23 24 12z m-4090 -36 c0 -5 -2 -10 -4 -10 -3 0 -8 5 -11 10
-3 6 -1 10 4 10 6 0 11 -4 11 -10z m1365 -40 c3 -5 1 -10 -4 -10 -6 0 -11 5
-11 10 0 6 2 10 4 10 3 0 8 -4 11 -10z m3432 -32 c-3 -7 -5 -2 -5 12 0 14 2
19 5 13 2 -7 2 -19 0 -25z m-3197 -3 c0 -8 -2 -15 -4 -15 -2 0 -6 7 -10 15 -3
8 -1 15 4 15 6 0 10 -7 10 -15z m1750 11 c0 -2 -7 -7 -16 -10 -8 -3 -12 -2 -9
4 6 10 25 14 25 6z m-225 -46 c3 -6 -1 -7 -9 -4 -18 7 -21 14 -7 14 6 0 13 -4
16 -10z m-1371 -9 c3 -4 -6 -6 -19 -3 -14 2 -25 6 -25 8 0 8 39 4 44 -5z
m1336 -11 c0 -5 -5 -10 -11 -10 -5 0 -7 5 -4 10 3 6 8 10 11 10 2 0 4 -4 4
-10z m1907 -36 c-3 -3 -12 -4 -19 -1 -8 3 -5 6 6 6 11 1 17 -2 13 -5z m-200
-36 c-3 -7 -5 -2 -5 12 0 14 2 19 5 13 2 -7 2 -19 0 -25z m-732 -76 c-3 -3
-11 0 -18 7 -9 10 -8 11 6 5 10 -3 15 -9 12 -12z m741 -28 c-4 -9 -9 -15 -11
-12 -3 3 -3 13 1 22 4 9 9 15 11 12 3 -3 3 -13 -1 -22z m1 -56 c-3 -8 -6 -5
-6 6 -1 11 2 17 5 13 3 -3 4 -12 1 -19z m13 -80 c0 -12 -3 -18 -7 -14 -11 10
-12 36 -2 36 5 0 9 -10 9 -22z m-3505 -58 c3 -5 1 -10 -4 -10 -6 0 -11 5 -11
10 0 6 2 10 4 10 3 0 8 -4 11 -10z m-3322 -67 c-13 -2 -33 -2 -45 0 -13 2 -3
4 22 4 25 0 35 -2 23 -4z m2507 -97 c0 -3 -4 -8 -10 -11 -5 -3 -10 -1 -10 4 0
6 5 11 10 11 6 0 10 -2 10 -4z m-1160 -31 c0 -8 -2 -15 -4 -15 -2 0 -6 7 -10
15 -3 8 -1 15 4 15 6 0 10 -7 10 -15z m1461 -344 c93 -35 183 -130 204 -214
l7 -27 -104 0 c-104 0 -104 0 -121 29 -34 58 -154 84 -224 47 -136 -70 -134
-323 2 -393 68 -36 193 -7 225 51 13 25 16 26 117 26 78 0 103 -3 103 -13 0
-32 -56 -120 -101 -161 -72 -65 -142 -89 -259 -90 -83 0 -102 3 -155 27 -78
37 -118 68 -156 124 -93 135 -90 345 6 475 43 59 122 112 195 133 72 20 187
14 261 -14z m1097 15 c102 -28 193 -101 233 -190 30 -66 31 -66 -84 -66 -103
0 -103 0 -120 29 -35 59 -153 84 -224 47 -127 -65 -136 -301 -14 -383 26 -18
48 -23 93 -23 71 0 122 21 145 61 17 29 17 29 120 29 66 0 103 -4 103 -11 0
-5 -11 -34 -26 -64 -113 -241 -494 -259 -647 -32 -120 177 -74 439 96 552 91
60 216 80 325 51z m-2146 -24 c95 -47 133 -160 86 -252 -13 -25 -37 -54 -55
-65 -18 -11 -32 -22 -33 -25 0 -3 18 -15 40 -28 98 -56 114 -221 28 -298 -60
-56 -77 -59 -320 -62 l-228 -3 0 381 0 381 218 -3 c203 -3 220 -5 264 -26z
m418 -352 l0 -380 -95 0 -95 0 0 380 0 380 95 0 95 0 0 -380z m1140 0 l0 -380
-95 0 -95 0 0 380 0 380 95 0 95 0 0 -380z m1140 73 l0 -308 120 3 120 2 0
-75 0 -75 -215 0 -215 0 0 380 0 380 95 0 95 0 0 -307z m800 232 l0 -75 -140
0 -140 0 0 -75 0 -75 120 0 120 0 0 -75 0 -75 -120 0 -120 0 0 -80 0 -80 140
0 140 0 0 -75 0 -75 -235 0 -235 0 0 380 0 380 235 0 235 0 0 -75z m660 0 l0
-75 -100 0 -100 0 0 -305 0 -305 -95 0 -95 0 0 305 0 305 -100 0 -100 0 0 75
0 75 295 0 295 0 0 -75z m586 -75 c29 -80 90 -250 137 -377 l84 -233 -101 0
-102 0 -20 63 -20 62 -141 3 -141 3 -22 -66 -22 -65 -100 0 c-55 0 -98 4 -96
9 2 5 64 176 138 380 l135 372 109 -3 110 -3 52 -145z m2239 -150 c3 -5 1 -10
-4 -10 -6 0 -11 5 -11 10 0 6 2 10 4 10 3 0 8 -4 11 -10z m-2745 -10 c0 -5 -4
-10 -10 -10 -5 0 -10 5 -10 10 0 6 5 10 10 10 6 0 10 -4 10 -10z m-4650 -984
c0 -3 -4 -8 -10 -11 -5 -3 -10 -1 -10 4 0 6 5 11 10 11 6 0 10 -2 10 -4z
m6570 -436 c0 -13 -6 -20 -17 -19 -11 0 -13 3 -5 6 17 7 15 21 -5 26 -14 4
-12 5 5 6 16 1 22 -5 22 -19z"/>
<path d="M5835 8110 c-3 -5 -1 -10 4 -10 6 0 11 5 11 10 0 6 -2 10 -4 10 -3 0
-8 -4 -11 -10z"/>
<path d="M8430 7971 c0 -11 26 -22 34 -14 12 12 5 23 -14 23 -11 0 -20 -4 -20
-9z"/>
<path d="M8015 7528 c-11 -34 -12 -108 -2 -117 9 -7 12 8 13 60 1 67 -2 82
-11 57z"/>
<path d="M7977 7346 c-16 -12 -16 -14 -1 -20 26 -10 33 -7 31 14 -2 23 -6 24
-30 6z"/>
<path d="M7840 7138 c0 -19 35 -69 43 -62 7 7 -18 60 -33 69 -5 3 -10 0 -10
-7z"/>
<path d="M8380 7613 c0 -13 29 -38 35 -31 3 3 -4 13 -15 23 -11 10 -20 13 -20
8z"/>
<path d="M8373 7435 c0 -33 2 -45 4 -27 2 18 2 45 0 60 -2 15 -4 0 -4 -33z"/>
<path d="M8250 7580 c6 -11 15 -20 20 -20 6 0 5 9 -2 20 -7 11 -16 20 -21 20
-4 0 -3 -9 3 -20z"/>
<path d="M3830 6913 c0 -7 -8 -13 -17 -15 -13 -2 -11 -7 11 -22 20 -13 34 -15
48 -9 19 8 19 9 -3 28 -14 13 -20 15 -15 5 4 -8 0 -6 -8 4 -9 11 -16 15 -16 9z"/>
<path d="M3787 6634 c-4 -4 -7 -11 -7 -15 0 -9 27 -5 37 6 4 4 3 5 -4 2 -6 -4
-13 -2 -15 4 -2 5 -7 7 -11 3z"/>
<path d="M3611 6109 c11 -11 24 -18 27 -14 4 4 -2 13 -12 21 -30 21 -39 17
-15 -7z"/>
<path d="M6787 6185 c-3 -27 -8 -61 -12 -75 -3 -14 4 -3 15 24 15 36 18 56 12
75 -8 23 -9 21 -15 -24z"/>
<path d="M2600 5804 c0 -8 5 -12 10 -9 6 3 10 10 10 16 0 5 -4 9 -10 9 -5 0
-10 -7 -10 -16z"/>
<path d="M9016 5511 c3 -7 0 -17 -7 -22 -11 -7 -11 -9 -1 -9 7 0 10 -4 7 -10
-3 -5 -1 -10 5 -10 7 0 10 7 6 18 -6 16 -5 16 8 -1 13 -17 14 -17 20 0 4 10 4
14 0 11 -3 -4 -15 3 -26 15 -11 12 -16 16 -12 8z"/>
<path d="M9755 5401 c-3 -5 -2 -12 3 -15 5 -3 9 1 9 9 0 17 -3 19 -12 6z"/>
<path d="M9775 5371 c-9 -15 15 -25 28 -12 9 9 7 10 -7 5 -13 -5 -17 -4 -12 4
4 7 5 12 2 12 -3 0 -7 -4 -11 -9z"/>
<path d="M6225 4710 c-3 -5 1 -10 10 -10 9 0 13 5 10 10 -3 6 -8 10 -10 10 -2
0 -7 -4 -10 -10z"/>
<path d="M6330 4710 c0 -5 9 -10 21 -10 11 0 17 5 14 10 -3 6 -13 10 -21 10
-8 0 -14 -4 -14 -10z"/>
<path d="M6283 4703 c9 -2 23 -2 30 0 6 3 -1 5 -18 5 -16 0 -22 -2 -12 -5z"/>
<path d="M6410 4550 c0 -5 5 -10 10 -10 6 0 10 5 10 10 0 6 -4 10 -10 10 -5 0
-10 -4 -10 -10z"/>
<path d="M6440 4456 c0 -8 5 -18 10 -21 6 -3 10 1 10 9 0 8 -4 18 -10 21 -5 3
-10 -1 -10 -9z"/>
<path d="M6340 4441 c0 -17 49 -33 67 -22 13 7 11 9 -10 15 -14 3 -32 9 -41
12 -9 3 -16 1 -16 -5z"/>
<path d="M6134 4295 c11 -8 24 -15 30 -15 5 0 1 7 -10 15 -10 8 -23 14 -29 14
-5 0 -1 -6 9 -14z"/>
<path d="M6391 4144 c-49 -26 -40 -32 14 -10 19 8 35 20 35 25 0 13 4 15 -49
-15z"/>
<path d="M2762 3900 c0 -14 2 -19 5 -12 2 6 2 18 0 25 -3 6 -5 1 -5 -13z"/>
<path d="M2758 3483 c7 -3 16 -2 19 1 4 3 -2 6 -13 5 -11 0 -14 -3 -6 -6z"/>
<path d="M7800 4260 c0 -60 6 -70 28 -48 25 25 10 108 -20 108 -4 0 -8 -27 -8
-60z m30 7 c0 -12 -5 -29 -10 -37 -7 -11 -10 -3 -10 28 0 26 4 41 10 37 6 -3
10 -16 10 -28z"/>
<path d="M7668 3873 c7 -3 16 -2 19 1 4 3 -2 6 -13 5 -11 0 -14 -3 -6 -6z"/>
<path d="M7678 3843 c7 -3 16 -2 19 1 4 3 -2 6 -13 5 -11 0 -14 -3 -6 -6z"/>
<path d="M3440 3813 c0 -10 40 -36 46 -30 3 2 -7 12 -21 21 -14 9 -25 13 -25
9z"/>
<path d="M8697 3522 c-21 -23 -22 -51 -2 -58 29 -11 41 2 37 40 -5 41 -12 44
-35 18z"/>
<path d="M8857 3366 c-7 -17 18 -42 27 -27 7 11 -3 41 -14 41 -4 0 -10 -6 -13
-14z"/>
<path d="M2802 3190 c0 -14 2 -19 5 -12 2 6 2 18 0 25 -3 6 -5 1 -5 -13z"/>
<path d="M2772 2760 c0 -19 2 -27 5 -17 2 9 2 25 0 35 -3 9 -5 1 -5 -18z"/>
<path d="M2761 2674 c0 -11 3 -14 6 -6 3 7 2 16 -1 19 -3 4 -6 -2 -5 -13z"/>
<path d="M2942 2905 c0 -16 2 -22 5 -12 2 9 2 23 0 30 -3 6 -5 -1 -5 -18z"/>
<path d="M5185 3190 c-14 -6 -2 -9 40 -8 44 0 54 2 35 8 -33 10 -51 10 -75 0z"/>
<path d="M5070 3111 c0 -5 5 -13 10 -16 6 -3 10 -2 10 4 0 5 -4 13 -10 16 -5
3 -10 2 -10 -4z"/>
<path d="M5266 3051 c-3 -4 11 -11 30 -17 19 -6 34 -7 34 -3 0 5 1 12 3 15 3
9 -62 13 -67 5z"/>
<path d="M5108 2988 c5 -5 16 -8 23 -6 8 3 3 7 -10 11 -17 4 -21 3 -13 -5z"/>
<path d="M5333 2975 c0 -8 4 -15 9 -15 4 0 8 4 8 9 0 6 -4 12 -8 15 -5 3 -9
-1 -9 -9z"/>
<path d="M5008 2969 c-18 -11 29 -30 57 -23 23 6 35 23 18 25 -41 4 -66 4 -75
-2z"/>
<path d="M5094 2925 c11 -8 24 -15 30 -15 5 0 1 7 -10 15 -10 8 -23 14 -29 14
-5 0 -1 -6 9 -14z"/>
<path d="M5050 2795 l0 -25 103 1 c101 2 101 2 32 9 -38 3 -85 14 -102 23
l-33 18 0 -26z"/>
<path d="M2911 2654 c0 -11 3 -14 6 -6 3 7 2 16 -1 19 -3 4 -6 -2 -5 -13z"/>
<path d="M2910 1530 l0 -80 64 0 c34 0 77 5 94 11 59 20 66 106 11 134 -17 9
-56 15 -99 15 l-70 0 0 -80z"/>
<path d="M2910 1229 l0 -81 90 4 c73 2 93 7 109 23 31 32 31 85 1 115 -17 17
-33 20 -110 20 l-90 0 0 -81z"/>
<path d="M7776 1530 c-3 -8 -24 -68 -45 -132 l-40 -118 90 0 c82 0 90 2 85 18
-45 141 -85 244 -90 232z"/>
<path d="M5725 9307 c-27 -64 -15 -323 15 -342 18 -11 31 73 36 220 3 82 2
146 -2 142 -4 -4 -13 -2 -21 4 -10 9 -16 4 -28 -24z"/>
<path d="M6030 9323 c0 -7 -6 -10 -14 -7 -15 6 -41 -57 -33 -79 3 -6 6 -2 6
10 1 23 21 43 21 21 0 -20 -21 -92 -29 -98 -4 -3 -26 -47 -50 -98 -57 -125
-47 -154 29 -86 67 61 85 100 89 193 1 10 4 11 15 2 18 -15 26 7 24 65 -2 29
-6 41 -17 40 -8 -1 -21 10 -28 24 -7 14 -13 20 -13 13z m10 -123 c0 -13 -7
-20 -20 -20 -22 0 -23 1 -14 24 9 23 34 20 34 -4z"/>
<path d="M2870 9228 c0 -7 7 -31 15 -53 l14 -40 1 53 c0 40 -4 52 -15 52 -8 0
-15 -6 -15 -12z"/>
<path d="M2988 9223 c25 -10 11 -22 -21 -16 -32 5 -34 3 -45 -35 -16 -52 -15
-69 3 -80 14 -7 12 -17 -14 -75 -17 -37 -29 -67 -27 -67 6 0 96 162 96 171 0
12 7 11 32 -2 16 -9 19 -8 12 2 -4 7 -7 35 -7 61 1 43 -1 48 -20 47 -12 0 -16
-3 -9 -6z m-28 -113 c0 -5 -7 -10 -15 -10 -8 0 -15 5 -15 10 0 6 7 10 15 10 8
0 15 -4 15 -10z"/>
<path d="M2685 9201 c-3 -5 0 -13 6 -17 7 -4 9 -3 5 4 -3 5 0 13 6 15 9 4 10
6 1 6 -6 1 -14 -3 -18 -8z"/>
<path d="M2791 9098 c-21 -47 -37 -178 -21 -178 5 0 11 8 13 18 4 16 5 16 6
-1 0 -10 -6 -20 -14 -23 -8 -4 -15 -14 -15 -23 0 -14 2 -14 10 -1 6 9 10 10
10 3 0 -6 -5 -15 -10 -18 -6 -4 -8 -21 -6 -38 3 -18 8 -54 11 -81 10 -74 23
-45 45 95 23 148 26 247 6 274 -13 18 -15 16 -35 -27z"/>
<path d="M2967 8993 c-4 -3 -7 -11 -7 -17 0 -6 5 -5 12 2 6 6 9 14 7 17 -3 3
-9 2 -12 -2z"/>
<path d="M2900 8840 c0 -5 5 -10 10 -10 6 0 10 5 10 10 0 6 -4 10 -10 10 -5 0
-10 -4 -10 -10z"/>
<path d="M2890 8810 c-13 -8 -12 -10 3 -10 9 0 17 5 17 10 0 12 -1 12 -20 0z"/>
<path d="M3192 8599 c2 -6 8 -10 13 -10 5 0 11 4 13 10 2 6 -4 11 -13 11 -9 0
-15 -5 -13 -11z"/>
<path d="M8791 8044 c0 -11 3 -14 6 -6 3 7 2 16 -1 19 -3 4 -6 -2 -5 -13z"/>
<path d="M8781 8004 c0 -11 3 -14 6 -6 3 7 2 16 -1 19 -3 4 -6 -2 -5 -13z"/>
<path d="M8792 7760 c0 -14 2 -19 5 -12 2 6 2 18 0 25 -3 6 -5 1 -5 -13z"/>
<path d="M497 7533 c-47 -16 -265 -27 -281 -14 -9 8 -159 8 -203 0 -10 -2 -13
-110 -13 -501 0 -279 4 -498 9 -498 5 0 14 7 21 15 12 14 15 14 31 0 9 -9 30
-18 46 -19 15 -2 41 -8 56 -15 31 -12 52 -6 41 11 -4 6 -2 8 3 5 6 -4 20 11
32 34 18 34 20 50 14 88 -4 25 -7 48 -8 51 0 3 -3 10 -7 16 -7 11 -6 27 5 60
5 15 16 21 35 21 15 -1 43 2 63 6 20 4 49 3 63 -3 15 -5 25 -6 22 -1 -4 6 5 6
21 1 16 -5 47 -14 71 -21 23 -7 42 -16 42 -21 0 -5 4 -7 9 -4 5 4 7 -3 4 -14
-3 -11 -15 -26 -27 -32 -11 -6 -24 -16 -28 -22 -4 -5 -22 -12 -40 -14 -45 -5
-71 -29 -57 -53 5 -11 6 -19 2 -19 -4 0 -2 -5 3 -10 16 -16 52 -20 81 -9 20 7
30 6 45 -8 19 -17 82 -27 72 -12 -2 4 0 10 6 14 5 3 10 1 10 -5 0 -7 7 -5 16
5 12 12 19 13 30 4 7 -6 17 -8 22 -5 6 4 7 -8 2 -29 -11 -50 6 -60 94 -56 84
4 102 4 178 1 32 -2 64 2 71 8 8 7 25 9 43 4 48 -13 69 -9 69 13 0 18 -7 20
-80 20 -44 0 -84 3 -90 7 -5 3 -39 6 -75 5 -69 0 -110 14 -110 38 0 8 -5 15
-11 15 -6 0 -8 7 -5 16 8 21 -4 65 -15 58 -5 -3 -5 4 0 18 10 26 11 32 11 53
0 8 6 15 14 15 8 0 16 5 18 11 2 5 11 11 20 12 9 2 22 8 29 13 8 6 21 13 30
17 12 4 15 13 11 33 -3 18 -1 25 6 20 6 -3 14 -2 17 4 4 6 3 10 -2 9 -23 -4
-28 5 -30 49 -3 56 -6 73 -16 89 -6 9 -3 11 8 7 9 -4 2 8 -16 25 -21 21 -29
38 -26 51 3 12 0 20 -8 20 -14 0 -29 29 -20 38 3 3 5 0 5 -6 0 -7 4 -12 8 -12
5 0 7 14 4 30 -4 28 3 36 31 31 4 0 7 9 8 22 0 12 3 16 6 9 2 -6 9 -10 14 -6
5 3 9 0 9 -5 0 -6 11 -11 24 -11 14 0 28 -5 32 -12 5 -7 3 -8 -7 -3 -8 5 3
-12 24 -37 31 -39 36 -50 28 -71 -5 -14 -7 -28 -4 -31 4 -3 -2 -13 -13 -22
-10 -8 -13 -13 -6 -9 15 8 15 4 2 -31 -8 -21 -8 -29 2 -36 10 -6 10 -8 1 -8
-7 0 -13 -5 -13 -11 0 -5 5 -7 12 -3 7 4 8 3 4 -4 -4 -6 -14 -8 -24 -5 -9 3
-14 3 -10 -2 4 -4 3 -17 -3 -28 -6 -10 -7 -17 -2 -14 5 3 14 -3 21 -14 14 -21
3 -26 -17 -6 -11 10 -13 10 -7 0 7 -12 -5 -18 -27 -14 -5 1 -6 -3 -2 -9 4 -6
12 -7 22 -2 10 6 23 2 39 -13 20 -18 36 -22 92 -23 37 0 86 -5 110 -10 24 -6
42 -6 42 -1 0 14 75 10 105 -5 23 -12 33 -12 64 -2 20 7 46 12 59 10 12 -2 22
0 22 6 0 5 6 7 14 4 10 -4 14 0 12 13 -2 10 -7 18 -12 18 -5 1 -19 6 -30 13
-12 6 -25 8 -29 4 -5 -4 -5 -2 -1 5 4 7 -2 17 -14 23 -12 6 -18 16 -13 23 4 7
0 6 -10 -2 -16 -12 -17 -10 -13 23 4 24 2 34 -5 30 -6 -3 -9 -15 -6 -25 3 -11
1 -19 -5 -19 -5 0 -6 -5 -3 -11 4 -6 0 -9 -11 -7 -13 2 -18 -2 -16 -14 1 -9
-3 -20 -9 -24 -8 -5 -9 -3 -4 7 5 8 0 7 -12 -4 -11 -9 -23 -14 -27 -10 -4 4
-17 8 -29 8 -20 0 -22 5 -20 45 1 24 6 46 12 48 6 2 8 9 5 14 -4 6 -2 8 4 4 6
-3 13 -2 17 4 3 5 16 15 28 22 21 10 21 10 7 -7 -14 -17 -14 -18 7 -6 19 9 22
9 17 -3 -3 -8 0 -17 6 -21 13 -8 42 14 34 26 -3 5 1 9 8 9 9 0 9 3 -2 10 -12
8 -9 10 12 10 15 0 30 -5 34 -11 4 -8 9 -7 15 2 8 11 11 11 20 -4 6 -9 14 -15
20 -12 5 4 9 2 9 -3 0 -13 39 -22 46 -11 3 5 9 7 14 4 4 -3 10 5 13 16 3 12
10 18 15 15 5 -3 8 7 8 22 -1 15 2 37 6 49 4 13 3 25 -3 29 -6 3 -8 17 -4 31
3 14 2 22 -2 20 -4 -3 -8 5 -8 17 0 16 6 21 28 21 20 1 27 -4 27 -18 0 -16 -3
-17 -14 -8 -11 9 -16 9 -22 0 -5 -8 -3 -9 6 -4 10 6 12 4 7 -8 -4 -10 -2 -16
5 -14 7 1 13 -4 14 -10 1 -7 3 -16 4 -20 1 -5 2 -11 2 -14 -1 -3 6 -6 13 -6
11 0 12 4 4 13 -7 8 -6 13 2 16 7 2 14 30 17 64 3 32 11 69 19 81 8 11 10 23
6 26 -5 3 -8 23 -8 45 0 22 -3 38 -7 36 -3 -2 -10 0 -13 6 -5 8 -11 7 -21 -1
-10 -8 -14 -8 -14 0 0 6 4 11 9 11 5 0 12 15 16 33 17 73 18 69 -16 62 -24 -6
-30 -4 -24 5 6 9 4 11 -4 6 -19 -12 -76 2 -116 29 -20 14 -34 21 -31 16 9 -14
-112 -10 -166 6 -49 14 -115 13 -273 -6 -44 -5 -83 -7 -87 -5 -9 6 -75 16
-103 16 -46 1 -105 -6 -105 -12 0 -11 -89 -11 -108 -1 -31 16 -84 18 -125 4z
m1137 -204 c-3 -5 0 -9 7 -9 7 0 10 -3 6 -6 -3 -3 -1 -18 4 -32 8 -21 7 -23
-5 -13 -12 10 -14 9 -9 -9 3 -11 9 -23 14 -26 5 -3 9 -11 9 -17 0 -7 -4 -6
-11 3 -9 12 -10 11 -6 -6 4 -18 0 -20 -22 -17 -14 2 -32 5 -38 5 -7 1 -13 14
-13 30 0 21 4 27 13 22 7 -5 7 -1 -2 10 -12 14 -12 19 -2 25 10 6 9 10 -3 14
-24 10 -20 37 5 32 17 -3 19 -2 9 10 -11 13 -8 13 19 4 17 -6 28 -15 25 -20z
m-530 -36 c3 -7 11 -13 18 -13 9 0 9 3 -2 10 -8 5 -12 11 -9 14 2 3 11 1 19
-4 10 -6 11 -12 3 -22 -14 -16 -14 -29 -1 -45 6 -7 7 -13 3 -13 -5 0 -1 -8 8
-17 14 -17 14 -18 -9 -19 -13 -1 -24 2 -24 7 0 5 -5 9 -11 9 -5 0 -7 -6 -3
-12 5 -9 2 -8 -9 1 -10 8 -15 16 -12 19 3 3 -2 16 -10 28 -12 18 -14 49 -6 71
3 8 42 -4 45 -14z m294 -19 c-3 -3 4 -16 17 -30 12 -13 23 -36 23 -50 0 -15 5
-30 12 -34 7 -4 9 -13 6 -19 -4 -6 -3 -11 2 -11 5 0 9 -7 9 -15 0 -8 -5 -15
-11 -15 -7 0 -7 -3 -1 -8 12 -8 15 -52 4 -52 -5 0 -6 -7 -3 -15 5 -11 -1 -14
-25 -12 -17 1 -31 5 -31 10 0 4 -9 7 -19 7 -11 0 -23 5 -27 12 -5 7 -2 8 7 3
11 -6 12 -5 2 6 -10 10 -16 10 -25 1 -7 -7 -16 -12 -22 -12 -6 0 -5 5 1 11 6
6 9 18 6 25 -3 8 0 21 7 29 11 13 10 14 -6 8 -16 -6 -17 -5 -4 9 8 8 22 13 30
11 8 -3 7 1 -4 7 -15 10 -16 14 -5 21 12 8 12 11 -1 19 -13 9 -13 10 0 10 11
0 16 9 15 28 0 21 4 27 20 25 19 -1 19 -1 2 12 -18 13 -18 13 0 18 10 3 20 5
22 6 2 0 2 -2 -1 -5z m-204 -116 c10 -10 12 -18 6 -18 -6 0 -8 -4 -5 -10 3 -5
2 -10 -4 -10 -6 0 -8 -7 -5 -15 4 -8 1 -15 -5 -15 -6 0 -8 -6 -5 -13 3 -8 -2
-19 -10 -26 -12 -10 -14 -8 -10 11 5 20 4 21 -6 5 -6 -9 -15 -15 -19 -12 -8 5
-6 58 4 84 4 9 0 11 -10 7 -13 -4 -14 -2 -5 14 12 23 50 22 74 -2z m-888 -31
c8 3 14 1 14 -5 0 -12 -26 -23 -34 -15 -3 4 -5 18 -5 32 2 23 2 23 6 4 3 -14
9 -20 19 -16z m504 14 c0 -6 -6 -13 -12 -18 -17 -10 -42 -14 -33 -5 4 4 12 7
18 7 7 1 11 6 10 13 -2 7 2 12 7 12 6 0 10 -4 10 -9z"/>
<path d="M1422 7041 c-11 -6 -10 -10 4 -15 9 -3 19 -4 22 -1 3 3 -1 5 -9 5
-11 0 -11 2 1 10 8 5 11 10 5 10 -5 0 -16 -4 -23 -9z"/>
<path d="M7198 7514 c-12 -12 -116 -36 -168 -39 -30 -2 -56 -8 -58 -14 -2 -6
2 -11 9 -11 8 0 6 -5 -5 -13 -16 -12 -15 -13 11 -12 15 0 34 4 41 8 6 5 12 5
12 1 0 -4 9 1 19 10 12 11 21 13 25 7 4 -6 13 -8 21 -4 9 3 22 0 30 -7 12 -10
15 -10 15 1 0 11 2 11 10 -1 5 -8 10 -10 10 -4 0 6 7 11 15 11 10 0 14 -6 10
-15 -4 -12 -3 -13 10 -2 8 7 15 9 15 5 0 -4 8 -1 17 6 11 10 14 10 9 2 -5 -9
-1 -13 13 -13 31 0 52 11 44 24 -4 6 2 4 12 -4 17 -14 18 -13 12 3 -4 11 -3
16 3 12 6 -3 10 -2 10 4 0 5 3 17 6 25 5 14 2 15 -18 7 -16 -6 -37 -4 -63 5
-44 15 -59 17 -67 8z"/>
<path d="M7342 7425 c0 -16 2 -22 5 -12 2 9 2 23 0 30 -3 6 -5 -1 -5 -18z"/>
<path d="M3893 7303 c-15 -5 -17 -23 -4 -23 5 0 11 7 15 15 3 8 4 15 3 14 -1
0 -8 -3 -14 -6z"/>
<path d="M7313 7279 c-2 -23 3 -25 10 -4 4 8 3 16 -1 19 -4 3 -9 -4 -9 -15z"/>
<path d="M3860 7259 c0 -5 5 -7 10 -4 6 3 10 8 10 11 0 2 -4 4 -10 4 -5 0 -10
-5 -10 -11z"/>
<path d="M916 6903 c-6 -14 -5 -15 5 -6 7 7 10 15 7 18 -3 3 -9 -2 -12 -12z"/>
<path d="M345 6504 c-16 -6 -34 -10 -39 -6 -5 3 -6 0 -2 -7 14 -22 16 -62 5
-82 -6 -13 -7 -19 -1 -15 6 3 13 0 15 -6 3 -7 6 2 6 20 1 26 8 37 36 53 56 34
40 69 -20 43z"/>
<path d="M261 6334 c-7 -9 -13 -28 -13 -42 0 -15 -9 -35 -19 -45 -20 -18 -26
-47 -10 -47 12 0 32 26 29 36 -2 5 10 26 26 46 36 48 25 94 -13 52z"/>
<path d="M9595 6110 c3 -5 8 -10 11 -10 2 0 4 5 4 10 0 6 -5 10 -11 10 -5 0
-7 -4 -4 -10z"/>
<path d="M10181 6104 c0 -11 3 -14 6 -6 3 7 2 16 -1 19 -3 4 -6 -2 -5 -13z"/>
<path d="M152 5997 c-6 -7 -7 -18 -3 -26 7 -11 11 -9 20 7 13 24 -1 39 -17 19z"/>
<path d="M9075 5940 c-3 -5 -1 -10 4 -10 6 0 11 5 11 10 0 6 -2 10 -4 10 -3 0
-8 -4 -11 -10z"/>
<path d="M734 5588 c-4 -6 -3 -8 4 -4 6 3 14 2 17 -4 5 -8 11 -8 19 -1 7 6 16
8 19 4 4 -3 7 -1 7 5 0 15 -13 15 -28 0 -9 -9 -12 -9 -12 0 0 15 -17 16 -26 0z"/>
<path d="M10558 5583 c6 -2 18 -2 25 0 6 3 1 5 -13 5 -14 0 -19 -2 -12 -5z"/>
<path d="M885 5527 c4 -8 1 -18 -4 -22 -6 -3 -9 -11 -6 -16 4 -5 1 -9 -6 -9
-19 0 1 -16 30 -25 16 -5 21 -4 17 4 -4 6 0 11 11 12 11 0 13 3 5 6 -6 2 -10
9 -6 14 3 5 -5 9 -18 9 -16 0 -19 3 -10 9 10 6 10 10 -3 21 -13 11 -15 10 -10
-3z"/>
<path d="M1545 5490 c3 -5 8 -10 11 -10 2 0 4 5 4 10 0 6 -5 10 -11 10 -5 0
-7 -4 -4 -10z"/>
<path d="M556 5451 c-4 -7 -5 -15 -2 -18 9 -9 19 4 14 18 -4 11 -6 11 -12 0z"/>
<path d="M1720 5410 c-13 -8 -12 -11 5 -24 11 -9 16 -16 11 -16 -16 0 16 -30
33 -30 13 0 13 2 2 9 -9 6 -10 11 -2 15 13 9 15 46 2 46 -5 0 -15 2 -23 5 -7
3 -20 1 -28 -5z"/>
<path d="M396 5382 c-2 -4 2 -15 9 -25 8 -12 15 -14 20 -8 3 6 1 11 -4 11 -6
0 -11 5 -11 11 0 5 5 7 10 4 6 -3 10 -1 10 4 0 13 -26 15 -34 3z"/>
<path d="M1718 5237 c-16 -6 -28 -14 -28 -19 0 -4 -7 -8 -16 -8 -8 0 -13 4
-10 9 4 5 -4 7 -15 4 -12 -4 -24 -14 -26 -24 -3 -11 -10 -16 -16 -12 -6 3 -7
1 -3 -5 5 -9 13 -9 27 -1 12 6 22 9 24 7 7 -7 17 -63 10 -56 -8 8 -35 -15 -35
-31 0 -18 59 -53 80 -46 11 3 20 11 20 16 0 6 4 8 9 5 5 -3 12 11 16 32 7 40
5 49 -10 44 -5 -2 -7 0 -3 4 4 4 3 13 -4 21 -8 10 -8 12 4 8 9 -4 15 0 15 9 0
8 -6 12 -15 8 -11 -4 -13 -2 -6 9 7 12 16 41 11 38 -1 -1 -14 -6 -29 -12z"/>
<path d="M1598 5123 c7 -3 16 -2 19 1 4 3 -2 6 -13 5 -11 0 -14 -3 -6 -6z"/>
<path d="M1555 5100 c-3 -5 -1 -10 5 -10 6 0 8 -5 4 -12 -5 -8 -2 -9 10 -5 10
4 19 7 22 7 2 0 1 7 -2 15 -7 17 -30 20 -39 5z"/>
<path d="M1398 5068 c-8 -22 2 -36 23 -31 12 3 19 12 17 22 -4 20 -34 27 -40
9z"/>
<path d="M1597 5049 c-4 -16 -2 -17 14 -8 23 12 23 15 5 22 -8 3 -16 -2 -19
-14z"/>
<path d="M1003 5013 c4 -3 -3 -22 -15 -41 -17 -28 -18 -36 -7 -43 8 -5 20 -9
27 -9 19 0 77 -60 77 -79 0 -21 -25 -40 -44 -33 -11 4 -13 -2 -8 -29 3 -19 3
-28 0 -21 -2 6 -11 12 -19 12 -8 0 -14 7 -14 16 0 8 5 12 10 9 6 -3 10 -3 11
2 0 4 2 17 3 29 2 17 -3 21 -26 22 -22 0 -28 -3 -26 -16 4 -24 -10 -42 -33
-42 -10 0 -19 -6 -19 -12 0 -7 -8 1 -18 17 -19 31 -20 31 -109 26 -7 -1 -13
-6 -13 -11 0 -19 -45 -79 -62 -83 -9 -3 -19 2 -22 10 -5 12 -9 13 -21 3 -10
-9 -15 -9 -15 -1 0 6 -8 11 -17 11 -15 0 -16 -2 -3 -10 10 -6 11 -10 3 -10 -7
0 -13 -7 -13 -15 0 -16 39 -56 49 -50 4 2 12 0 19 -4 9 -6 8 -12 -5 -27 -14
-16 -29 -20 -73 -18 -68 2 -69 2 -47 15 9 5 17 17 17 25 0 9 5 12 12 8 7 -5 8
-3 4 5 -5 7 -14 10 -22 7 -8 -3 -14 0 -14 6 0 6 -10 2 -22 -9 -13 -11 -31 -23
-41 -26 -14 -5 -16 -11 -9 -24 6 -10 6 -29 1 -47 -15 -52 -12 -59 19 -51 15 4
41 9 57 10 17 2 33 3 36 4 3 0 13 17 22 37 10 19 21 33 26 30 4 -3 22 -1 39 4
20 5 34 5 38 -1 3 -5 10 -7 15 -3 5 3 7 9 4 14 -5 8 19 22 45 25 27 3 102 56
107 75 4 15 13 17 65 12 56 -4 62 -3 84 23 13 16 24 33 24 38 0 6 3 8 6 4 8
-8 34 18 34 33 0 6 5 8 10 5 6 -3 11 4 11 17 1 13 3 33 4 46 3 25 -5 28 -24
10 -11 -11 -12 -10 -6 1 6 11 4 13 -8 8 -16 -6 -47 30 -51 61 -3 16 -33 42
-50 42 -5 0 -6 -3 -3 -7z m-262 -310 c-19 -4 -21 -7 -10 -14 12 -7 11 -9 -2
-9 -9 0 -19 6 -22 13 -3 9 5 13 27 14 23 0 25 -1 7 -4z m-186 -151 c-3 -3 -11
0 -18 7 -9 10 -8 11 6 5 10 -3 15 -9 12 -12z"/>
<path d="M1156 5004 c-8 -22 11 -44 31 -37 11 4 14 2 9 -5 -4 -7 -2 -12 3 -12
6 0 11 7 11 15 0 8 -7 15 -15 15 -8 0 -14 3 -14 8 5 32 -14 44 -25 16z"/>
<path d="M1460 5000 c0 -5 5 -10 11 -10 5 0 7 5 4 10 -3 6 -8 10 -11 10 -2 0
-4 -4 -4 -10z"/>
<path d="M1215 4943 c-4 -18 -1 -31 11 -42 14 -13 15 -13 9 -1 -6 11 -4 11 11
-2 21 -18 37 -13 47 15 9 23 -14 32 -45 17 -20 -10 -21 -9 -6 3 15 12 15 14
-2 25 -15 9 -19 7 -25 -15z"/>
<path d="M1326 4953 c-12 -13 -5 -43 12 -52 18 -10 42 2 42 20 0 11 -47 39
-54 32z"/>
<path d="M720 4822 c0 -14 6 -22 16 -22 14 0 15 3 3 18 -7 9 -15 19 -16 21 -2
2 -3 -5 -3 -17z"/>
<path d="M105 4771 c3 -2 1 -9 -4 -15 -4 -6 -11 -20 -14 -31 -6 -17 -4 -17 13
4 17 20 20 21 20 5 0 -23 10 -12 15 18 4 18 0 24 -15 24 -10 0 -17 -2 -15 -5z"/>
<path d="M225 4690 c-3 -5 -1 -10 4 -10 6 0 11 5 11 10 0 6 -2 10 -4 10 -3 0
-8 -4 -11 -10z"/>
<path d="M895 4690 c-4 -6 3 -10 14 -10 25 0 27 6 6 13 -8 4 -17 2 -20 -3z"/>
<path d="M250 4625 c0 -7 6 -18 14 -24 11 -9 14 -7 14 12 0 13 -6 24 -14 24
-8 0 -14 -6 -14 -12z"/>
<path d="M210 4556 c0 -2 7 -7 16 -10 8 -3 12 -2 9 4 -6 10 -25 14 -25 6z"/>
<path d="M440 4489 c0 -5 5 -7 10 -4 6 3 10 8 10 11 0 2 -4 4 -10 4 -5 0 -10
-5 -10 -11z"/>
<path d="M155 4460 c-3 -5 1 -10 9 -10 9 0 16 5 16 10 0 6 -4 10 -9 10 -6 0
-13 -4 -16 -10z"/>
<path d="M10143 4133 c15 -2 39 -2 55 0 15 2 2 4 -28 4 -30 0 -43 -2 -27 -4z"/>
<path d="M10348 4023 c6 -2 18 -2 25 0 6 3 1 5 -13 5 -14 0 -19 -2 -12 -5z"/>
<path d="M10730 3910 l-55 -7 58 -1 c32 -1 57 2 57 8 0 6 -1 9 -2 8 -2 -1 -28
-4 -58 -8z"/>
</g>
</svg>
