<?xml version="1.0" standalone="no"?>
<!DOCTYPE svg PUBLIC "-//W3C//DTD SVG 20010904//EN"
 "http://www.w3.org/TR/2001/REC-SVG-20010904/DTD/svg10.dtd">
<svg version="1.0" xmlns="http://www.w3.org/2000/svg"
 width="1080.000000pt" height="1080.000000pt" viewBox="0 0 1080.000000 1080.000000"
 preserveAspectRatio="xMidYMid meet">

<g transform="translate(0.000000,1080.000000) scale(0.100000,-0.100000)"
fill="#000000" stroke="none">
<path d="M4325 10774 c-11 -13 -29 -30 -41 -37 -72 -43 -84 -53 -84 -75 0 -12
-7 -25 -15 -28 -19 -8 -19 -38 -1 -53 20 -17 17 -127 -3 -123 -22 5 -71 -19
-71 -34 0 -7 -10 -14 -22 -16 -24 -3 -24 1 -17 -118 1 -25 0 -117 -3 -205 -6
-156 1 -203 26 -206 6 -1 18 -2 26 -3 9 0 15 -11 15 -26 0 -16 7 -26 18 -28
24 -5 16 -26 -11 -30 -17 -3 -22 2 -22 17 0 12 -6 21 -15 21 -8 0 -15 -8 -15
-17 0 -23 88 -67 113 -58 13 6 17 2 17 -14 0 -22 6 -24 51 -21 16 1 29 -5 33
-15 9 -25 -1 -35 -37 -36 -30 -1 -30 -2 -7 -8 14 -4 31 -19 40 -33 13 -25 13
-29 -7 -50 -12 -13 -26 -36 -32 -51 -9 -22 -15 -27 -31 -22 -19 6 -30 -10 -11
-17 5 -1 13 -15 16 -30 7 -26 5 -28 -24 -28 -17 0 -31 -2 -31 -5 0 -12 24 -55
32 -55 4 0 8 -11 8 -25 0 -14 8 -29 20 -35 11 -6 20 -20 20 -31 0 -16 4 -19
23 -14 12 4 28 14 35 23 11 14 12 14 12 -1 0 -9 -4 -17 -10 -17 -5 0 -10 -9
-10 -19 0 -13 -8 -21 -22 -23 -26 -3 -38 -46 -17 -58 6 -5 9 -15 6 -24 -6 -15
-9 -14 -27 4 -22 22 -40 26 -40 10 0 -5 5 -10 10 -10 6 0 10 -9 10 -20 0 -26
27 -37 51 -22 10 7 20 8 24 2 3 -5 1 -11 -5 -15 -5 -3 -10 -14 -10 -24 0 -21
27 -78 41 -86 14 -9 11 -25 -6 -25 -8 0 -15 5 -15 10 0 18 -35 10 -48 -11 -15
-23 -5 -40 48 -86 25 -23 25 -23 3 -23 -13 0 -23 5 -23 11 0 14 -41 48 -58 49
-18 0 -26 28 -13 43 6 8 7 24 2 43 -7 24 -10 26 -16 12 -4 -10 -11 -18 -15
-18 -6 0 -21 127 -20 186 0 12 -7 27 -15 34 -9 7 -15 29 -15 51 0 39 -13 52
-23 25 -5 -12 -12 -12 -43 -1 -21 7 -43 21 -51 31 -7 10 -13 14 -14 8 0 -5 -2
-55 -4 -110 -2 -59 -9 -110 -16 -122 -10 -16 -10 -31 0 -79 7 -32 17 -70 23
-84 5 -14 6 -38 2 -53 -7 -29 -6 -31 45 -141 61 -128 66 -137 101 -166 23 -19
46 -29 67 -29 35 0 38 5 34 67 -3 38 14 73 34 73 20 0 19 13 -6 44 -18 23 -19
27 -4 32 9 4 21 2 28 -5 6 -6 21 -11 34 -11 12 0 31 -10 43 -22 11 -12 23 -18
27 -14 5 4 0 14 -10 21 -21 15 -36 85 -18 85 26 0 52 -22 71 -60 l20 -39 -27
-18 c-39 -26 -79 -65 -86 -85 -9 -26 -27 -22 -27 6 0 52 -42 39 -55 -16 -6
-22 -4 -28 9 -28 9 0 16 -6 16 -13 0 -7 9 -20 20 -30 19 -16 21 -16 41 4 15
15 18 24 9 33 -8 10 -6 15 10 19 29 7 53 -28 37 -55 -7 -10 -22 -21 -34 -24
-13 -4 -23 -10 -23 -14 0 -4 -11 -11 -25 -14 -28 -7 -34 -36 -10 -56 12 -10
12 -14 1 -26 -9 -9 -14 -39 -15 -88 -1 -65 2 -74 19 -79 14 -3 20 -14 20 -31
0 -15 7 -29 15 -32 12 -5 13 -9 4 -20 -17 -21 -8 -24 34 -11 26 8 37 18 37 31
0 11 7 28 16 38 14 14 14 20 4 33 -10 12 -8 25 10 68 12 28 29 56 36 60 19 11
18 36 -1 43 -21 9 -19 18 15 54 30 32 34 54 6 31 -10 -8 -21 -9 -32 -3 -14 8
-12 12 14 30 27 20 31 20 43 6 12 -14 15 -14 31 6 24 30 23 60 -2 60 -11 0
-20 7 -20 15 0 7 -8 19 -17 25 -14 8 -10 9 20 4 36 -6 37 -5 37 23 0 16 -5 34
-11 40 -16 16 -1 53 22 53 10 0 19 7 19 15 0 8 -8 15 -17 15 -10 0 -25 5 -33
10 -13 9 -13 12 3 24 16 12 16 16 2 48 -8 20 -21 38 -30 42 -11 4 -15 15 -13
33 4 37 35 43 44 9 3 -13 14 -32 25 -42 10 -9 19 -30 19 -46 0 -46 60 -88 74
-52 9 24 7 41 -3 25 -11 -17 -41 -7 -41 13 0 9 9 20 19 26 13 6 17 17 14 30
-4 14 0 20 10 20 10 0 17 -11 19 -27 4 -39 33 -32 82 18 44 45 65 48 106 17
36 -26 42 -68 10 -68 -18 0 -19 -2 -8 -20 20 -32 54 -26 62 11 7 35 26 30 26
-7 0 -13 5 -24 10 -24 6 0 10 -7 10 -15 0 -17 -16 -20 -25 -4 -5 6 -13 2 -23
-12 -13 -20 -13 -22 2 -31 17 -10 23 -58 6 -58 -18 0 -11 -35 10 -48 23 -14
26 -32 6 -32 -23 0 -29 -19 -13 -38 7 -9 17 -25 21 -36 5 -14 10 -16 19 -8 7
6 23 9 35 5 22 -5 31 10 12 22 -16 10 -12 22 11 28 18 5 19 9 9 27 -12 22 -7
50 8 50 5 0 14 -10 19 -22 10 -21 11 -22 18 -4 5 11 2 29 -9 47 -16 27 -16 28
4 39 11 6 20 21 20 33 0 21 39 67 56 67 5 0 15 4 22 9 12 7 12 12 0 31 -12 20
-11 24 10 37 15 11 22 25 22 49 0 42 30 63 54 38 22 -21 50 -14 54 14 4 23 17
29 27 11 5 -6 13 -3 22 10 8 12 21 21 29 21 12 0 14 -9 8 -45 -4 -30 -3 -45 5
-45 6 0 11 9 11 20 0 28 27 36 49 16 10 -9 26 -16 36 -16 10 0 34 -10 54 -22
61 -37 66 -56 19 -77 -24 -11 -33 -11 -36 -3 -2 7 -11 12 -20 12 -13 0 -11 -4
6 -20 12 -12 22 -26 22 -32 0 -9 3 -9 12 0 17 17 28 15 28 -4 0 -18 -17 -37
-42 -47 -28 -10 -21 -22 20 -36 40 -15 52 -27 52 -53 0 -10 10 -28 22 -40 19
-19 20 -22 5 -33 -23 -16 -21 -32 3 -40 15 -5 18 -11 11 -22 -10 -18 -3 -53
10 -53 5 0 9 -13 9 -29 0 -36 35 -98 60 -106 10 -3 20 -15 23 -26 3 -12 13
-20 24 -19 30 4 36 1 24 -13 -8 -10 -7 -21 2 -40 14 -32 29 -30 38 4 l7 24 7
-22 c4 -13 11 -23 16 -23 14 0 79 -67 79 -81 0 -7 -10 -9 -24 -7 -20 4 -25 0
-29 -21 -3 -14 -1 -30 4 -35 6 -6 9 -6 9 1 0 7 12 18 28 25 23 11 28 22 34 68
10 74 3 93 -23 61 -16 -19 -20 -20 -25 -7 -8 20 3 36 26 36 23 0 35 29 15 37
-12 4 -15 18 -12 58 3 45 1 54 -14 58 -25 7 -24 34 0 47 14 7 27 7 46 -2 l25
-11 -1 -131 c0 -72 2 -178 5 -235 4 -78 2 -101 -6 -93 -23 23 -41 14 -34 -18
4 -22 2 -30 -9 -30 -20 0 -19 -26 1 -34 8 -3 14 -14 12 -23 -2 -10 3 -23 12
-30 13 -10 13 -15 2 -33 -14 -24 -8 -51 26 -115 23 -45 120 -174 166 -223 47
-49 79 -69 211 -127 35 -15 123 -55 199 -90 30 -14 58 -25 61 -25 4 0 21 -6
38 -14 18 -7 70 -28 117 -46 47 -18 94 -36 105 -41 79 -32 101 -39 132 -39 31
0 33 2 23 20 -8 15 -17 19 -31 15 -23 -7 -25 7 -4 25 12 10 18 10 30 0 26 -21
41 3 18 28 -10 11 -31 34 -47 51 -44 49 -96 66 -218 70 -37 1 -118 73 -142
124 -12 27 -20 73 -23 132 -5 105 -25 176 -62 224 -26 35 -51 76 -72 121 -7
15 -11 76 -10 158 1 152 -14 213 -70 285 -34 44 -108 99 -149 112 -45 14 -118
54 -122 67 -4 10 -10 10 -32 0 -43 -20 -48 -5 -10 36 40 44 66 94 89 177 10
33 21 68 26 77 12 23 12 65 0 73 -5 3 -8 45 -7 94 2 80 1 90 -16 94 -11 3 -18
14 -18 29 0 12 -4 29 -9 37 -7 11 -13 9 -30 -8 -17 -17 -21 -33 -21 -90 0 -50
-4 -72 -16 -82 -13 -10 -17 -10 -25 2 -5 8 -9 22 -9 31 0 58 -42 67 -56 11
-12 -48 -29 -52 -50 -12 -13 26 -14 37 -5 52 8 12 9 23 2 30 -6 8 -5 19 5 31
15 22 19 76 5 76 -5 0 -11 -7 -15 -15 -7 -19 -36 -20 -36 0 0 7 8 18 18 24 15
9 14 11 -9 20 -39 14 -50 61 -15 61 6 0 27 15 45 34 l32 33 -22 44 c-12 24
-33 56 -47 71 -22 24 -23 28 -9 34 26 9 21 36 -5 34 -13 -1 -38 -2 -55 -1 -29
1 -33 5 -33 27 0 17 6 28 20 31 15 4 20 14 20 38 0 43 24 65 40 35 16 -30 27
-17 28 35 2 70 18 85 39 38 9 -17 9 -30 3 -38 -13 -16 -1 -75 16 -75 15 0 27
31 19 52 -3 8 1 20 9 27 11 9 13 19 5 38 -10 28 -5 43 16 43 26 0 26 20 1 30
-17 6 -24 15 -20 24 6 15 27 12 53 -8 10 -8 18 -4 33 14 15 19 18 33 14 65
-19 126 -27 197 -27 259 0 44 -5 76 -14 90 -20 28 -20 105 1 120 13 10 13 16
3 38 -9 21 -9 33 1 57 16 39 7 69 -15 51 -9 -7 -19 -9 -23 -5 -4 4 -1 10 6 12
17 7 15 30 -4 37 -9 4 -23 -2 -32 -14 -16 -19 -19 -19 -49 -4 -44 22 -42 40 5
49 20 4 30 10 22 12 -8 3 -22 15 -31 26 -18 22 -39 16 -39 -13 0 -24 -31 -35
-43 -15 -6 11 -17 15 -31 11 -18 -4 -28 2 -49 35 -15 22 -27 44 -27 48 0 5
-11 20 -25 35 -23 25 -29 26 -120 26 -52 0 -95 -3 -95 -7 0 -5 12 -19 25 -32
26 -24 49 -68 59 -112 11 -49 -7 -39 -37 21 -16 33 -38 65 -48 71 -11 5 -19
20 -19 34 0 21 -5 25 -28 25 -19 0 -30 -7 -37 -22 -12 -27 -45 -37 -45 -14 0
9 -7 16 -15 16 -8 0 -15 5 -15 10 0 6 -7 10 -15 10 -8 0 -15 -4 -15 -10 0 -5
-11 -10 -25 -10 -14 0 -25 5 -25 10 0 15 -627 14 -632 -1 -2 -6 -17 -11 -33
-11 -16 0 -31 5 -33 11 -7 21 -31 11 -34 -15 -2 -15 -13 -33 -25 -41 -21 -14
-22 -13 -33 27 -9 35 -13 40 -23 27 -21 -27 -54 -30 -76 -8 -35 35 -52 27 -45
-19 4 -22 4 -40 1 -40 -3 0 -24 18 -46 40 -22 22 -44 40 -48 40 -4 -1 -17 -12
-28 -26z m815 -9 c0 -8 -7 -15 -16 -15 -14 0 -14 3 -4 15 7 8 14 15 16 15 2 0
4 -7 4 -15z m-760 -36 c0 -11 -27 -12 -34 0 -3 4 -3 11 0 14 8 8 34 -3 34 -14z
m190 -14 c12 -4 20 -15 20 -29 0 -32 -11 -39 -32 -19 -17 15 -18 15 -18 -3 -1
-10 -12 -32 -25 -49 -21 -25 -25 -27 -31 -12 -4 11 0 25 11 37 9 10 18 38 20
62 2 24 4 44 4 46 1 2 8 -3 16 -12 8 -8 24 -18 35 -21z m-150 -15 c0 -5 -4
-10 -10 -10 -5 0 -10 5 -10 10 0 6 5 10 10 10 6 0 10 -4 10 -10z m470 -32 c0
-16 -3 -19 -11 -11 -6 6 -8 16 -5 22 11 17 16 13 16 -11z m650 1 c0 -5 -4 -9
-10 -9 -5 0 -10 7 -10 16 0 8 5 12 10 9 6 -3 10 -10 10 -16z m-509 -32 c-6 -6
-11 -28 -11 -49 0 -31 -4 -40 -24 -48 -34 -12 -65 -2 -72 25 -9 36 -1 59 21
64 11 2 33 14 50 27 26 20 31 21 38 8 6 -10 5 -20 -2 -27z m177 21 c16 -16 15
-28 -3 -28 -9 0 -33 -9 -55 -20 -48 -25 -60 -25 -60 -2 1 20 56 60 86 61 11 1
25 -4 32 -11z m824 -99 c23 -22 53 -45 66 -50 22 -8 39 -35 30 -45 -3 -3 -27
6 -52 20 -45 24 -86 64 -86 84 0 5 -10 14 -22 20 l-23 11 22 0 c12 1 40 -17
65 -40z m-1617 12 c3 -6 -3 -15 -14 -21 -21 -11 -37 2 -26 20 8 13 32 13 40 1z
m-81 -47 c4 -9 5 -18 4 -18 -42 -25 -63 -44 -79 -71 -23 -38 -49 -38 -49 0 0
16 16 36 51 64 58 46 64 48 73 25z m821 -7 c-10 -16 -32 -27 -66 -35 -64 -15
-69 -15 -69 2 0 23 55 51 105 54 l46 3 -16 -24z m310 -8 c0 -7 -8 -15 -17 -17
-18 -3 -25 18 -11 32 10 10 28 1 28 -15z m90 -42 c-10 -5 -29 -21 -40 -33 -12
-13 -25 -21 -29 -17 -7 7 16 46 48 81 l21 23 9 -21 c8 -18 6 -24 -9 -33z
m-749 6 c-10 -10 -19 5 -10 18 6 11 8 11 12 0 2 -7 1 -15 -2 -18z m-446 7 c0
-5 -4 -10 -10 -10 -5 0 -10 5 -10 10 0 6 5 10 10 10 6 0 10 -4 10 -10z m220
-30 c0 -5 -2 -10 -4 -10 -3 0 -8 5 -11 10 -3 6 -1 10 4 10 6 0 11 -4 11 -10z
m200 -65 c0 -44 -4 -56 -20 -65 -23 -12 -30 -3 -28 40 0 14 -3 35 -7 47 -7 21
-6 22 48 32 4 0 7 -24 7 -54z m1227 13 c-3 -7 -5 -2 -5 12 0 14 2 19 5 13 2
-7 2 -19 0 -25z m-1861 -12 c-8 -32 11 -44 30 -20 14 18 14 18 29 0 20 -27 19
-36 -5 -36 -11 0 -25 -9 -32 -20 -13 -20 -33 -26 -41 -12 -3 4 -8 31 -12 60
-6 49 -6 52 15 52 18 0 21 -4 16 -24z m804 4 c0 -5 -2 -10 -4 -10 -3 0 -8 5
-11 10 -3 6 -1 10 4 10 6 0 11 -4 11 -10z m-477 -15 c8 -18 -11 -31 -25 -17
-11 11 -3 32 12 32 4 0 10 -7 13 -15z m1117 -32 c0 -19 -3 -24 -10 -17 -6 6
-8 18 -4 27 9 24 14 21 14 -10z m230 20 c0 -5 -5 -15 -10 -23 -8 -12 -10 -11
-10 8 0 12 5 22 10 22 6 0 10 -3 10 -7z m157 -25 c-3 -8 -6 -5 -6 6 -1 11 2
17 5 13 3 -3 4 -12 1 -19z m-1650 -10 c-3 -8 -6 -5 -6 6 -1 11 2 17 5 13 3 -3
4 -12 1 -19z m63 6 c0 -8 -5 -12 -10 -9 -6 4 -8 11 -5 16 9 14 15 11 15 -7z
m473 -29 c-2 -7 -13 -11 -24 -8 -24 7 -24 12 -2 29 19 13 35 1 26 -21z m1212
15 c3 -5 1 -10 -4 -10 -6 0 -11 5 -11 10 0 6 2 10 4 10 3 0 8 -4 11 -10z
m-1795 -17 c0 -9 7 -25 16 -35 16 -16 15 -18 0 -24 -22 -8 -32 3 -39 44 -5 24
-3 32 8 32 8 0 15 -8 15 -17z m1383 -9 c11 -12 -13 -44 -33 -44 -17 0 -18 3
-8 25 11 24 28 32 41 19z m-429 -66 c4 -25 3 -45 -4 -52 -21 -21 -39 38 -24
78 11 27 21 18 28 -26z m626 28 c0 -2 -7 -9 -15 -16 -12 -10 -15 -10 -15 4 0
9 7 16 15 16 8 0 15 -2 15 -4z m-127 -43 c-4 -10 -9 -11 -19 -2 -11 9 -12 15
-3 26 14 17 31 -1 22 -24z m-573 -44 c0 -5 -7 -9 -15 -9 -9 0 -15 9 -15 21 0
18 2 19 15 9 8 -7 15 -16 15 -21z m223 11 c-3 -13 -14 -20 -29 -20 -26 0 -30
10 -12 28 20 20 47 15 41 -8z m37 -22 c0 -16 -3 -19 -11 -11 -6 6 -8 16 -5 22
11 17 16 13 16 -11z m72 -33 c2 -12 -3 -21 -14 -23 -13 -3 -18 3 -18 21 0 43
24 45 32 2z m-49 -42 c-7 -2 -19 -2 -25 0 -7 3 -2 5 12 5 14 0 19 -2 13 -5z
m737 -163 c0 -5 -4 -10 -10 -10 -5 0 -10 5 -10 10 0 6 5 10 10 10 6 0 10 -4
10 -10z m-528 -85 c0 -5 -5 -11 -11 -13 -6 -2 -11 4 -11 13 0 9 5 15 11 13 6
-2 11 -8 11 -13z m-1448 -1 c17 -7 22 -34 6 -34 -5 0 -10 6 -10 14 0 8 -6 17
-12 19 -7 3 -10 6 -6 6 3 1 13 -2 22 -5z m1526 -34 c0 -10 -9 -24 -20 -30 -24
-13 -27 0 -8 30 16 25 28 26 28 0z m140 -13 c0 -21 0 -21 -20 1 -11 12 -20 23
-20 26 0 2 9 2 20 -1 12 -3 20 -14 20 -26z m-62 -35 c3 -22 3 -23 -17 -5 -26
21 -27 36 -3 31 9 -2 18 -14 20 -26z m-1418 -72 c0 -11 -4 -20 -10 -20 -5 0
-10 9 -10 20 0 11 5 20 10 20 6 0 10 -9 10 -20z m1167 -12 c-3 -8 -6 -5 -6 6
-1 11 2 17 5 13 3 -3 4 -12 1 -19z m-1032 2 c3 -5 1 -10 -4 -10 -6 0 -11 5
-11 10 0 6 2 10 4 10 3 0 8 -4 11 -10z m-125 -60 c0 -5 -6 -10 -14 -10 -8 0
-18 5 -21 10 -3 6 3 10 14 10 12 0 21 -4 21 -10z m-96 -79 c8 -13 -4 -42 -15
-35 -12 7 -12 44 0 44 6 0 12 -4 15 -9z m104 -65 c3 -15 1 -16 -17 -6 -12 6
-19 16 -15 21 9 15 28 5 32 -15z m1250 -138 c-3 -7 -11 -13 -18 -13 -7 0 -15
6 -17 13 -3 7 4 12 17 12 13 0 20 -5 18 -12z m52 -37 c14 -28 13 -31 -15 -31
-18 0 -25 5 -25 18 0 35 24 43 40 13z m-146 -6 c3 -9 0 -15 -9 -15 -9 0 -12 6
-9 15 4 8 7 15 9 15 2 0 5 -7 9 -15z m-1187 -41 c-3 -3 -12 -4 -19 -1 -8 3 -5
6 6 6 11 1 17 -2 13 -5z m1445 -24 c-2 -16 -8 -30 -13 -30 -5 0 -9 14 -9 30 0
18 5 30 13 30 9 0 12 -10 9 -30z m-62 -14 c0 -25 -17 -46 -37 -46 -7 0 -13 11
-13 25 0 16 -6 25 -15 25 -8 0 -15 5 -15 11 0 7 10 9 24 5 14 -3 28 -1 31 4
10 16 25 1 25 -24z m-1173 7 c4 -11 0 -21 -11 -27 -54 -33 -66 -47 -54 -66 15
-24 2 -38 -20 -22 -9 7 -25 15 -34 18 -10 4 -18 13 -18 20 0 8 -7 14 -15 14
-8 0 -15 -6 -15 -14 0 -8 7 -16 15 -20 8 -3 15 -17 15 -31 0 -37 -27 -32 -70
15 -20 22 -33 40 -28 40 5 0 13 11 18 25 5 14 16 25 24 25 7 0 19 7 26 15 8
10 17 11 31 5 10 -6 28 -14 39 -20 27 -14 40 -12 40 5 0 13 25 34 43 35 4 0
11 -8 14 -17z m783 -29 c0 -8 -4 -12 -10 -9 -5 3 -10 13 -10 21 0 8 5 12 10 9
6 -3 10 -13 10 -21z m288 -11 c-13 -14 -24 -19 -26 -13 -5 15 28 51 40 44 5
-3 -1 -17 -14 -31z m-983 17 c-3 -5 -10 -10 -16 -10 -5 0 -9 5 -9 10 0 6 7 10
16 10 8 0 12 -4 9 -10z m1308 -20 c-3 -11 -7 -20 -9 -20 -2 0 -4 9 -4 20 0 11
4 20 9 20 5 0 7 -9 4 -20z m-1343 -5 c0 -8 -6 -15 -14 -15 -20 0 -29 17 -14
23 22 9 28 7 28 -8z m149 -12 c-8 -9 -16 -10 -22 -4 -13 13 0 31 19 24 11 -4
12 -8 3 -20z m624 10 c-7 -2 -19 -2 -25 0 -7 3 -2 5 12 5 14 0 19 -2 13 -5z
m-690 -32 c15 -8 27 -20 27 -28 0 -7 -2 -13 -4 -13 -2 0 -11 -3 -20 -6 -11 -4
-19 2 -26 20 -5 14 -17 26 -27 26 -15 0 -16 2 -3 10 8 5 17 8 20 7 3 -1 17 -9
33 -16z m618 -4 c-13 -13 -26 -3 -16 12 3 6 11 8 17 5 6 -4 6 -10 -1 -17z
m359 13 c0 -5 -5 -10 -11 -10 -5 0 -7 5 -4 10 3 6 8 10 11 10 2 0 4 -4 4 -10z
m-1110 -25 c12 -31 35 -42 54 -25 11 8 20 9 35 0 32 -16 24 -42 -16 -54 -13
-4 -23 -12 -23 -17 0 -16 -36 -10 -58 11 -23 22 -23 24 -26 77 -1 40 20 44 34
8z m899 6 c28 -22 21 -47 -10 -31 -10 6 -19 17 -19 25 0 7 -6 16 -12 18 -9 4
-8 6 2 6 8 0 26 -8 39 -18z m295 3 c3 -8 2 -12 -4 -9 -6 3 -10 10 -10 16 0 14
7 11 14 -7z m-474 -20 c0 -8 -5 -12 -10 -9 -6 4 -8 11 -5 16 9 14 15 11 15 -7z
m363 -8 c7 -18 -1 -26 -25 -26 -18 0 -25 20 -11 33 11 12 31 8 36 -7z m87 -16
c0 -5 -4 -10 -10 -10 -5 0 -10 5 -10 10 0 6 5 10 10 10 6 0 10 -4 10 -10z
m-1250 -34 c0 -13 -7 -29 -16 -37 -14 -12 -13 -14 7 -21 17 -6 25 -5 32 7 4 8
13 13 18 9 5 -3 -7 -22 -27 -42 -32 -32 -37 -34 -45 -19 -6 9 -17 17 -24 17
-17 0 -20 16 -5 25 6 3 10 18 10 32 0 28 27 66 41 57 5 -3 9 -16 9 -28z m295
4 c0 -8 -10 -16 -22 -18 -22 -3 -32 16 -16 32 12 11 38 2 38 -14z m535 5 c0
-8 -4 -15 -10 -15 -5 0 -10 7 -10 15 0 8 5 15 10 15 6 0 10 -7 10 -15z m174 9
c25 -9 19 -24 -9 -24 -16 0 -25 6 -25 15 0 16 9 19 34 9z m-780 -40 c9 -3 16
-15 16 -26 0 -17 -3 -18 -14 -9 -16 13 -56 -1 -56 -19 0 -6 -9 -10 -20 -10
-30 0 -24 13 15 34 19 11 35 23 35 28 0 10 3 10 24 2z m-344 -24 c0 -5 -4 -10
-10 -10 -5 0 -10 5 -10 10 0 6 5 10 10 10 6 0 10 -4 10 -10z m1647 -42 c-3 -7
-5 -2 -5 12 0 14 2 19 5 13 2 -7 2 -19 0 -25z m-1614 -8 c-3 -11 -9 -20 -14
-20 -10 0 -12 33 -3 43 12 12 22 -3 17 -23z m377 -10 c0 -5 -4 -10 -10 -10 -5
0 -10 -7 -10 -15 0 -20 -16 -19 -24 1 -10 27 -7 34 19 34 14 0 25 -4 25 -10z
m900 0 c0 -5 -5 -10 -11 -10 -5 0 -7 5 -4 10 3 6 8 10 11 10 2 0 4 -4 4 -10z
m-1227 -39 c7 -28 -3 -34 -25 -14 -23 21 -23 33 1 33 10 0 21 -9 24 -19z
m1402 -31 c3 -5 15 -10 26 -10 11 0 29 -9 40 -19 22 -20 18 -41 -6 -41 -8 0
-23 -10 -35 -22 l-20 -22 0 36 c0 25 -6 40 -22 50 -12 8 -18 19 -14 26 9 15
23 15 31 2z m-1619 -45 c10 -25 -7 -40 -23 -20 -7 11 -13 22 -13 27 0 14 30 9
36 -7z m1454 -34 c0 -3 -4 -12 -9 -19 -6 -10 -12 -7 -24 11 -15 23 -15 24 9
19 13 -2 24 -7 24 -11z m155 -33 c27 -68 46 -72 74 -13 24 51 37 56 52 19 10
-29 -4 -90 -23 -96 -12 -4 21 -108 34 -108 5 0 8 -4 8 -8 0 -4 -16 -8 -35 -8
-37 0 -43 12 -25 47 7 13 7 19 0 19 -5 0 -10 -7 -10 -15 0 -8 -4 -15 -9 -15
-17 0 -23 20 -11 35 9 11 6 20 -17 42 -16 15 -40 36 -53 45 -24 17 -24 18 -7
29 18 10 18 12 -2 30 -23 22 -28 49 -8 49 6 0 21 -24 32 -52z m-1535 32 c0 -5
-2 -10 -4 -10 -3 0 -8 5 -11 10 -3 6 -1 10 4 10 6 0 11 -4 11 -10z m-70 -74
c0 -41 -15 -56 -24 -23 -10 37 -7 57 9 57 10 0 15 -10 15 -34z m810 7 c0 -3
-7 -15 -17 -25 -17 -19 -53 -25 -53 -8 0 6 5 10 11 10 6 0 17 7 25 15 16 16
34 20 34 8z m957 -70 c3 -7 -3 -9 -16 -6 -12 3 -21 10 -21 15 0 13 32 6 37 -9z
m-182 -53 c-5 -8 -11 -8 -17 -2 -6 6 -7 16 -3 22 5 8 11 8 17 2 6 -6 7 -16 3
-22z m-55 -36 c0 -15 -6 -24 -16 -24 -11 0 -14 5 -10 16 3 9 6 22 6 30 0 9 5
12 10 9 6 -3 10 -17 10 -31z m335 5 c-8 -12 -35 -12 -35 0 0 11 22 20 33 14 4
-2 5 -9 2 -14z m-301 -128 c8 -12 -3 -41 -15 -41 -5 0 -9 7 -9 15 0 8 -4 15
-10 15 -5 0 -10 5 -10 10 0 12 37 13 44 1z m-1424 -21 c19 -19 27 -40 15 -40
-9 0 -45 40 -45 50 0 15 8 12 30 -10z m1560 -35 c0 -8 -9 -15 -20 -15 -11 0
-20 7 -20 15 0 8 9 15 20 15 11 0 20 -7 20 -15z m130 -410 c0 -16 -6 -25 -15
-25 -18 0 -19 16 -2 35 16 19 17 19 17 -10z"/>
<path d="M5870 10782 c0 -38 110 -106 133 -83 8 8 8 11 -1 11 -7 0 -33 20 -58
45 -47 47 -74 57 -74 27z"/>
<path d="M6180 9841 c0 -12 6 -21 16 -21 9 0 14 7 12 17 -5 25 -28 28 -28 4z"/>
<path d="M4148 9674 c3 -19 7 -22 13 -12 13 20 11 38 -5 38 -9 0 -12 -8 -8
-26z"/>
<path d="M4146 9624 c-4 -10 -2 -22 3 -27 7 -7 13 -5 17 7 4 10 2 22 -3 27 -7
7 -13 5 -17 -7z"/>
<path d="M4120 9459 c0 -11 5 -17 10 -14 6 3 10 13 10 21 0 8 -4 14 -10 14 -5
0 -10 -9 -10 -21z"/>
<path d="M6187 9426 c-3 -8 -2 -18 3 -21 13 -8 24 15 12 27 -6 6 -11 4 -15 -6z"/>
<path d="M6160 9339 c0 -6 -13 -28 -30 -49 -31 -39 -37 -71 -20 -114 16 -43
34 -30 56 39 19 63 21 135 3 135 -5 0 -9 -5 -9 -11z"/>
<path d="M6216 9292 c-6 -41 0 -72 14 -72 4 0 10 19 14 42 5 30 3 46 -7 55
-12 12 -15 9 -21 -25z"/>
<path d="M5580 8944 c0 -8 5 -12 10 -9 6 4 8 11 5 16 -9 14 -15 11 -15 -7z"/>
<path d="M5346 8942 c-3 -6 -1 -14 5 -17 15 -10 25 3 12 16 -7 7 -13 7 -17 1z"/>
<path d="M5277 8894 c-4 -4 0 -15 9 -25 14 -15 13 -18 -6 -32 -17 -12 -20 -19
-12 -32 9 -17 10 -17 28 1 24 24 26 87 4 92 -9 1 -19 0 -23 -4z"/>
<path d="M4820 8810 c0 -5 10 -10 23 -10 18 0 19 2 7 10 -19 13 -30 13 -30 0z"/>
<path d="M5401 8803 c0 -5 4 -17 9 -28 8 -18 9 -17 9 8 1 15 -3 27 -9 27 -5 0
-10 -3 -9 -7z"/>
<path d="M5205 8790 c-9 -15 4 -30 26 -30 22 0 24 11 7 28 -15 15 -25 15 -33
2z"/>
<path d="M5303 8764 c-3 -8 1 -22 9 -30 13 -13 16 -13 27 0 7 9 11 23 7 31 -7
20 -35 19 -43 -1z"/>
<path d="M5430 8740 c0 -5 7 -10 15 -10 8 0 15 5 15 10 0 6 -7 10 -15 10 -8 0
-15 -4 -15 -10z"/>
<path d="M5520 8740 c0 -5 -9 -10 -20 -10 -22 0 -27 -15 -9 -25 6 -4 19 2 30
14 21 23 24 31 9 31 -5 0 -10 -4 -10 -10z"/>
<path d="M4935 8720 c-8 -13 9 -20 24 -11 10 6 9 10 -3 14 -8 3 -18 2 -21 -3z"/>
<path d="M4680 8685 c0 -8 5 -15 10 -15 6 0 10 7 10 15 0 8 -4 15 -10 15 -5 0
-10 -7 -10 -15z"/>
<path d="M5190 8690 c0 -5 5 -10 10 -10 6 0 10 -9 10 -20 0 -13 7 -20 19 -20
10 0 21 9 24 20 3 13 14 20 28 20 16 0 20 3 13 10 -8 8 -19 7 -38 -1 -22 -10
-32 -10 -47 -1 -11 7 -19 8 -19 2z"/>
<path d="M5350 8689 c0 -16 27 -46 35 -38 2 2 -5 15 -15 29 -15 19 -20 21 -20
9z"/>
<path d="M5428 8650 c-19 -33 -15 -35 41 -24 l31 7 -25 23 c-15 13 -27 24 -28
24 -1 0 -10 -14 -19 -30z"/>
<path d="M5630 8671 c0 -11 35 -51 45 -51 3 0 5 11 5 25 0 14 -4 25 -9 25 -5
0 -16 3 -25 6 -9 3 -16 1 -16 -5z"/>
<path d="M4872 8659 c2 -6 8 -10 13 -10 5 0 11 4 13 10 2 6 -4 11 -13 11 -9 0
-15 -5 -13 -11z"/>
<path d="M5316 8615 c4 -18 2 -25 -9 -25 -8 0 -17 9 -20 20 -3 13 -14 20 -30
20 -35 0 -43 -28 -12 -42 15 -7 25 -20 25 -32 0 -12 4 -16 8 -11 12 17 60 45
77 45 20 0 19 13 -3 33 -28 25 -43 21 -36 -8z"/>
<path d="M5136 8598 c-24 -24 -25 -29 -11 -35 10 -3 21 0 26 8 4 8 14 15 21
15 7 1 19 2 26 3 21 2 13 28 -11 33 -15 3 -31 -5 -51 -24z"/>
<path d="M5516 8595 c4 -8 8 -15 10 -15 2 0 4 7 4 15 0 8 -4 15 -10 15 -5 0
-7 -7 -4 -15z"/>
<path d="M4735 8520 c-3 -5 1 -10 10 -10 9 0 13 5 10 10 -3 6 -8 10 -10 10 -2
0 -7 -4 -10 -10z"/>
<path d="M5301 8514 c0 -11 3 -14 6 -6 3 7 2 16 -1 19 -3 4 -6 -2 -5 -13z"/>
<path d="M5550 8520 c0 -5 6 -10 14 -10 8 0 16 -6 19 -12 2 -7 7 -10 11 -7 8
7 -21 39 -35 39 -5 0 -9 -4 -9 -10z"/>
<path d="M4272 8502 c4 -21 38 -29 38 -9 0 8 -9 17 -21 20 -15 4 -19 1 -17
-11z"/>
<path d="M10549 8365 c-3 -2 -313 -11 -689 -19 -377 -9 -728 -18 -780 -22 -52
-4 -221 -6 -375 -5 -317 3 -362 -3 -413 -52 -66 -63 -67 -66 -69 -347 0 -140
3 -295 9 -345 10 -99 -3 -154 -42 -175 -10 -6 -35 -31 -55 -57 -35 -46 -44
-86 -26 -121 5 -9 14 -43 20 -75 13 -69 2 -99 -52 -140 -38 -29 -86 -134 -88
-190 -1 -45 -8 -59 -52 -97 -34 -29 -41 -32 -59 -21 -26 16 -35 7 -14 -14 9
-10 23 -29 30 -44 8 -15 48 -59 90 -99 78 -74 141 -111 159 -93 7 7 5 13 -6
17 -21 8 -22 40 -3 47 9 4 17 30 21 74 4 37 13 79 20 93 7 14 27 88 45 165 55
240 68 277 107 303 42 27 59 28 73 3 15 -28 12 -84 -9 -176 -41 -178 -72 -304
-95 -386 -16 -59 -21 -90 -14 -97 7 -7 5 -20 -5 -41 l-15 -30 31 -5 c18 -3 65
-8 106 -11 41 -3 85 -8 98 -11 18 -5 22 -3 17 9 -6 16 43 152 87 237 26 51 58
192 134 580 46 234 100 396 155 462 24 28 31 30 113 35 71 5 95 2 128 -12 27
-13 38 -23 34 -33 -3 -8 2 -26 11 -40 13 -19 15 -40 10 -96 -7 -92 -20 -175
-41 -256 -9 -36 -22 -96 -30 -135 -7 -38 -18 -92 -24 -120 -6 -27 -18 -84 -26
-125 -8 -41 -21 -102 -29 -135 -57 -234 -89 -413 -90 -497 0 -27 -3 -48 -8
-48 -22 0 0 -30 80 -109 93 -91 177 -193 202 -241 8 -16 21 -30 28 -30 8 0 12
-9 10 -22 -4 -29 -22 -30 -26 -1 -3 21 -37 41 -49 29 -14 -14 -5 -70 13 -83
15 -11 16 -17 6 -31 -7 -9 -17 -28 -22 -41 l-10 -23 -43 41 c-23 23 -47 41
-54 41 -7 0 -15 11 -19 25 -7 30 -34 33 -41 5 -8 -29 -35 -21 -51 13 -9 18
-20 27 -30 25 -22 -5 -17 -39 9 -57 10 -7 19 -23 19 -36 0 -12 9 -30 21 -41
16 -15 19 -25 14 -53 -6 -31 -5 -33 9 -22 25 21 44 7 38 -26 -2 -15 -10 -35
-16 -43 -7 -8 -18 -28 -24 -44 -12 -26 -16 -28 -50 -21 -47 8 -59 20 -42 40
11 13 9 15 -10 15 -13 0 -31 -7 -41 -16 -20 -18 -53 -12 -47 9 3 6 14 13 26
15 26 4 28 24 6 46 -18 19 -45 21 -62 4 -15 -15 -16 3 -3 49 8 26 6 35 -11 50
-11 10 -31 16 -44 15 -14 -2 -30 5 -41 17 -21 25 -83 30 -83 7 0 -8 5 -18 10
-21 6 -4 8 -11 5 -16 -9 -14 -34 -11 -51 6 -11 11 -21 12 -41 4 -14 -5 -28 -7
-31 -4 -3 3 0 5 7 5 7 0 11 8 9 17 -3 14 -11 17 -40 15 -29 -3 -37 1 -43 17
-10 33 -43 25 -101 -24 -28 -25 -57 -45 -63 -45 -19 0 -23 21 -6 34 16 11 16
13 0 26 -14 11 -17 11 -21 -6 -3 -10 -24 -29 -46 -42 -39 -21 -42 -21 -60 -5
-20 18 -90 20 -96 2 -2 -5 -17 -9 -33 -9 -22 0 -29 5 -29 20 0 11 -4 20 -9 20
-14 0 -20 -25 -11 -40 5 -8 6 -19 2 -25 -10 -16 -11 -84 -1 -91 5 -3 5 -13 -1
-24 -16 -29 -12 -51 10 -57 11 -3 20 -9 20 -13 0 -5 3 -15 6 -24 8 -22 -32
-21 -44 1 -9 14 -11 14 -21 -5 -7 -12 -18 -22 -26 -22 -10 0 -15 -10 -15 -30
0 -20 -5 -30 -15 -30 -26 0 -37 -47 -19 -81 8 -17 12 -38 9 -49 -3 -10 -1 -21
5 -25 20 -12 10 -26 -17 -23 -21 2 -29 9 -31 28 -6 50 -11 55 -32 32 -11 -11
-17 -28 -14 -36 7 -18 -23 -66 -42 -66 -8 0 -14 -7 -14 -15 0 -8 -11 -25 -25
-39 -19 -19 -32 -24 -57 -20 -37 5 -64 -8 -54 -25 4 -6 18 -11 32 -11 13 0 24
-4 24 -10 0 -17 18 -11 46 15 27 25 74 34 74 15 0 -5 -6 -10 -12 -10 -7 0 -26
-12 -42 -26 -23 -20 -26 -28 -15 -34 7 -5 10 -12 6 -17 -5 -4 -11 -3 -15 2 -4
6 -22 20 -40 33 -42 30 -72 22 -72 -19 0 -29 -12 -35 -44 -23 -10 4 -16 18
-16 39 0 29 -4 34 -30 40 -46 10 -103 -40 -69 -60 6 -4 21 2 33 14 29 27 36
26 36 -4 0 -16 6 -25 15 -25 19 0 20 -36 0 -44 -8 -3 -12 -12 -9 -21 6 -14 8
-14 24 0 19 17 46 20 55 5 9 -14 25 -12 25 3 0 14 40 37 65 37 8 0 15 -7 15
-15 0 -9 6 -18 14 -21 19 -7 56 13 56 31 0 8 5 15 10 15 6 0 15 10 20 23 6 16
9 17 9 5 1 -17 55 -51 65 -40 3 3 6 14 6 25 0 16 4 18 23 12 12 -4 42 -9 67
-11 25 -1 36 0 25 3 -23 6 -35 21 -35 46 0 25 31 21 55 -9 l20 -25 24 22 c21
20 22 23 7 34 -9 7 -16 15 -16 19 0 14 21 5 43 -20 28 -30 62 -29 62 1 0 11 3
19 8 18 4 -2 11 -3 17 -3 5 0 18 -9 29 -21 12 -13 21 -17 26 -10 3 6 -1 14
-10 17 -10 4 -13 13 -10 25 4 12 1 21 -9 25 -9 3 -16 13 -16 21 0 10 6 13 16
9 9 -3 18 -6 20 -6 2 0 4 -9 4 -20 0 -26 26 -26 33 0 5 20 27 28 27 10 0 -5
20 -18 44 -29 36 -15 44 -23 39 -39 -2 -11 0 -23 6 -26 6 -4 11 -16 11 -26 0
-13 5 -18 15 -13 23 8 58 -26 44 -43 -13 -15 -4 -34 16 -34 18 0 87 -65 78
-74 -3 -3 -15 -6 -25 -6 -24 0 -23 -17 2 -25 11 -3 24 -14 29 -23 8 -14 4 -17
-22 -17 -18 0 -37 3 -44 8 -8 5 -13 -3 -15 -25 -2 -25 -8 -33 -23 -33 -11 0
-24 -6 -28 -12 -4 -7 -14 -13 -22 -13 -7 0 -17 -9 -20 -20 -5 -15 -11 -18 -23
-11 -9 4 -29 11 -44 15 -21 5 -28 2 -33 -14 -8 -27 -27 -25 -55 5 -12 13 -27
22 -31 19 -15 -9 -10 -36 9 -50 16 -13 16 -13 -3 -14 -22 0 -48 46 -43 77 2
13 -3 17 -17 16 -10 -1 -27 3 -37 8 -29 16 -22 -18 9 -45 18 -15 23 -25 15
-30 -7 -4 -12 -1 -12 8 0 11 -10 16 -32 16 -52 1 -75 26 -80 88 -6 57 -26 89
-52 79 -12 -5 -16 -21 -16 -71 0 -36 -4 -67 -9 -71 -5 -3 -12 -18 -16 -33 -4
-19 -17 -34 -39 -45 -47 -22 -70 -5 -71 54 0 47 -14 59 -39 33 -16 -15 -16
-18 0 -35 28 -31 5 -42 -47 -24 -30 11 -45 12 -47 5 -9 -25 -48 -50 -77 -50
-29 0 -32 -3 -27 -25 l4 -25 -44 22 c-50 25 -52 38 -7 38 30 0 30 1 27 48 -3
40 -7 49 -30 59 -16 7 -28 17 -28 23 0 7 -8 9 -20 5 -26 -8 -40 23 -17 37 21
11 22 28 2 28 -8 0 -15 -7 -15 -15 0 -11 -12 -15 -45 -15 -56 0 -59 16 -10 64
32 32 33 36 18 51 -14 14 -14 18 -2 26 19 12 29 11 29 -1 0 -15 26 -12 40 5
10 13 9 15 -8 15 -12 0 -25 7 -30 17 -7 11 -21 16 -47 15 -47 -2 -54 -8 -30
-26 18 -13 18 -15 2 -40 -10 -14 -24 -26 -31 -26 -8 0 -16 -5 -18 -12 -3 -7
-12 -9 -22 -5 -17 7 -18 9 -2 25 22 26 20 45 -9 72 -26 24 -26 24 -31 3 -5
-19 -42 -39 -53 -28 -2 3 1 5 7 5 7 0 12 9 12 20 0 11 6 20 14 20 17 0 39 52
33 77 -3 12 -5 8 -6 -10 -1 -28 -2 -29 -43 -22 -24 4 -47 11 -52 16 -11 10 18
79 34 79 5 0 10 11 10 25 0 16 6 25 15 25 19 0 19 16 0 23 -12 5 -12 12 -3 39
6 18 19 39 29 46 13 9 16 21 12 46 -4 29 -2 35 17 41 19 6 20 9 7 23 -19 22
-18 142 1 165 12 14 11 21 -8 47 -18 26 -20 35 -11 60 6 20 6 32 0 36 -14 8
-66 -15 -73 -32 -3 -8 -14 -14 -25 -14 -10 0 -21 -8 -25 -17 -3 -10 -11 -26
-18 -36 -11 -16 -10 -21 9 -34 21 -14 21 -17 8 -43 -12 -24 -33 -40 -51 -40
-3 0 -4 10 -2 22 2 15 -3 24 -14 26 -23 4 -37 -46 -17 -59 10 -6 7 -9 -11 -9
-31 0 -50 17 -50 43 0 23 -29 19 -44 -7 -8 -14 -8 -20 2 -23 6 -3 10 -9 7 -14
-8 -11 -45 12 -45 28 0 19 -21 16 -36 -4 -21 -27 -16 -43 11 -43 33 0 35 -35
2 -44 -12 -3 -36 -23 -52 -45 -22 -30 -37 -41 -57 -41 -35 0 -44 -16 -17 -30
25 -14 18 -23 -19 -26 -54 -3 -54 -3 -49 -25 5 -19 -38 -129 -50 -129 -17 0
-43 24 -43 40 0 14 -7 20 -21 20 -12 0 -17 -4 -13 -11 8 -14 -27 -79 -44 -79
-7 0 -17 11 -22 24 -10 26 -28 42 -37 32 -3 -3 -5 -31 -4 -61 1 -51 -9 -70
-24 -45 -3 6 -16 10 -29 10 -12 0 -27 5 -33 11 -8 8 -20 6 -43 -6 -25 -13 -38
-14 -61 -6 -23 8 -29 7 -29 -4 0 -7 7 -21 15 -29 12 -12 14 -20 5 -36 -6 -11
-15 -20 -21 -20 -5 0 -7 -11 -3 -25 5 -20 2 -25 -13 -25 -22 0 -43 18 -43 37
0 7 6 13 14 13 8 0 18 4 21 10 11 19 -14 47 -57 63 -78 28 -88 30 -88 13 0 -8
-9 -20 -21 -26 -16 -9 -18 -14 -8 -26 6 -8 23 -14 38 -14 20 0 22 -3 11 -10
-12 -8 -12 -11 3 -28 9 -10 17 -22 17 -25 0 -14 -33 -6 -60 13 -18 13 -31 16
-35 10 -11 -17 -24 -11 -31 14 -6 25 -42 37 -113 37 -32 0 -33 2 -27 30 5 29
-10 79 -25 79 -15 0 -39 32 -39 51 0 14 7 19 30 19 35 0 41 23 10 40 -26 14
-37 7 -45 -30 -8 -34 -41 -58 -58 -41 -7 7 -6 15 3 26 12 14 11 18 0 25 -8 5
-11 13 -6 17 5 4 11 2 13 -4 5 -14 33 -18 33 -5 -1 4 -14 18 -30 32 -17 13
-30 28 -30 33 0 4 -11 23 -25 41 -14 18 -25 36 -25 39 0 13 28 7 40 -8 16 -19
40 -19 40 0 0 9 -7 27 -16 40 -13 21 -14 27 -2 39 31 36 38 46 38 61 0 8 -4
15 -10 15 -5 0 -10 -9 -10 -19 0 -10 -7 -22 -16 -25 -24 -9 -25 -8 -18 18 3
13 1 27 -5 30 -6 4 -11 15 -11 26 0 11 -11 22 -30 29 -16 5 -30 15 -30 21 0 6
-7 18 -15 26 -9 10 -13 25 -9 39 3 12 1 26 -5 29 -16 10 -13 46 3 46 30 0 28
23 -3 47 -17 13 -31 30 -31 38 0 7 -7 18 -15 25 -18 15 -20 50 -3 50 7 0 3 10
-8 23 -35 40 -46 67 -34 81 7 10 6 17 -5 26 -8 7 -15 25 -15 40 0 27 -24 85
-40 95 -4 3 -15 2 -24 -1 -14 -5 -14 -9 0 -36 12 -24 13 -33 4 -42 -9 -8 -14
-8 -17 1 -2 6 -13 21 -24 34 -24 27 -24 38 -1 55 12 9 14 16 6 24 -8 8 -14 7
-24 -5 -7 -8 -19 -15 -26 -15 -8 0 -14 -4 -14 -9 0 -5 -7 -17 -16 -26 -12 -11
-13 -20 -6 -27 6 -6 12 -6 16 1 4 6 12 11 17 11 6 0 1 -13 -11 -30 -16 -22
-19 -38 -15 -63 4 -22 2 -39 -7 -48 -14 -16 -35 -47 -44 -67 -4 -7 -1 -24 6
-37 12 -22 10 -27 -24 -58 -20 -19 -36 -42 -36 -51 0 -9 -7 -16 -15 -16 -16 0
-21 -35 -6 -45 6 -3 15 4 21 15 9 16 15 18 30 10 17 -9 20 -7 20 9 0 11 5 23
11 27 20 12 31 -13 24 -59 -6 -37 -12 -46 -31 -51 -13 -4 -24 -11 -24 -16 0
-14 -28 -12 -33 3 -2 6 -7 9 -11 5 -4 -3 -2 -15 5 -26 7 -11 9 -28 5 -38 -7
-18 -8 -18 -17 -1 -14 23 -20 22 -62 -16 -28 -24 -35 -37 -31 -54 5 -18 1 -23
-20 -29 -14 -3 -26 -10 -26 -14 0 -4 -9 -10 -20 -13 -12 -3 -20 -14 -20 -26 0
-12 -4 -21 -10 -21 -5 0 -10 4 -10 9 0 5 -9 13 -20 16 -29 9 -25 24 9 36 32
11 50 39 26 39 -8 0 -15 -7 -15 -16 0 -11 -8 -15 -27 -12 -23 2 -28 -1 -28
-19 0 -11 -3 -25 -7 -29 -13 -13 -9 -20 17 -32 15 -7 22 -17 19 -26 -3 -8 -1
-17 4 -20 6 -3 12 1 16 9 3 8 16 15 29 15 17 0 27 9 38 32 17 39 35 46 44 19
3 -12 12 -21 20 -21 25 0 24 -29 -2 -50 -21 -17 -35 -19 -74 -14 -45 6 -49 5
-57 -17 l-9 -23 -12 22 c-9 17 -18 21 -33 16 -18 -5 -20 -3 -15 22 3 15 1 38
-4 51 -9 25 -43 31 -56 9 -13 -22 -46 -35 -76 -29 -16 3 -27 1 -27 -6 0 -6 11
-11 25 -11 16 0 25 -6 25 -15 0 -18 1 -18 33 -6 24 9 24 9 15 -23 -6 -18 -20
-38 -31 -46 -18 -10 -22 -10 -34 6 -7 9 -15 15 -19 12 -6 -7 35 -48 48 -48 4
0 8 -11 8 -25 0 -28 24 -34 37 -10 6 10 13 11 23 5 10 -6 11 -10 3 -10 -7 0
-19 -13 -28 -30 -11 -21 -23 -30 -40 -30 -26 0 -33 14 -14 26 8 5 6 10 -5 16
-9 5 -20 6 -26 3 -11 -6 -2 -36 14 -47 8 -5 7 -13 -2 -28 -10 -17 -9 -23 8
-40 11 -11 20 -31 20 -44 0 -14 5 -28 10 -31 13 -8 13 -25 -1 -25 -6 0 -17 7
-25 15 -9 8 -24 15 -34 15 -10 0 -22 5 -25 10 -10 16 -20 12 -49 -17 -19 -19
-30 -23 -38 -15 -8 8 -4 17 14 34 25 24 27 58 2 58 -8 0 -17 -7 -20 -15 -4 -8
-15 -15 -26 -15 -12 0 -26 -6 -32 -14 -6 -8 -28 -18 -48 -21 -33 -6 -36 -5
-31 13 2 11 16 25 29 31 16 7 24 19 24 35 0 13 7 26 15 30 19 7 20 36 2 36 -8
0 -19 -11 -25 -25 -6 -14 -18 -25 -26 -25 -8 0 -16 -10 -18 -22 -2 -15 -11
-24 -25 -26 -28 -4 -29 3 -3 35 24 31 25 43 3 43 -22 0 -83 48 -83 66 0 7 -7
14 -15 14 -18 0 -20 36 -2 44 9 5 9 7 -1 12 -6 3 -12 12 -12 20 0 16 -16 19
-25 4 -9 -15 -35 -12 -35 4 0 8 10 22 22 30 19 14 24 14 38 1 9 -8 25 -15 35
-15 17 0 17 1 0 20 -10 11 -22 20 -27 20 -4 0 -17 9 -28 20 -24 24 -53 16 -45
-11 6 -19 -15 -49 -34 -49 -6 0 -11 11 -11 23 0 37 -12 40 -26 7 -15 -35 -49
-41 -59 -10 -4 11 -15 20 -27 20 -17 0 -19 -4 -14 -25 7 -29 3 -30 -33 -9 -25
15 -30 15 -58 1 -25 -13 -34 -14 -55 -2 -19 9 -29 10 -37 2 -6 -6 -27 -12 -45
-14 -26 -1 -35 3 -39 18 -3 10 -10 19 -16 19 -14 0 -15 -37 -1 -45 14 -9 12
-59 -2 -73 -10 -10 -10 -17 0 -32 9 -15 10 -26 2 -40 -16 -29 -12 -37 23 -51
29 -11 30 -13 10 -16 -26 -5 -31 -31 -8 -39 22 -9 18 -42 -5 -49 -21 -7 -28
-25 -10 -25 5 0 20 -10 32 -22 19 -19 22 -20 33 -4 12 15 13 15 18 -3 3 -14
-3 -25 -18 -35 -13 -9 -38 -30 -55 -48 -28 -30 -31 -38 -28 -86 3 -49 2 -52
-21 -52 -19 0 -22 -4 -17 -23 3 -12 6 -25 6 -29 0 -5 11 -8 25 -8 16 0 25 -6
25 -15 0 -8 -4 -15 -9 -15 -5 0 -16 -3 -25 -6 -11 -4 -16 -1 -16 10 0 9 -5 16
-11 16 -7 0 -18 8 -25 18 -19 24 -18 1 3 -65 12 -37 14 -56 6 -61 -6 -4 -10
-18 -9 -32 1 -21 -3 -24 -22 -22 -19 3 -23 -1 -20 -15 2 -10 11 -17 21 -17 9
1 17 -4 17 -12 0 -8 -7 -14 -15 -14 -8 0 -15 -4 -15 -10 0 -5 4 -10 9 -10 5 0
8 -21 6 -47 -3 -39 -10 -53 -37 -75 -42 -35 -62 -36 -54 -4 3 14 2 27 -3 30
-17 11 -41 -6 -41 -28 0 -27 -18 -46 -42 -46 -22 0 -23 18 -3 44 8 10 12 23 9
27 -9 16 -53 -22 -56 -48 -4 -34 -24 -40 -32 -11 -5 18 -8 20 -15 9 -15 -24
-77 -40 -103 -27 -13 6 -23 18 -24 26 -1 27 -16 50 -33 50 -13 -1 -13 -3 4
-16 20 -15 20 -15 1 -30 -26 -19 -36 -18 -60 5 -12 11 -37 21 -56 23 -32 3
-35 0 -38 -25 -3 -26 11 -37 23 -17 8 13 35 13 35 0 0 -5 -9 -10 -20 -10 -11
0 -20 -4 -20 -9 0 -13 -27 -21 -46 -14 -8 3 -13 12 -10 19 6 17 -25 74 -40 74
-18 0 -35 -26 -28 -44 9 -23 -26 -34 -41 -13 -7 10 -20 17 -29 17 -10 0 -19
11 -22 30 -4 17 -10 30 -14 30 -5 0 -13 14 -19 30 -5 17 -14 30 -18 30 -17 0
-82 -26 -97 -39 -24 -20 -21 7 4 39 26 33 25 40 -5 40 -18 0 -25 -5 -25 -18 0
-31 -42 -43 -99 -30 -40 9 -47 13 -36 24 7 7 22 10 34 7 16 -4 21 -1 21 15 0
12 -9 26 -19 32 -27 14 -31 13 -31 -8 0 -29 -11 -33 -42 -14 -24 14 -29 23
-25 45 3 22 0 27 -18 27 -26 0 -80 46 -65 55 18 11 10 25 -14 25 -15 0 -30 10
-41 27 -17 25 -17 27 3 42 19 14 19 19 7 41 -16 30 -9 88 15 115 10 11 23 37
31 57 7 20 28 54 46 74 30 34 35 36 59 25 14 -6 35 -9 46 -5 16 5 17 8 7 21
-11 12 -9 18 11 34 14 10 39 21 55 25 17 3 40 12 51 19 30 19 63 9 61 -18 -2
-51 4 -77 18 -77 8 0 24 -10 35 -22 18 -19 22 -20 30 -8 5 8 10 21 10 28 0 6
7 12 16 12 11 0 14 -6 9 -20 -5 -16 -2 -20 17 -20 13 0 30 6 37 13 10 10 15 9
25 -5 8 -10 21 -14 38 -11 20 4 29 0 38 -17 15 -28 54 -24 58 7 2 16 -3 22
-20 25 -16 2 -24 11 -26 28 -2 14 -6 32 -9 40 -3 8 -5 25 -4 37 2 21 0 22 -29
12 -17 -6 -32 -10 -34 -8 -1 2 -12 17 -24 33 -12 16 -22 39 -22 52 0 21 -5 24
-37 24 -27 0 -34 3 -23 10 9 6 15 29 16 72 3 57 6 65 36 91 18 15 43 32 56 37
13 6 22 18 22 30 0 12 11 31 23 43 28 26 50 64 43 75 -2 4 18 6 45 5 42 -3 49
-1 49 16 0 23 -39 36 -47 15 -8 -22 -31 -16 -35 9 -2 14 -11 23 -26 25 -20 3
-22 0 -17 -21 6 -22 4 -23 -27 -19 -18 3 -37 11 -41 19 -7 12 -12 12 -32 -1
-36 -24 -45 -20 -45 18 0 35 -21 66 -43 66 -18 0 -47 -37 -47 -60 0 -13 -7
-20 -19 -20 -21 0 -91 -37 -103 -54 -4 -6 -12 -5 -20 2 -18 14 -38 -2 -38 -30
0 -21 -30 -24 -48 -6 -16 16 -15 28 2 28 18 0 29 16 21 30 -8 13 -35 1 -35
-16 0 -8 -7 -17 -16 -21 -8 -3 -20 -17 -25 -30 -7 -20 -12 -22 -28 -14 -16 9
-21 6 -29 -19 -8 -20 -19 -31 -39 -35 -15 -4 -35 -10 -43 -14 -15 -7 -44 4
-73 28 -25 20 -39 3 -17 -19 30 -30 26 -47 -9 -42 -22 3 -32 -1 -40 -16 -8
-15 -57 -42 -76 -42 -2 0 -5 9 -8 21 -8 30 -39 20 -57 -19 -17 -36 -53 -51
-81 -33 -25 15 -26 14 -32 -10 -4 -16 -11 -20 -26 -16 -12 3 -21 0 -21 -5 0
-6 -25 -35 -56 -64 -48 -46 -55 -58 -50 -79 6 -23 5 -25 -13 -16 -30 17 -52
13 -58 -9 -6 -22 -18 -26 -28 -10 -4 6 -34 -13 -70 -42 -63 -52 -71 -68 -34
-68 13 0 19 -7 19 -21 0 -12 8 -28 18 -35 13 -10 14 -15 5 -24 -8 -9 -14 -7
-22 9 -7 12 -21 21 -32 21 -12 0 -23 8 -26 20 -5 18 -7 18 -35 4 l-30 -16 21
-19 c11 -10 31 -19 44 -19 34 0 38 -9 22 -41 -14 -25 -13 -29 3 -38 14 -8 15
-13 5 -30 -16 -25 4 -42 22 -18 6 9 23 19 38 22 15 4 30 11 32 16 9 14 36 -2
46 -27 5 -14 17 -24 27 -24 33 0 55 -35 48 -73 -5 -27 -3 -36 10 -41 10 -4 14
-12 10 -23 -4 -9 -2 -19 4 -23 6 -3 11 -27 12 -53 2 -38 -2 -51 -25 -75 -30
-31 -35 -52 -12 -52 8 0 15 -4 15 -10 0 -5 -9 -10 -19 -10 -29 0 -35 -17 -10
-30 19 -11 19 -13 5 -29 -9 -10 -13 -21 -9 -24 3 -4 0 -25 -7 -48 -11 -34 -11
-44 -1 -62 11 -17 11 -22 -2 -32 -10 -7 -14 -20 -11 -32 3 -12 -2 -27 -11 -37
-12 -12 -16 -26 -12 -46 4 -19 0 -36 -12 -52 -24 -31 -17 -45 19 -40 l30 4
-31 -33 c-18 -19 -37 -33 -44 -31 -7 1 -15 -5 -19 -13 -4 -11 -13 -14 -31 -9
-19 5 -25 2 -25 -10 0 -20 45 -39 71 -31 20 7 67 -19 52 -28 -4 -3 -34 -5 -66
-6 -40 0 -60 4 -63 13 -9 25 -42 26 -48 2 -6 -25 -57 -56 -92 -56 -13 0 -24
-6 -24 -13 0 -8 -11 -19 -24 -25 -19 -8 -27 -8 -36 3 -9 11 -17 12 -30 5 -30
-16 -43 -12 -37 11 4 16 -1 24 -27 34 -18 8 -38 21 -46 29 -7 9 -18 16 -25 16
-8 0 -16 6 -19 13 -3 6 -4 -1 0 -18 3 -16 10 -32 15 -34 6 -2 22 -14 37 -27
l27 -24 -24 -20 c-22 -19 -25 -19 -42 -4 -12 11 -27 14 -44 10 -24 -6 -25 -10
-19 -43 6 -33 5 -35 -12 -28 -10 4 -34 13 -53 19 -19 6 -47 23 -63 38 -21 20
-28 22 -26 10 2 -12 -5 -18 -22 -20 -14 -2 -29 -8 -34 -13 -6 -5 -20 -9 -33
-9 -13 0 -26 -7 -29 -15 -8 -19 -41 -19 -60 0 -9 8 -25 15 -37 15 -20 1 -20 2
-4 11 24 14 21 29 -7 29 -16 0 -26 7 -29 21 -8 29 -27 14 -27 -20 0 -16 -7
-34 -15 -41 -8 -7 -15 -27 -15 -45 0 -18 -7 -38 -15 -45 -8 -7 -15 -27 -15
-45 0 -18 -7 -52 -16 -76 -17 -48 -25 -294 -12 -404 24 -207 24 -216 20 -385
-2 -61 -5 -71 -14 -55 -17 32 -39 45 -78 45 -50 0 -140 48 -167 89 -27 40 -39
81 -55 177 -11 67 -10 73 13 114 23 42 50 64 115 94 71 32 101 132 63 208 -12
24 -30 52 -41 62 -15 14 -19 27 -15 52 3 19 1 34 -4 34 -16 0 1 73 21 91 9 8
21 25 25 38 11 35 155 181 172 174 9 -4 16 2 20 15 3 11 11 23 19 26 8 3 14
12 14 20 0 8 6 19 14 23 12 7 108 158 129 203 17 35 56 93 110 162 31 41 57
80 57 86 0 7 5 12 10 12 18 0 11 38 -8 44 -11 4 -29 17 -42 31 -23 24 -23 25
-6 64 10 22 34 49 56 64 l38 25 6 -32 c5 -24 9 -28 16 -16 15 23 12 57 -5 64
-9 3 -15 19 -15 41 0 28 -4 35 -20 35 -11 0 -43 28 -80 72 -55 66 -60 76 -61
122 -1 28 -3 92 -5 141 -2 50 0 124 6 165 10 69 13 77 54 117 36 34 48 57 66
115 11 40 28 88 36 106 7 18 14 39 14 46 0 8 7 27 15 42 8 16 15 37 15 47 0 9
5 17 10 17 6 0 10 5 10 11 0 20 66 152 104 208 20 29 36 56 36 61 0 17 159
169 213 203 31 20 59 37 61 37 2 0 44 18 93 41 48 22 106 49 128 58 22 10 56
26 77 35 20 9 42 16 50 16 8 0 18 4 24 9 12 13 82 30 164 42 36 5 77 13 92 18
16 6 67 13 115 17 116 8 174 27 250 82 30 21 93 111 93 132 0 13 -37 -8 -65
-37 -12 -13 -25 -20 -29 -16 -3 4 -23 12 -42 19 -32 11 -43 10 -90 -8 -30 -12
-54 -27 -54 -34 0 -23 -18 -25 -74 -9 -47 14 -98 43 -116 66 -11 14 -128 68
-161 74 -49 9 -144 -17 -215 -59 -33 -19 -75 -42 -94 -51 -19 -9 -44 -25 -55
-35 -11 -10 -43 -29 -70 -40 -28 -12 -69 -30 -92 -41 -24 -10 -45 -19 -48 -19
-10 0 -25 79 -20 106 9 49 -60 143 -148 202 -116 79 -187 186 -187 283 0 45 4
54 32 77 126 106 167 165 192 277 9 44 21 91 25 105 11 35 -28 110 -77 149
-34 26 -46 30 -89 28 -40 -3 -60 -11 -104 -45 -31 -23 -63 -42 -73 -42 -26 0
-35 39 -24 103 9 48 16 61 48 87 34 27 45 30 113 30 41 0 93 -7 117 -15 137
-48 260 16 260 136 0 57 -22 83 -85 100 -54 15 -84 14 -142 -8 -35 -13 -75
-17 -148 -17 -93 1 -106 4 -185 39 -159 70 -218 87 -328 92 -182 10 -280 -35
-346 -158 -36 -66 -44 -156 -27 -303 11 -90 11 -110 -3 -150 -22 -64 -55 -113
-123 -184 -32 -33 -80 -86 -108 -117 -27 -31 -60 -60 -72 -65 l-23 -10 0
-2552 c0 -1519 4 -2548 9 -2543 5 6 11 19 13 29 2 12 18 23 47 32 47 14 235
36 310 36 36 0 59 8 107 39 33 22 68 39 78 39 15 0 17 5 11 27 -11 46 -11 47
13 51 14 2 22 10 22 23 0 21 22 59 55 95 11 12 27 30 34 40 12 13 16 14 19 4
3 -8 0 -16 -7 -18 -14 -5 -15 -54 0 -69 6 -6 14 -37 19 -69 4 -33 11 -67 15
-77 5 -13 2 -17 -13 -17 -26 0 -37 -16 -34 -52 2 -23 -2 -28 -22 -28 -25 0
-35 15 -37 58 -1 27 -1 27 -9 -3 -4 -16 -8 -47 -9 -69 -1 -38 -20 -109 -47
-174 -8 -18 -14 -48 -14 -67 0 -19 -7 -60 -15 -92 -12 -44 -15 -110 -14 -279
1 -147 -3 -228 -10 -242 -6 -12 -14 -49 -17 -84 -3 -35 -11 -76 -16 -93 -11
-28 -17 -82 -36 -309 -4 -49 -3 -123 1 -165 4 -42 10 -183 13 -314 l6 -237
707 0 708 0 12 43 c15 51 36 127 50 182 5 22 17 65 25 95 8 30 18 108 22 173
3 64 10 120 15 123 12 7 10 235 -2 250 -10 12 14 67 67 155 19 31 34 64 34 73
0 9 4 16 10 16 5 0 12 12 16 28 3 15 9 36 13 47 21 51 34 117 41 200 4 50 12
106 18 125 7 19 12 54 12 78 0 25 6 50 15 58 8 9 15 29 15 45 0 16 5 29 10 29
6 0 10 4 10 9 0 5 18 37 40 70 22 33 40 63 40 67 0 3 7 22 16 42 8 21 22 52
29 70 37 86 68 155 104 233 17 36 31 73 31 82 0 10 4 25 10 35 5 9 14 29 20
44 11 32 40 38 40 9 0 -11 4 -21 8 -23 4 -1 19 -21 32 -43 13 -22 28 -44 32
-50 5 -5 30 -40 58 -76 45 -62 186 -199 213 -208 7 -2 14 -7 17 -11 3 -4 27
-20 55 -36 27 -16 59 -34 70 -41 11 -7 27 -15 35 -19 68 -33 89 -55 134 -147
25 -51 46 -101 46 -109 0 -9 7 -21 15 -28 8 -7 15 -21 15 -30 0 -10 6 -31 14
-47 18 -37 48 -157 51 -208 6 -81 25 -197 34 -209 5 -6 12 -47 14 -91 6 -93
33 -235 47 -249 15 -15 12 -43 -5 -50 -8 -3 -15 -15 -15 -26 0 -11 -12 -39
-27 -63 -25 -38 -63 -108 -125 -227 -13 -25 -26 -47 -29 -50 -4 -3 -20 -32
-38 -64 -31 -59 -40 -109 -21 -121 6 -3 10 -15 10 -25 0 -11 8 -44 17 -75 l17
-55 2458 0 c2178 0 2458 2 2458 15 0 11 12 15 44 15 44 0 45 1 48 35 2 20 8
34 13 33 11 -3 11 -41 0 -75 l-7 -23 1256 0 1256 0 0 2302 c0 2191 -1 2300
-17 2286 -10 -9 -29 -19 -43 -23 -52 -15 -106 -44 -130 -69 -13 -15 -29 -25
-36 -22 -16 6 -36 -18 -69 -84 -15 -30 -34 -59 -41 -63 -8 -4 -14 -14 -14 -22
0 -19 -115 -134 -146 -145 -42 -16 -91 -12 -99 8 -26 68 -23 195 9 362 16 82
46 289 53 360 9 110 51 422 74 554 6 33 13 89 16 126 6 70 30 115 56 104 8 -3
17 -18 21 -34 3 -16 14 -38 24 -48 11 -11 22 -31 26 -45 3 -14 13 -33 22 -42
17 -16 14 -27 -25 -95 -5 -8 -18 -48 -30 -87 -22 -74 -23 -82 -6 -273 7 -78
23 -148 40 -173 32 -50 124 -67 263 -51 l52 7 0 328 0 329 -46 0 c-27 0 -43 4
-39 10 3 6 17 10 31 10 13 0 24 5 24 10 0 6 7 10 15 10 13 0 15 164 15 1420
l0 1420 -123 0 c-68 0 -126 -2 -128 -5z m-9604 -1201 c31 -20 47 -71 39 -123
-6 -36 -12 -43 -48 -60 -55 -26 -185 -44 -249 -36 -66 10 -117 57 -117 111 0
53 51 103 115 113 91 16 233 13 260 -5z m9103 -359 c39 -14 78 -25 86 -25 8 0
28 -16 45 -35 26 -30 31 -44 31 -84 0 -89 -48 -212 -124 -321 -82 -117 -100
-211 -57 -309 60 -140 0 -290 -133 -329 -31 -9 -46 -8 -72 3 -28 11 -36 22
-50 72 -26 87 -25 312 4 538 12 99 27 214 32 255 16 129 32 194 54 219 43 48
83 51 184 16z m-9025 -596 c31 -33 34 -55 11 -87 -20 -28 -32 -27 -72 6 -25
21 -35 38 -39 69 -4 34 -2 42 13 46 31 7 57 -3 87 -34z m8284 -471 c-3 -8 -6
-5 -6 6 -1 11 2 17 5 13 3 -3 4 -12 1 -19z m88 2 c0 -8 8 -30 18 -48 10 -18
15 -37 12 -43 -4 -5 -2 -16 5 -24 15 -17 9 -97 -7 -103 -8 -2 -13 5 -13 17 0
11 -5 23 -11 26 -5 4 -15 17 -20 28 -6 12 -21 42 -34 67 -28 53 -30 70 -10 70
8 0 15 7 15 16 0 10 7 14 23 12 12 -2 22 -10 22 -18z m-333 -15 c6 -14 15 -25
20 -25 4 0 8 -4 8 -10 0 -18 -33 -11 -57 12 -28 27 -30 48 -3 48 12 0 25 -10
32 -25z m-8247 -11 c20 -13 25 -25 25 -59 0 -52 -28 -122 -61 -151 -13 -12
-40 -24 -59 -28 -53 -9 -185 18 -228 47 -47 31 -81 90 -66 115 18 30 95 61
154 62 30 1 84 7 120 14 88 18 87 18 115 0z m8450 -74 c14 -26 14 -31 1 -36
-18 -7 -56 25 -56 48 0 30 38 21 55 -12z m-2075 0 c0 -5 -2 -10 -4 -10 -3 0
-8 5 -11 10 -3 6 -1 10 4 10 6 0 11 -4 11 -10z m1950 0 c0 -5 -9 -10 -20 -10
-11 0 -20 5 -20 10 0 6 9 10 20 10 11 0 20 -4 20 -10z m-462 -28 c2 -7 -3 -12
-12 -12 -9 0 -16 7 -16 16 0 17 22 14 28 -4z m-3402 -39 c-3 -3 -13 -3 -22 1
-15 6 -15 8 2 27 l19 21 3 -22 c2 -12 1 -24 -2 -27z m-50 -28 c4 -8 3 -23 -1
-32 -7 -16 -8 -16 -13 2 -2 11 -9 26 -14 33 -8 9 -6 12 6 12 9 0 19 -7 22 -15z
m-126 -65 c12 -8 12 -11 -3 -28 -22 -24 -22 -42 1 -42 20 0 62 35 62 51 0 6 5
7 10 4 6 -3 10 -15 10 -26 0 -10 -4 -19 -10 -19 -5 0 -10 -4 -10 -9 0 -5 8 -8
18 -7 12 1 17 -6 17 -26 0 -15 8 -33 19 -41 27 -20 13 -38 -19 -24 -14 7 -25
16 -25 21 0 5 -7 3 -15 -4 -23 -19 -51 -3 -65 40 -8 24 -20 40 -29 41 -10 0
-12 2 -3 6 6 2 12 20 12 39 0 35 5 40 30 24z m492 -52 c-9 -9 -12 -7 -12 12 0
19 3 21 12 12 9 -9 9 -15 0 -24z m3308 9 c0 -7 18 -20 40 -29 33 -14 40 -21
40 -44 0 -27 -24 -64 -42 -64 -4 0 -8 15 -8 34 0 25 -8 43 -31 65 -19 19 -29
37 -25 47 6 17 26 10 26 -9z m-3335 -76 c3 -5 1 -12 -5 -16 -5 -3 -10 1 -10 9
0 18 6 21 15 7z m-411 -88 c-25 -18 -28 -9 -7 23 16 24 18 26 22 9 2 -10 -5
-25 -15 -32z m1674 18 c-13 -21 -48 -35 -48 -20 0 5 5 9 11 9 6 0 17 7 25 15
21 21 27 19 12 -4z m2227 3 c38 -25 28 -64 -16 -64 -13 0 -31 50 -25 67 7 17
11 16 41 -3z m-3965 -19 c0 -8 -4 -15 -10 -15 -5 0 -10 7 -10 15 0 8 5 15 10
15 6 0 10 -7 10 -15z m-900 -25 c0 -5 -5 -10 -11 -10 -5 0 -7 5 -4 10 3 6 8
10 11 10 2 0 4 -4 4 -10z m620 -34 c0 -8 -4 -18 -10 -21 -5 -3 -10 3 -10 14 0
12 5 21 10 21 6 0 10 -6 10 -14z m191 -59 c-14 -14 -22 9 -15 40 l7 28 8 -30
c5 -16 5 -33 0 -38z m-2151 32 c0 -11 -4 -18 -10 -14 -5 3 -7 12 -3 20 7 21
13 19 13 -6z m2045 12 c3 -5 1 -12 -5 -16 -5 -3 -10 1 -10 9 0 18 6 21 15 7z
m-695 -42 c0 -5 -9 -9 -20 -9 -22 0 -27 16 -7 23 15 5 27 -1 27 -14z m4948
-11 c-5 -32 -28 -35 -28 -4 0 17 5 26 16 26 10 0 14 -7 12 -22z m-1330 -7 c10
-6 10 -10 -3 -21 -18 -15 -42 0 -31 19 8 13 16 14 34 2z m-2928 -11 c0 -5 -7
-7 -15 -4 -8 4 -15 8 -15 10 0 2 7 4 15 4 8 0 15 -4 15 -10z m703 -37 c-6 -15
-23 -18 -23 -4 0 5 3 17 6 26 5 12 9 14 14 4 5 -7 6 -18 3 -26z m1053 10 c-10
-10 -19 5 -10 18 6 11 8 11 12 0 2 -7 1 -15 -2 -18z m-1673 11 c7 -7 -29 -44
-43 -44 -6 0 -5 10 2 25 11 24 28 32 41 19z m112 -25 c10 -15 -1 -23 -20 -15
-9 3 -13 10 -10 16 8 13 22 13 30 -1z m-2178 -31 c-1 -18 -7 -33 -12 -33 -6 0
-9 14 -8 30 2 37 1 35 12 35 6 0 9 -15 8 -32z m1433 16 c0 -9 -5 -14 -12 -12
-18 6 -21 28 -4 28 9 0 16 -7 16 -16z m520 -7 c0 -15 -3 -17 -13 -9 -7 6 -23
9 -35 5 -16 -4 -22 -1 -22 10 0 11 10 15 35 14 28 -1 35 -5 35 -20z m540 13
c0 -5 -4 -10 -10 -10 -5 0 -10 5 -10 10 0 6 5 10 10 10 6 0 10 -4 10 -10z
m320 -30 c0 -10 -26 -20 -33 -13 -3 3 -3 11 0 18 5 14 33 9 33 -5z m910 -2 c0
-13 -32 -6 -37 9 -3 7 3 9 16 6 12 -3 21 -10 21 -15z m-2380 2 c0 -5 -4 -10
-10 -10 -5 0 -10 5 -10 10 0 6 5 10 10 10 6 0 10 -4 10 -10z m120 0 c0 -5 -4
-10 -10 -10 -5 0 -10 5 -10 10 0 6 5 10 10 10 6 0 10 -4 10 -10z m738 -29
c-15 -5 -21 7 -13 26 7 17 8 17 15 -2 4 -11 3 -22 -2 -24z m-298 4 c0 -8 -9
-15 -20 -15 -22 0 -27 15 -7 23 21 9 27 7 27 -8z m1650 5 c0 -5 -5 -10 -11
-10 -5 0 -7 5 -4 10 3 6 8 10 11 10 2 0 4 -4 4 -10z m-870 -24 c0 -14 5 -28
10 -31 13 -8 2 -27 -13 -22 -14 4 -20 77 -6 77 5 0 9 -11 9 -24z m90 20 c0 -3
-4 -8 -10 -11 -5 -3 -10 -1 -10 4 0 6 5 11 10 11 6 0 10 -2 10 -4z m2108 -14
c2 -7 -3 -12 -12 -12 -9 0 -16 7 -16 16 0 17 22 14 28 -4z m-4918 -31 c0 -20
-26 -36 -35 -21 -8 13 6 40 21 40 8 0 14 -9 14 -19z m2055 -10 c3 -5 1 -12 -5
-16 -5 -3 -10 1 -10 9 0 18 6 21 15 7z m810 -1 c3 -5 -3 -10 -15 -10 -12 0
-18 5 -15 10 3 6 10 10 15 10 5 0 12 -4 15 -10z m1415 1 c0 -6 -5 -13 -10 -16
-15 -9 -43 3 -35 15 8 13 45 13 45 1z m-832 -24 c3 -12 -3 -17 -22 -17 -25 0
-35 18 -19 34 12 12 38 2 41 -17z m-1813 4 c3 -5 1 -12 -5 -16 -5 -3 -10 1
-10 9 0 18 6 21 15 7z m-81 -16 c3 -8 15 -15 26 -15 11 0 20 -7 20 -16 0 -11
-6 -14 -22 -8 -31 9 -68 34 -68 45 0 15 38 10 44 -6z m146 6 c0 -5 -6 -14 -14
-20 -10 -9 -15 -8 -19 3 -3 8 -3 17 0 20 9 9 33 7 33 -3z m275 0 c8 -14 -7
-20 -38 -14 -21 4 -25 8 -15 14 17 12 45 11 53 0z m835 -1 c0 -5 -4 -10 -10
-10 -5 0 -10 5 -10 10 0 6 5 10 10 10 6 0 10 -4 10 -10z m101 -13 c-13 -13
-26 -3 -16 12 3 6 11 8 17 5 6 -4 6 -10 -1 -17z m322 8 c-4 -15 -36 -12 -41 3
-3 9 3 13 19 10 13 -1 23 -7 22 -13z m-1403 -22 c-1 -19 -19 -35 -34 -30 -26
10 -19 37 9 37 14 0 25 -3 25 -7z m2507 -25 c-3 -7 -5 -2 -5 12 0 14 2 19 5
13 2 -7 2 -19 0 -25z m-2831 -10 c-18 -10 -39 -2 -31 12 3 4 15 6 26 3 19 -5
19 -7 5 -15z m1434 12 c11 -6 12 -12 4 -20 -13 -13 -44 -2 -44 16 0 16 18 18
40 4z m570 -11 c0 -5 -7 -9 -15 -9 -15 0 -20 12 -9 23 8 8 24 -1 24 -14z
m-1552 0 c-10 -5 -18 -17 -18 -24 0 -8 -4 -15 -10 -15 -11 0 -14 33 -3 43 3 4
16 7 27 7 19 -1 19 -2 4 -11z m908 -24 c5 -20 11 -24 30 -19 27 7 33 -13 12
-35 -11 -10 -9 -16 10 -31 24 -20 28 -35 12 -45 -14 -9 -70 49 -70 74 0 11
-11 28 -24 38 -22 17 -22 20 -8 31 25 16 31 14 38 -13z m-849 -17 c-3 -7 -5
-2 -5 12 0 14 2 19 5 13 2 -7 2 -19 0 -25z m662 -13 c7 -4 9 -22 5 -46 -7 -44
4 -51 36 -19 11 11 29 20 41 20 32 0 19 -32 -17 -42 -18 -4 -35 -18 -42 -32
-15 -33 1 -43 28 -16 11 11 27 20 35 20 8 0 15 5 15 10 0 19 28 10 44 -15 9
-14 25 -25 35 -25 26 0 41 -21 38 -56 -2 -24 2 -30 22 -32 13 -2 26 -12 28
-23 4 -12 15 -20 32 -20 l26 -2 -28 -4 c-15 -2 -38 -15 -52 -27 -24 -22 -24
-23 -4 -39 25 -22 29 -21 29 3 0 24 34 27 56 5 14 -13 19 -13 45 0 26 14 29
14 29 0 0 -8 -11 -22 -25 -31 -29 -19 -31 -27 -10 -48 8 -8 15 -26 15 -40 0
-14 7 -29 15 -34 14 -7 14 -11 1 -37 -8 -15 -19 -31 -24 -34 -5 -3 -12 -18
-16 -33 -7 -30 10 -38 31 -17 8 8 17 8 32 0 24 -13 28 -41 6 -41 -7 0 -18 -7
-23 -16 -13 -24 -72 -10 -72 18 0 11 -8 22 -20 25 -21 5 -28 23 -10 23 6 0 15
11 20 25 5 14 14 25 20 25 5 0 10 11 10 25 0 14 -2 25 -5 25 -13 0 -55 -25
-55 -33 0 -5 -13 5 -30 23 -34 37 -50 32 -50 -15 0 -48 -20 -55 -21 -8 -1 21
-4 49 -9 63 -7 24 -7 23 -15 -13 -4 -20 -11 -39 -15 -42 -10 -6 -37 26 -42 50
-2 12 -13 21 -28 23 -31 5 -60 30 -60 52 0 9 -5 21 -11 27 -6 6 -9 21 -7 34 4
23 5 23 17 -5 7 -18 15 -26 21 -20 10 10 2 54 -10 54 -18 0 -21 59 -6 89 16
30 16 30 -6 22 -15 -6 -22 -16 -21 -30 3 -25 -15 -28 -32 -4 -10 14 -9 23 7
51 14 26 16 37 7 48 -6 8 -15 12 -19 9 -17 -11 -22 19 -6 31 12 9 16 19 11 34
-5 16 -2 23 14 27 12 3 21 12 21 19 0 17 -22 18 -38 2 -9 -9 -12 -7 -12 10 0
12 5 22 10 22 6 0 10 8 11 18 0 13 2 13 9 -4 5 -12 13 -25 19 -29z m716 35
c18 0 22 -4 18 -20 -8 -32 -49 -37 -72 -9 -20 25 -10 44 17 34 8 -3 24 -5 37
-5z m-395 -30 c0 -5 -7 -10 -16 -10 -8 0 -12 5 -9 10 3 6 10 10 16 10 5 0 9
-4 9 -10z m210 0 c0 -5 -9 -10 -21 -10 -11 0 -17 5 -14 10 3 6 13 10 21 10 8
0 14 -4 14 -10z m1215 0 c3 -5 -1 -10 -9 -10 -9 0 -16 5 -16 10 0 6 4 10 9 10
6 0 13 -4 16 -10z m1663 -17 c18 -14 43 -28 55 -29 113 -14 201 -51 256 -108
19 -20 43 -36 54 -36 20 0 131 -110 174 -174 16 -23 42 -57 60 -76 43 -48 73
-87 73 -95 0 -4 11 -20 25 -37 31 -36 32 -64 3 -79 -18 -10 -24 -8 -35 7 -7
10 -11 25 -8 33 7 17 -12 31 -43 31 -14 0 -26 -8 -31 -23 -7 -17 -16 -22 -40
-21 -29 1 -59 14 -33 14 7 0 12 7 12 15 0 8 -7 15 -15 15 -8 0 -18 1 -22 1 -4
1 -15 -11 -24 -27 -19 -36 -53 -43 -69 -15 -16 32 -42 27 -38 -6 3 -26 0 -28
-39 -31 -51 -4 -55 -20 -13 -45 31 -19 37 -31 19 -42 -6 -4 -13 2 -16 14 -3
12 -13 21 -24 21 -11 0 -19 4 -19 9 0 5 -9 12 -19 16 -11 3 -24 20 -30 37 -12
35 -7 48 11 30 15 -15 48 -16 48 -1 0 6 -9 13 -20 16 -24 6 -24 4 -5 39 14 27
13 30 -5 38 -26 12 -25 38 1 55 18 10 19 15 8 22 -22 14 -29 11 -29 -11 0 -21
-15 -27 -25 -9 -4 5 -19 9 -33 7 -19 -2 -28 2 -30 15 -3 13 3 17 26 17 16 0
40 9 53 20 l24 19 -22 1 c-14 0 -23 -6 -23 -15 0 -19 -14 -19 -29 -1 -9 10 -8
15 4 20 25 9 18 36 -10 36 -14 0 -25 -5 -25 -12 0 -6 -6 -3 -14 7 -10 14 -11
25 -4 38 13 25 3 47 -20 47 -11 0 -25 7 -32 15 -7 8 -21 15 -31 15 -26 0 -33
17 -12 29 16 9 16 12 3 21 -8 5 -20 8 -27 5 -6 -2 -23 12 -38 31 -21 28 -24
38 -15 49 15 19 4 35 -24 35 -17 0 -25 8 -33 35 -6 19 -7 33 -3 30 4 -3 19 -1
32 4 37 15 52 13 86 -16z m-4515 10 c-7 -2 -19 -2 -25 0 -7 3 -2 5 12 5 14 0
19 -2 13 -5z m1727 3 c0 -9 -30 -14 -35 -6 -4 6 3 10 14 10 12 0 21 -2 21 -4z
m-2310 -23 c0 -5 -5 -15 -10 -23 -8 -12 -10 -11 -10 8 0 12 5 22 10 22 6 0 10
-3 10 -7z m670 -18 c0 -26 -14 -33 -25 -15 -9 14 1 40 15 40 5 0 10 -11 10
-25z m1370 15 c0 -5 -4 -10 -9 -10 -6 0 -13 5 -16 10 -3 6 1 10 9 10 9 0 16
-4 16 -10z m258 -40 c10 -17 10 -21 -3 -27 -21 -7 -39 11 -32 31 8 22 20 20
35 -4z m-4192 -43 c8 3 14 0 14 -6 0 -6 -4 -11 -9 -11 -6 0 -11 -17 -13 -37
-2 -30 -7 -38 -23 -38 -13 0 -19 6 -17 17 2 12 -6 20 -23 24 -29 7 -28 5 -15
38 8 22 12 24 40 16 17 -5 38 -6 46 -3z m4044 -3 c0 -8 -5 -12 -10 -9 -6 4 -8
11 -5 16 9 14 15 11 15 -7z m110 1 c0 -8 -9 -15 -20 -15 -22 0 -27 15 -7 23
21 9 27 7 27 -8z m-260 -15 c0 -11 -7 -20 -15 -20 -8 0 -15 2 -15 4 0 2 -3 11
-6 20 -4 12 0 16 15 16 14 0 21 -6 21 -20z m1590 -36 c5 -13 14 -24 20 -24 17
0 11 -20 -7 -26 -10 -3 -28 -11 -40 -17 -29 -13 -38 -5 -22 21 10 16 9 24 -4
42 -12 17 -14 27 -6 37 15 17 47 0 59 -33z m-1547 30 c3 -3 3 -12 0 -20 -4
-11 -9 -12 -19 -3 -8 6 -14 15 -14 20 0 10 24 12 33 3z m-2023 -8 c0 -2 -7 -6
-15 -10 -8 -3 -15 -1 -15 4 0 6 7 10 15 10 8 0 15 -2 15 -4z m3483 -3 c-7 -2
-19 -2 -25 0 -7 3 -2 5 12 5 14 0 19 -2 13 -5z m1052 -63 c2 -51 -8 -63 -33
-38 -17 17 -15 58 5 80 22 24 26 18 28 -42z m-6035 16 c0 -3 -4 -8 -10 -11 -5
-3 -10 -1 -10 4 0 6 5 11 10 11 6 0 10 -2 10 -4z m3570 -5 c0 -5 9 -13 20 -16
11 -3 20 -11 20 -16 0 -18 -35 -8 -59 16 -23 25 -23 25 -2 25 12 0 21 -4 21
-9z m2044 -16 c3 -8 1 -15 -4 -15 -6 0 -10 7 -10 15 0 8 2 15 4 15 2 0 6 -7
10 -15z m-2121 -12 c-7 -2 -21 -2 -30 0 -10 3 -4 5 12 5 17 0 24 -2 18 -5z
m172 -23 c3 -5 1 -10 -4 -10 -6 0 -11 5 -11 10 0 6 2 10 4 10 3 0 8 -4 11 -10z
m2278 -7 c-7 -2 -19 -2 -25 0 -7 3 -2 5 12 5 14 0 19 -2 13 -5z m-4523 -50 c0
-18 -27 -16 -34 3 -13 34 -7 45 14 27 11 -10 20 -23 20 -30z m1680 22 c0 -9
-6 -12 -15 -9 -8 4 -12 10 -9 15 8 14 24 10 24 -6z m427 -31 c-3 -3 -12 -4
-19 -1 -8 3 -5 6 6 6 11 1 17 -2 13 -5z m173 -29 c22 -20 18 -35 -9 -35 -10 0
-21 9 -24 20 -4 17 -11 19 -31 14 -23 -5 -35 4 -22 17 11 11 68 0 86 -16z
m-835 -5 c-4 -12 -2 -27 5 -35 6 -8 7 -16 2 -19 -6 -3 -17 5 -25 18 -14 21
-14 24 1 39 23 21 24 20 17 -3z m2445 -22 c0 -18 -2 -20 -9 -8 -6 8 -7 18 -5
22 9 14 14 9 14 -14z m-2162 -27 c22 -13 11 -56 -15 -59 -23 -3 -31 12 -13 23
7 4 7 13 0 26 -12 21 3 26 28 10z m589 -13 c-3 -8 -6 -5 -6 6 -1 11 2 17 5 13
3 -3 4 -12 1 -19z m-109 -17 c28 -24 28 -27 -5 -36 -20 -5 -31 -2 -40 11 -31
42 2 60 45 25z m-778 -16 c0 -16 -6 -25 -15 -25 -16 0 -19 9 -9 34 9 25 24 19
24 -9z m-2680 3 c0 -7 -4 -19 -9 -27 -11 -17 -25 3 -17 24 7 18 26 20 26 3z
m1220 -38 c0 -5 -2 -10 -4 -10 -3 0 -8 5 -11 10 -3 6 -1 10 4 10 6 0 11 -4 11
-10z m1820 -6 c0 -10 -7 -14 -22 -12 -32 5 -35 28 -4 28 17 0 26 -5 26 -16z
m-365 -40 c13 -5 14 -8 3 -15 -20 -13 -38 -11 -38 6 0 16 9 19 35 9z m309 -29
c-7 -18 -8 -18 -14 1 -9 23 -1 39 11 27 6 -6 6 -18 3 -28z m456 17 c0 -10 62
-74 84 -87 23 -13 24 -29 3 -33 -14 -3 -54 31 -94 82 -15 18 -17 46 -3 46 6 0
10 -4 10 -8z m100 -2 c0 -5 -2 -10 -4 -10 -3 0 -8 5 -11 10 -3 6 -1 10 4 10 6
0 11 -4 11 -10z m3090 6 c0 -11 -19 -15 -25 -6 -3 5 1 10 9 10 9 0 16 -2 16
-4z m-3360 -30 c0 -8 -4 -18 -10 -21 -5 -3 -10 3 -10 14 0 12 5 21 10 21 6 0
10 -6 10 -14z m-569 -54 c7 -35 -4 -41 -35 -19 -13 10 -16 20 -11 36 10 32 38
22 46 -17z m903 22 c10 -25 7 -34 -9 -34 -9 0 -15 9 -15 25 0 28 15 34 24 9z
m-418 -20 c10 -12 16 -12 40 1 33 17 40 14 26 -11 -7 -13 -6 -22 4 -32 20 -20
17 -31 -10 -38 -14 -3 -27 -12 -30 -19 -4 -11 -11 -11 -35 -2 -35 13 -41 27
-12 27 26 0 31 10 20 38 -10 26 -59 32 -59 7 0 -9 -9 -15 -25 -15 -27 0 -34
17 -10 26 8 4 15 15 15 25 0 15 5 18 33 13 17 -4 37 -13 43 -20z m-3861 -34
c-3 -5 -10 -10 -16 -10 -5 0 -9 5 -9 10 0 6 7 10 16 10 8 0 12 -4 9 -10z
m1565 -25 c0 -28 -3 -29 -31 -14 -20 10 -20 11 -2 24 26 20 33 18 33 -10z
m5710 -4 c0 -11 -4 -22 -9 -25 -11 -7 -23 22 -15 35 9 16 24 10 24 -10z
m-5910 -1 c0 -13 -11 -13 -30 0 -12 8 -11 10 8 10 12 0 22 -4 22 -10z m2788 3
c-10 -2 -18 -11 -18 -19 0 -9 -10 -14 -32 -13 -23 1 -26 3 -11 6 12 2 27 11
33 19 7 8 20 13 29 13 13 -1 13 -2 -1 -6z m158 -24 c3 -5 -8 -9 -25 -9 -22 0
-29 4 -25 14 5 14 40 11 50 -5z m-956 -9 c0 -5 -2 -10 -4 -10 -3 0 -8 5 -11
10 -3 6 -1 10 4 10 6 0 11 -4 11 -10z m-960 -34 c0 -33 -28 -42 -39 -13 -7 18
-4 23 13 29 11 3 22 6 24 7 1 1 2 -10 2 -23z m1555 13 c10 -15 -1 -22 -24 -14
-12 3 -19 11 -16 16 8 12 32 11 40 -2z m3375 1 c0 -5 -9 -10 -20 -10 -11 0
-20 5 -20 10 0 6 9 10 20 10 11 0 20 -4 20 -10z m-3435 -20 c3 -5 -1 -10 -10
-10 -9 0 -13 5 -10 10 3 6 8 10 10 10 2 0 7 -4 10 -10z m145 -10 c0 -5 -4 -10
-10 -10 -5 0 -10 5 -10 10 0 6 5 10 10 10 6 0 10 -4 10 -10z m97 -42 c-3 -8
-6 -5 -6 6 -1 11 2 17 5 13 3 -3 4 -12 1 -19z m3138 -8 c3 -5 1 -10 -4 -10 -6
0 -11 5 -11 10 0 6 2 10 4 10 3 0 8 -4 11 -10z m-3162 -75 c-7 -21 -13 -19
-13 6 0 11 4 18 10 14 5 -3 7 -12 3 -20z m-4116 -17 c-3 -8 -6 -5 -6 6 -1 11
2 17 5 13 3 -3 4 -12 1 -19z m7390 -24 c-3 -3 -12 -4 -19 -1 -8 3 -5 6 6 6 11
1 17 -2 13 -5z m1373 -102 c17 -13 22 -28 22 -64 0 -25 -6 -56 -12 -68 -26
-49 -33 -91 -40 -255 -6 -151 -11 -183 -39 -280 -59 -196 -80 -284 -115 -485
-9 -52 -25 -124 -36 -160 -11 -36 -36 -132 -55 -215 -46 -191 -63 -249 -92
-308 -27 -55 -51 -60 -65 -12 -27 91 -31 782 -7 980 6 44 14 157 19 250 5 106
16 196 27 239 17 66 21 71 66 98 26 15 47 25 47 22 0 -3 14 3 31 13 38 22 70
65 61 80 -16 25 -4 87 20 108 13 12 27 29 31 38 14 37 100 49 137 19z m-8950
-122 c0 -10 -9 -21 -19 -25 -11 -3 -22 -12 -25 -20 -3 -8 -11 -15 -18 -14 -16
0 -61 56 -55 66 3 5 30 9 61 10 49 2 56 -1 56 -17z m-90 -91 c7 -11 9 -23 6
-26 -9 -9 -57 27 -51 37 10 17 34 11 45 -11z m-427 -26 c-7 -2 -21 -2 -30 0
-10 3 -4 5 12 5 17 0 24 -2 18 -5z m147 -23 c0 -5 -5 -10 -11 -10 -5 0 -7 5
-4 10 3 6 8 10 11 10 2 0 4 -4 4 -10z m4540 -1142 c0 -5 -4 -8 -10 -8 -5 0
-10 10 -10 23 0 18 2 19 10 7 5 -8 10 -18 10 -22z m4892 -96 c-3 -7 -10 -11
-16 -9 -11 4 -11 34 1 77 6 22 7 21 13 -15 3 -22 4 -46 2 -53z m-2382 -57 c0
-8 7 -15 15 -15 10 0 15 -10 15 -29 0 -16 7 -34 15 -41 8 -7 15 -23 15 -36 0
-13 4 -24 9 -24 15 0 22 -49 15 -98 -6 -41 -8 -44 -20 -27 -8 10 -14 34 -14
53 0 25 -4 33 -14 29 -10 -4 -14 5 -14 35 -1 22 -3 43 -6 46 -3 3 -6 -12 -6
-32 0 -22 -4 -36 -11 -34 -13 4 -12 1 -4 84 5 44 4 69 -4 77 -14 14 -14 27 -1
27 6 0 10 -7 10 -15z m-283 -87 c-3 -8 -6 -5 -6 6 -1 11 2 17 5 13 3 -3 4 -12
1 -19z m-6977 -18 c-19 -13 -30 -13 -30 0 0 6 10 10 23 10 18 0 19 -2 7 -10z
m6947 -35 c-10 -7 -17 -15 -17 -20 0 -4 -15 -24 -33 -46 -35 -40 -57 -96 -57
-143 0 -19 -5 -26 -20 -26 -11 0 -20 -7 -20 -15 0 -8 -19 -24 -42 -36 -33 -17
-51 -20 -91 -15 -42 6 -49 5 -44 -9 5 -12 1 -14 -17 -9 -19 4 -27 0 -42 -24
-9 -17 -28 -36 -41 -43 -14 -7 -29 -21 -34 -31 -5 -10 -14 -18 -19 -18 -19 0
-9 27 20 55 17 16 30 32 30 37 0 11 130 138 142 138 5 0 14 5 21 10 13 12 127
96 161 120 12 8 39 34 61 57 21 23 43 39 48 36 6 -3 3 -11 -6 -18z m-3245 -15
c88 -33 168 -115 193 -197 6 -23 5 -23 -97 -23 -89 0 -105 2 -115 18 -18 30
-76 52 -138 52 -75 0 -128 -29 -163 -90 -50 -84 -31 -232 36 -293 48 -44 161
-60 226 -33 34 14 96 81 96 103 0 10 -29 13 -115 13 l-115 0 0 70 0 70 203 -2
202 -3 3 -84 c3 -74 0 -91 -23 -137 -116 -236 -456 -283 -635 -87 -69 76 -93
143 -93 263 0 75 5 107 22 152 43 110 154 203 271 228 64 13 179 4 242 -20z
m533 -127 c37 -82 71 -152 75 -156 4 -4 38 61 77 145 l70 153 107 3 107 3 -49
-93 c-27 -51 -86 -164 -131 -250 l-81 -157 0 -131 0 -130 -95 0 -95 0 0 125 0
125 -130 250 c-71 137 -130 252 -130 255 0 3 47 5 103 5 l104 0 68 -147z m763
57 c18 -47 66 -163 104 -259 l71 -173 105 261 104 261 109 0 109 0 0 -380 0
-380 -95 0 -95 0 -2 213 -3 212 -79 -212 -78 -213 -77 0 -76 0 -80 216 -80
215 -3 -215 -2 -216 -95 0 -95 0 0 380 0 381 112 -3 112 -3 34 -85z m-5403 10
c-3 -5 -13 -10 -21 -10 -8 0 -14 5 -14 10 0 6 9 10 21 10 11 0 17 -4 14 -10z
m12 -116 c-3 -3 -12 -4 -19 -1 -8 3 -5 6 6 6 11 1 17 -2 13 -5z m620 0 c-3 -3
-12 -4 -19 -1 -8 3 -5 6 6 6 11 1 17 -2 13 -5z m8226 -1 c-7 -2 -19 -2 -25 0
-7 3 -2 5 12 5 14 0 19 -2 13 -5z m-8491 -115 c-9 -9 -15 -9 -24 0 -9 9 -7 12
12 12 19 0 21 -3 12 -12z m8775 -55 c-3 -10 -5 -2 -5 17 0 19 2 27 5 18 2 -10
2 -26 0 -35z m-8603 22 c3 -8 13 -15 21 -15 19 0 85 -48 85 -61 0 -12 -77 -11
-85 1 -10 16 -62 12 -69 -5 -8 -23 -42 -18 -71 11 -30 30 -23 48 16 40 22 -4
35 1 55 19 31 29 40 31 48 10z m6334 -126 c1 -8 -4 -23 -12 -34 -15 -19 -15
-18 -16 18 0 27 4 37 13 35 6 -3 13 -11 15 -19z m-6678 -33 c0 -6 14 -25 32
-41 28 -26 39 -30 90 -30 53 0 61 -3 82 -30 13 -16 22 -33 19 -37 -9 -15 -43
-8 -53 12 -12 23 -40 27 -40 6 0 -22 -36 -29 -76 -16 -27 9 -39 9 -47 1 -9 -9
-8 -14 3 -21 8 -5 12 -10 10 -12 -37 -23 -52 -28 -70 -18 -32 17 -48 12 -52
-17 -4 -35 -48 -48 -48 -14 0 33 52 164 75 191 13 14 26 35 30 48 6 22 8 23
26 6 10 -9 19 -22 19 -28z m7383 -101 c4 -24 16 -61 27 -82 11 -21 20 -47 20
-58 0 -11 5 -27 10 -35 8 -12 13 -13 29 -3 25 16 35 2 16 -23 -8 -10 -15 -34
-15 -52 0 -18 -4 -40 -9 -50 -4 -9 -16 -35 -26 -57 -9 -22 -24 -55 -33 -74
-13 -27 -17 -63 -16 -162 0 -74 5 -133 11 -141 6 -7 14 -46 18 -86 4 -39 11
-75 16 -78 13 -7 11 -144 -1 -144 -6 0 -13 7 -16 15 -4 8 -17 15 -30 15 -15 0
-24 6 -24 15 0 18 -12 19 -28 3 -8 -8 -15 -8 -26 1 -9 8 -27 10 -43 7 -25 -6
-31 -1 -53 36 -19 35 -24 55 -23 107 1 35 6 68 12 74 5 5 7 15 5 22 -3 7 3 33
14 57 11 23 25 59 32 79 13 35 15 37 57 35 25 -1 47 2 50 7 2 4 -8 22 -22 39
-24 28 -27 38 -22 81 5 35 3 49 -7 53 -19 7 -33 47 -42 119 -10 89 -6 140 21
218 26 78 46 107 74 107 14 0 20 -10 24 -45z m-736 -28 c7 -23 10 -43 8 -46
-3 -2 -5 1 -5 7 0 7 -7 12 -15 12 -11 0 -15 11 -15 42 0 48 10 43 27 -15z
m-30 -66 c4 -16 10 -18 34 -11 17 5 37 6 46 3 9 -4 19 1 25 11 9 16 11 16 29
-3 11 -12 28 -21 37 -21 10 0 38 -20 62 -45 l45 -46 0 -77 c0 -59 -7 -101 -32
-177 -17 -55 -39 -145 -48 -200 -8 -55 -25 -158 -36 -230 -12 -71 -26 -148
-32 -171 -9 -37 -12 -40 -41 -36 -18 2 -26 0 -20 -5 16 -12 36 -79 32 -105
l-4 -23 -12 25 c-7 14 -21 39 -32 55 -11 17 -23 38 -26 47 -4 10 -10 18 -15
18 -5 0 -23 30 -41 67 l-31 68 1 240 c0 132 5 269 11 305 6 36 13 125 17 198
6 120 18 163 31 113z m-6687 -81 c0 -5 -9 -10 -21 -10 -11 0 -17 5 -14 10 3 6
13 10 21 10 8 0 14 -4 14 -10z m4330 -24 c0 -3 -4 -8 -10 -11 -5 -3 -10 -1
-10 4 0 6 5 11 10 11 6 0 10 -2 10 -4z m-4480 -118 c0 -7 -4 -19 -9 -26 -7
-11 -10 -10 -15 3 -3 9 -4 21 0 26 8 13 24 11 24 -3z m4410 -23 c0 -8 -6 -15
-14 -15 -17 0 -28 14 -19 24 12 12 33 6 33 -9z m-4437 -45 c-3 -11 -11 -20
-18 -20 -10 0 -11 5 -2 24 14 28 28 25 20 -4z m4384 -22 c-3 -8 -6 -5 -6 6 -1
11 2 17 5 13 3 -3 4 -12 1 -19z m4743 -82 c0 -19 -4 -38 -10 -41 -5 -3 -10
-24 -10 -45 0 -30 -7 -48 -30 -72 -21 -24 -29 -28 -30 -16 0 9 5 18 10 20 6 2
13 27 17 56 3 28 10 52 14 52 5 0 9 11 9 24 0 13 3 31 6 40 11 28 24 17 24
-18z m-4690 -59 c0 -19 -20 -36 -36 -30 -8 3 -14 14 -14 24 0 14 7 19 25 19
14 0 25 -6 25 -13z m95 -37 c33 0 32 -5 -12 -45 -24 -22 -48 -35 -66 -35 -15
0 -39 -7 -52 -16 -14 -9 -31 -14 -39 -11 -8 3 -20 -1 -27 -9 -10 -12 -14 -12
-20 -2 -14 21 -10 28 16 28 13 0 28 6 32 14 13 21 51 38 58 25 10 -15 65 40
65 65 1 19 2 19 11 4 5 -10 21 -18 34 -18z m-545 -150 c0 -5 -8 -10 -17 -10
-15 0 -16 2 -3 10 19 12 20 12 20 0z m554 -95 c-6 -26 4 -33 23 -14 6 6 16 8
23 4 17 -10 -56 -74 -129 -112 -30 -17 -31 -17 -31 6 0 11 -13 28 -30 38 -39
23 -34 45 12 56 23 5 40 16 43 28 5 15 16 19 51 19 42 0 44 -1 38 -25z m56
-95 c-6 -11 -15 -20 -20 -20 -16 0 -11 18 8 29 24 14 24 14 12 -9z m-200 2 c0
-13 -12 -22 -22 -16 -10 6 -1 24 13 24 5 0 9 -4 9 -8z m160 -36 c0 -2 -9 -6
-20 -9 -11 -3 -20 -1 -20 4 0 5 9 9 20 9 11 0 20 -2 20 -4z m-35 -86 c-3 -5
-13 -10 -21 -10 -8 0 -14 5 -14 10 0 6 9 10 21 10 11 0 17 -4 14 -10z m3195
-85 c0 -19 -4 -35 -10 -35 -11 0 -14 53 -3 63 11 12 13 8 13 -28z m-2720 5 c0
-5 -8 -10 -19 -10 -10 0 -24 -7 -31 -15 -14 -17 -50 -21 -50 -6 0 17 43 41 72
41 16 0 28 -4 28 -10z m-1805 -30 c-3 -5 -15 -10 -26 -10 -11 0 -17 5 -14 10
3 6 15 10 26 10 11 0 17 -4 14 -10z m3798 -125 c4 -8 2 -17 -3 -20 -6 -4 -10
3 -10 14 0 25 6 27 13 6z m27 -66 c0 -11 -4 -18 -10 -14 -5 3 -7 12 -3 20 7
21 13 19 13 -6z m670 -9 c0 -16 -4 -30 -10 -30 -11 0 -14 43 -3 53 11 12 13 8
13 -23z m-1203 4 c-3 -3 -12 -4 -19 -1 -8 3 -5 6 6 6 11 1 17 -2 13 -5z
m-2932 -24 c3 -5 1 -10 -4 -10 -6 0 -11 5 -11 10 0 6 2 10 4 10 3 0 8 -4 11
-10z m-115 -30 c0 -5 -9 -10 -20 -10 -11 0 -20 5 -20 10 0 6 9 10 20 10 11 0
20 -4 20 -10z m4100 -62 c0 -9 -44 -11 -53 -2 -3 4 1 17 10 31 l16 25 13 -24
c7 -12 13 -26 14 -30z m-87 12 c-13 -15 -30 -20 -65 -20 -27 0 -48 5 -48 10 0
6 15 10 33 10 17 0 39 5 47 10 8 5 23 10 32 10 17 0 17 -1 1 -20z"/>
<path d="M9357 5723 c-10 -9 -8 -33 2 -33 5 0 11 9 14 20 5 20 -3 26 -16 13z"/>
<path d="M5130 5384 c0 -8 5 -12 10 -9 6 4 8 11 5 16 -9 14 -15 11 -15 -7z"/>
<path d="M5630 4660 c0 -5 9 -10 21 -10 11 0 17 5 14 10 -3 6 -13 10 -21 10
-8 0 -14 -4 -14 -10z"/>
<path d="M5707 4613 c-3 -4 -1 -19 4 -32 11 -28 33 -16 27 15 -3 19 -23 30
-31 17z"/>
<path d="M5607 4563 c-13 -13 -7 -39 14 -56 16 -14 24 -16 35 -6 19 15 18 25
-6 49 -21 21 -32 24 -43 13z"/>
<path d="M5650 4466 c0 -8 7 -17 16 -20 9 -3 14 -15 12 -28 -2 -19 2 -23 25
-23 15 1 27 -3 27 -7 0 -14 28 -8 33 7 7 17 -8 29 -28 22 -8 -4 -23 8 -37 29
-24 35 -48 45 -48 20z"/>
<path d="M8940 4710 c0 -5 5 -10 10 -10 6 0 10 5 10 10 0 6 -4 10 -10 10 -5 0
-10 -4 -10 -10z"/>
<path d="M9240 4400 c0 -5 5 -10 10 -10 6 0 10 5 10 10 0 6 -4 10 -10 10 -5 0
-10 -4 -10 -10z"/>
<path d="M9266 4370 c-5 -13 -15 -30 -22 -38 -8 -7 -11 -18 -8 -24 12 -19 46
27 42 58 l-3 29 -9 -25z"/>
<path d="M9436 4303 c-11 -11 -6 -23 8 -23 8 0 17 4 20 9 7 10 -19 23 -28 14z"/>
<path d="M9490 4270 c0 -5 5 -10 10 -10 6 0 10 5 10 10 0 6 -4 10 -10 10 -5 0
-10 -4 -10 -10z"/>
<path d="M9270 4204 c0 -14 3 -14 15 -4 8 7 15 14 15 16 0 2 -7 4 -15 4 -8 0
-15 -7 -15 -16z"/>
<path d="M8233 1045 c0 -22 2 -30 4 -17 2 12 2 30 0 40 -3 9 -5 -1 -4 -23z"/>
<path d="M5568 8323 c6 -2 18 -2 25 0 6 3 1 5 -13 5 -14 0 -19 -2 -12 -5z"/>
<path d="M5010 8240 c0 -5 5 -10 10 -10 6 0 10 5 10 10 0 6 -4 10 -10 10 -5 0
-10 -4 -10 -10z"/>
<path d="M5545 8240 c3 -5 8 -10 11 -10 2 0 4 5 4 10 0 6 -5 10 -11 10 -5 0
-7 -4 -4 -10z"/>
<path d="M5596 8211 c-18 -20 -22 -41 -4 -23 7 7 20 12 30 12 21 0 24 16 4 23
-8 3 -21 -2 -30 -12z"/>
<path d="M5901 8217 c-6 -6 -11 -18 -10 -26 0 -11 2 -12 6 -3 2 6 13 12 23 12
10 0 21 4 24 9 9 13 -31 20 -43 8z"/>
<path d="M4260 8131 c0 -41 14 -62 24 -36 7 20 -4 75 -15 75 -5 0 -9 -18 -9
-39z"/>
<path d="M5544 8124 c3 -9 6 -18 6 -20 0 -3 5 -2 10 1 16 10 12 35 -6 35 -11
0 -14 -5 -10 -16z"/>
<path d="M5630 8130 c0 -5 5 -10 11 -10 5 0 7 5 4 10 -3 6 -8 10 -11 10 -2 0
-4 -4 -4 -10z"/>
<path d="M6020 8095 c0 -8 5 -15 10 -15 6 0 10 7 10 15 0 8 -4 15 -10 15 -5 0
-10 -7 -10 -15z"/>
<path d="M4405 8088 c-10 -26 -2 -43 12 -26 7 8 8 19 3 28 -8 12 -10 12 -15
-2z"/>
<path d="M4360 8020 c-12 -8 -10 -10 8 -10 13 0 20 4 17 10 -7 12 -6 12 -25 0z"/>
<path d="M4322 7915 c0 -16 2 -22 5 -12 2 9 2 23 0 30 -3 6 -5 -1 -5 -18z"/>
<path d="M4986 7902 c-2 -4 -1 -14 5 -22 7 -12 9 -10 9 8 0 23 -5 28 -14 14z"/>
<path d="M4930 7880 c0 -5 7 -10 16 -10 8 0 12 5 9 10 -3 6 -10 10 -16 10 -5
0 -9 -4 -9 -10z"/>
<path d="M5365 7850 c-4 -6 7 -10 25 -10 18 0 29 4 25 10 -3 6 -15 10 -25 10
-10 0 -22 -4 -25 -10z"/>
<path d="M5038 7843 c7 -3 16 -2 19 1 4 3 -2 6 -13 5 -11 0 -14 -3 -6 -6z"/>
<path d="M5568 7843 c7 -3 16 -2 19 1 4 3 -2 6 -13 5 -11 0 -14 -3 -6 -6z"/>
<path d="M4322 7810 c0 -19 2 -27 5 -17 2 9 2 25 0 35 -3 9 -5 1 -5 -18z"/>
<path d="M4976 7831 c-3 -5 0 -21 8 -36 14 -26 15 -26 25 -7 17 31 13 52 -8
52 -11 0 -22 -4 -25 -9z"/>
<path d="M4902 7817 c-15 -18 -25 -57 -14 -57 12 0 42 34 42 48 0 17 -17 23
-28 9z"/>
<path d="M5100 7810 c0 -11 5 -20 10 -20 6 0 10 9 10 20 0 11 -4 20 -10 20 -5
0 -10 -9 -10 -20z"/>
<path d="M4918 7759 c-22 -12 -24 -39 -3 -39 8 0 15 -4 15 -10 0 -18 -22 -11
-46 15 -13 14 -28 25 -34 25 -16 0 -12 -21 8 -36 16 -13 16 -14 -5 -20 -29 -8
-30 -22 -1 -26 25 -4 37 -28 14 -28 -9 0 -21 -11 -26 -25 -5 -14 -14 -25 -19
-25 -5 0 -14 -13 -20 -30 -7 -23 -16 -30 -35 -30 -25 0 -43 -15 -29 -23 5 -2
20 -7 36 -11 20 -5 27 -3 27 9 0 9 11 20 24 25 13 5 31 19 40 31 15 22 16 22
36 4 17 -16 20 -16 26 -2 4 10 -4 26 -22 42 -26 24 -26 25 -5 25 12 0 24 7 27
15 4 8 10 15 14 15 15 0 22 -41 10 -55 -10 -12 -9 -15 4 -15 10 0 23 -14 31
-32 11 -26 15 -29 20 -16 4 9 -1 30 -9 47 -20 38 -20 67 -1 75 20 7 19 26 -1
26 -12 0 -15 7 -11 25 3 18 -2 30 -17 40 -24 17 -26 18 -48 4z"/>
<path d="M5025 7756 c-17 -12 -18 -17 -7 -41 11 -23 17 -26 40 -20 35 9 35 8
27 44 -7 34 -29 40 -60 17z m39 -27 c-3 -5 -10 -7 -15 -3 -5 3 -7 10 -3 15 3
5 10 7 15 3 5 -3 7 -10 3 -15z"/>
<path d="M5408 7763 c7 -3 16 -2 19 1 4 3 -2 6 -13 5 -11 0 -14 -3 -6 -6z"/>
<path d="M5270 7743 c0 -15 9 -18 50 -20 39 -2 50 1 50 13 0 12 -7 14 -29 9
-17 -3 -39 -1 -50 5 -18 9 -21 8 -21 -7z"/>
<path d="M5206 7742 c-3 -6 -1 -14 5 -17 15 -10 25 3 12 16 -7 7 -13 7 -17 1z"/>
<path d="M5605 7740 c-3 -5 1 -10 10 -10 9 0 13 5 10 10 -3 6 -8 10 -10 10 -2
0 -7 -4 -10 -10z"/>
<path d="M5111 7704 c-11 -15 -21 -34 -21 -42 0 -13 -3 -12 -20 3 -19 17 -20
17 -45 -6 -13 -13 -25 -30 -25 -36 0 -19 31 -16 47 5 10 12 16 14 19 5 13 -30
69 3 57 33 -3 8 3 21 13 29 14 10 16 17 8 25 -9 9 -17 5 -33 -16z"/>
<path d="M5465 7710 c-3 -5 1 -10 10 -10 9 0 13 5 10 10 -3 6 -8 10 -10 10 -2
0 -7 -4 -10 -10z"/>
<path d="M5555 7710 c-3 -5 3 -10 15 -10 12 0 18 5 15 10 -3 6 -10 10 -15 10
-5 0 -12 -4 -15 -10z"/>
<path d="M5380 7690 c0 -19 11 -26 23 -14 8 8 -3 34 -14 34 -5 0 -9 -9 -9 -20z"/>
<path d="M5160 7680 c0 -5 5 -10 11 -10 5 0 7 5 4 10 -3 6 -8 10 -11 10 -2 0
-4 -4 -4 -10z"/>
<path d="M5236 7675 c-8 -22 -3 -28 19 -23 14 3 14 5 2 22 -13 18 -14 18 -21
1z"/>
<path d="M4795 7661 c-6 -11 9 -23 19 -14 9 9 7 23 -3 23 -6 0 -12 -4 -16 -9z"/>
<path d="M5427 7664 c-8 -8 1 -24 14 -24 5 0 9 7 9 15 0 15 -12 20 -23 9z"/>
<path d="M5599 7630 c17 -17 31 -35 31 -40 0 -6 5 -10 10 -10 6 0 10 8 10 18
0 22 -42 62 -65 62 -14 0 -11 -7 14 -30z"/>
<path d="M3357 7639 c-53 -12 -82 -34 -116 -86 -49 -73 -56 -134 -36 -293 10
-81 23 -147 33 -165 14 -24 16 -38 8 -67 -5 -21 -6 -41 -3 -45 7 -6 114 34
174 65 102 54 122 67 158 97 31 26 37 36 28 46 -9 9 -9 17 -1 33 19 33 13 198
-9 258 -24 68 -90 141 -141 156 -44 13 -43 13 -95 1z"/>
<path d="M5145 7630 c-3 -5 3 -10 15 -10 12 0 18 5 15 10 -3 6 -10 10 -15 10
-5 0 -12 -4 -15 -10z"/>
<path d="M5460 7620 c0 -5 7 -10 15 -10 8 0 15 5 15 10 0 6 -7 10 -15 10 -8 0
-15 -4 -15 -10z"/>
<path d="M5504 7605 c-4 -8 -11 -15 -18 -15 -11 0 -56 -43 -56 -54 0 -19 67 6
83 32 13 19 24 14 31 -14 6 -24 8 -25 25 -10 10 9 26 16 36 16 15 0 14 3 -6
18 -61 44 -86 51 -95 27z"/>
<path d="M5040 7595 c0 -8 7 -15 15 -15 8 0 15 7 15 15 0 8 -7 15 -15 15 -8 0
-15 -7 -15 -15z"/>
<path d="M5330 7600 c0 -5 5 -10 11 -10 5 0 7 5 4 10 -3 6 -8 10 -11 10 -2 0
-4 -4 -4 -10z"/>
<path d="M5410 7600 c0 -5 12 -10 28 -9 24 0 25 1 7 9 -27 12 -35 12 -35 0z"/>
<path d="M2425 7576 c-110 -50 -175 -175 -175 -337 0 -73 3 -89 20 -104 11
-10 20 -26 20 -36 0 -10 5 -21 10 -24 6 -3 10 -15 10 -26 0 -28 39 -146 66
-201 31 -61 60 -69 214 -61 115 6 117 5 133 -18 10 -13 17 -18 17 -12 0 7 8
20 18 30 10 10 30 55 45 100 24 71 28 99 28 196 0 115 -18 243 -47 344 -41
140 -218 214 -359 149z"/>
<path d="M5235 7590 c4 -6 11 -8 16 -5 14 9 11 15 -7 15 -8 0 -12 -5 -9 -10z"/>
<path d="M5660 7555 c0 -8 2 -15 4 -15 2 0 6 7 10 15 3 8 1 15 -4 15 -6 0 -10
-7 -10 -15z"/>
<path d="M5380 7544 c0 -8 5 -12 10 -9 6 3 10 10 10 16 0 5 -4 9 -10 9 -5 0
-10 -7 -10 -16z"/>
<path d="M5485 7520 c-3 -5 -1 -10 4 -10 6 0 11 5 11 10 0 6 -2 10 -4 10 -3 0
-8 -4 -11 -10z"/>
<path d="M7485 7386 c-121 -44 -203 -95 -248 -154 -42 -56 -45 -66 -17 -57 15
5 18 3 14 -9 -4 -9 -1 -23 6 -31 10 -12 9 -16 -4 -21 -9 -3 -16 -10 -16 -15 0
-13 34 -11 48 3 9 9 15 9 24 0 9 -9 7 -12 -10 -12 -14 0 -22 -6 -22 -16 0 -12
7 -15 28 -11 89 18 114 26 131 41 22 20 70 21 105 2 21 -10 36 -11 66 -4 22 6
40 13 40 17 0 4 24 24 53 45 67 49 92 82 101 128 6 33 3 42 -26 73 -58 64
-138 70 -273 21z"/>
<path d="M5704 7325 c-18 -13 -18 -14 9 -20 15 -4 27 -11 27 -16 0 -5 11 -14
25 -19 15 -6 25 -17 25 -29 0 -22 56 -61 88 -61 11 0 24 -4 27 -10 9 -15 31
-12 49 6 21 21 20 40 -4 64 -26 26 -25 40 2 40 17 0 19 3 10 12 -8 8 -15 8
-27 -2 -14 -12 -20 -10 -42 14 -15 16 -31 25 -40 22 -9 -4 -22 -1 -31 6 -12
11 -17 9 -30 -10 -16 -25 -52 -30 -52 -8 0 22 -15 27 -36 11z"/>
<path d="M4605 7285 c-22 -8 -41 -15 -42 -15 -2 0 -3 -11 -3 -24 0 -27 -24
-56 -46 -56 -21 0 -17 -25 10 -56 l23 -28 18 27 c9 15 23 27 29 27 18 0 114
96 118 117 4 24 -52 28 -107 8z"/>
<path d="M4460 7170 c0 -5 7 -7 15 -4 8 4 15 8 15 10 0 2 -7 4 -15 4 -8 0 -15
-4 -15 -10z"/>
<path d="M4748 7173 c7 -3 16 -2 19 1 4 3 -2 6 -13 5 -11 0 -14 -3 -6 -6z"/>
<path d="M7312 7048 c5 -15 48 -24 48 -10 0 10 -23 22 -42 22 -5 0 -8 -6 -6
-12z"/>
<path d="M6220 7029 c0 -5 5 -7 10 -4 6 3 10 8 10 11 0 2 -4 4 -10 4 -5 0 -10
-5 -10 -11z"/>
<path d="M7528 7005 c-6 -14 -17 -25 -25 -25 -7 0 -13 -7 -13 -15 0 -8 4 -15
9 -15 5 0 16 -6 23 -12 18 -17 48 -36 75 -47 11 -6 24 -15 28 -20 3 -6 14 -11
25 -11 10 0 21 -8 24 -17 5 -12 10 -13 18 -5 8 8 8 15 -2 26 -7 10 -10 26 -6
42 5 20 3 27 -14 31 -22 6 -26 18 -10 28 17 11 11 23 -24 44 -47 30 -93 28
-108 -4z"/>
<path d="M3956 7011 c-4 -5 -2 -12 3 -15 5 -4 12 -2 15 3 4 5 2 12 -3 15 -5 4
-12 2 -15 -3z"/>
<path d="M4036 7011 c-4 -5 -2 -12 3 -15 5 -4 12 -2 15 3 4 5 2 12 -3 15 -5 4
-12 2 -15 -3z"/>
<path d="M4090 6994 c0 -8 5 -12 10 -9 6 3 10 10 10 16 0 5 -4 9 -10 9 -5 0
-10 -7 -10 -16z"/>
<path d="M7458 6983 c7 -3 16 -2 19 1 4 3 -2 6 -13 5 -11 0 -14 -3 -6 -6z"/>
<path d="M3922 6948 c6 -18 28 -21 28 -4 0 9 -7 16 -16 16 -9 0 -14 -5 -12
-12z"/>
<path d="M6084 6915 c-32 -28 -21 -33 22 -10 16 8 38 15 49 15 17 0 17 2 5 10
-24 16 -45 12 -76 -15z"/>
<path d="M3930 6890 c0 -5 -7 -10 -15 -10 -8 0 -15 -6 -15 -14 0 -9 7 -12 20
-9 17 4 30 43 15 43 -3 0 -5 -4 -5 -10z"/>
<path d="M5240 6870 c0 -5 7 -10 15 -10 8 0 23 -9 32 -20 21 -24 33 -26 33 -5
0 8 -7 15 -15 15 -8 0 -15 7 -15 15 0 9 -9 15 -25 15 -14 0 -25 -4 -25 -10z"/>
<path d="M6015 6851 c-7 -12 12 -24 25 -16 11 7 4 25 -10 25 -5 0 -11 -4 -15
-9z"/>
<path d="M5350 6840 c0 -5 5 -10 10 -10 6 0 10 5 10 10 0 6 -4 10 -10 10 -5 0
-10 -4 -10 -10z"/>
<path d="M5282 6782 c-47 -43 -58 -73 -17 -46 14 9 25 20 25 25 0 5 11 14 25
19 14 5 25 16 25 25 0 23 -13 18 -58 -23z"/>
<path d="M2843 6725 c-52 -23 -57 -31 -54 -67 1 -10 -4 -18 -12 -18 -14 0 -31
-39 -22 -49 3 -2 5 1 5 7 0 7 7 12 15 12 8 0 15 7 15 15 0 8 5 15 10 15 13 0
100 88 100 101 0 12 3 13 -57 -16z"/>
<path d="M5130 6716 c0 -17 38 -41 48 -30 4 4 1 9 -6 11 -7 3 -19 11 -27 20
-13 13 -15 13 -15 -1z"/>
<path d="M5051 6707 c-1 -13 26 -62 42 -75 10 -9 18 -8 32 2 18 13 18 14 -2
20 -12 4 -24 13 -27 21 -3 8 -12 15 -20 15 -8 0 -17 6 -19 13 -3 6 -6 8 -6 4z"/>
<path d="M5290 6700 c0 -5 6 -10 14 -10 8 0 18 5 21 10 3 6 -3 10 -14 10 -12
0 -21 -4 -21 -10z"/>
<path d="M5271 6674 c0 -11 3 -14 6 -6 3 7 2 16 -1 19 -3 4 -6 -2 -5 -13z"/>
<path d="M5008 6668 c9 -9 15 -9 24 0 9 9 7 12 -12 12 -19 0 -21 -3 -12 -12z"/>
<path d="M5147 6610 c-4 -16 -11 -18 -43 -13 -35 6 -37 5 -31 -18 4 -13 7 -32
7 -41 0 -10 15 -24 35 -34 42 -20 50 -30 30 -38 -8 -3 -18 0 -22 7 -5 7 -21
18 -37 25 -25 11 -31 11 -45 -4 -12 -13 -13 -17 -3 -21 7 -3 38 -24 70 -48 43
-33 60 -41 70 -32 10 8 18 5 34 -10 17 -17 18 -24 8 -43 -14 -26 3 -70 27 -70
9 0 13 -8 12 -22 -4 -28 9 -51 22 -42 6 3 8 27 4 59 -4 32 -3 55 3 59 12 7
-27 159 -46 178 -6 6 -12 20 -12 29 0 20 -30 80 -45 91 -18 13 -33 9 -38 -12z"/>
<path d="M4950 6590 c0 -5 14 -10 31 -10 17 0 28 4 24 10 -3 6 -17 10 -31 10
-13 0 -24 -4 -24 -10z"/>
<path d="M5441 6554 c0 -11 3 -14 6 -6 3 7 2 16 -1 19 -3 4 -6 -2 -5 -13z"/>
<path d="M7770 6555 c-15 -18 -47 -20 -53 -2 -3 9 -7 9 -20 -1 -12 -10 -19
-11 -35 -1 -23 14 -136 -4 -162 -26 -11 -9 -32 -10 -73 -6 -46 6 -63 4 -84
-10 -20 -13 -31 -15 -48 -7 -17 8 -33 4 -73 -16 -71 -36 -113 -35 -136 5 -19
32 -39 34 -45 3 -6 -35 -33 -56 -63 -50 l-28 6 20 -22 c20 -22 27 -72 12 -82
-5 -3 -7 -18 -4 -35 3 -22 -1 -32 -17 -41 -15 -8 -20 -17 -16 -30 3 -10 1 -21
-5 -25 -22 -14 -9 -27 20 -21 23 4 30 2 30 -11 0 -9 -8 -22 -17 -29 -17 -13
-17 -15 0 -28 17 -13 17 -15 -3 -29 l-21 -14 22 -6 c17 -5 20 -11 15 -31 -3
-14 -2 -28 4 -31 5 -3 10 -15 10 -26 0 -21 22 -35 40 -24 8 5 7 12 -3 23 -14
17 -15 59 -3 107 3 13 2 27 -4 30 -13 8 -13 45 0 45 25 0 20 32 -9 65 -35 40
-39 60 -15 69 13 5 14 9 4 21 -11 13 -6 15 34 15 35 0 46 -4 46 -16 0 -13 8
-14 48 -8 26 3 53 11 61 17 10 8 16 7 25 -5 10 -13 15 -14 35 -3 27 14 132 12
193 -3 33 -9 38 -7 43 9 7 23 35 26 35 4 0 -8 5 -15 10 -15 6 0 13 7 16 15 4
8 11 15 18 15 6 0 28 11 48 25 l36 24 16 -22 c14 -20 16 -21 26 -4 6 9 19 17
29 17 12 0 20 10 24 29 6 28 9 29 42 24 35 -6 50 9 20 21 -22 8 -18 44 5 51
25 8 26 31 1 45 -26 14 -36 13 -51 -5z"/>
<path d="M4990 6504 c0 -8 5 -12 10 -9 6 3 10 10 10 16 0 5 -4 9 -10 9 -5 0
-10 -7 -10 -16z"/>
<path d="M5320 6510 c0 -5 5 -10 10 -10 6 0 10 5 10 10 0 6 -4 10 -10 10 -5 0
-10 -4 -10 -10z"/>
<path d="M7142 6511 c2 -7 7 -12 11 -12 12 1 9 15 -3 20 -7 2 -11 -2 -8 -8z"/>
<path d="M5367 6489 c-18 -20 -17 -22 31 -32 20 -5 23 -2 20 21 -4 33 -27 38
-51 11z"/>
<path d="M7866 6495 c4 -8 8 -15 10 -15 2 0 4 7 4 15 0 8 -4 15 -10 15 -5 0
-7 -7 -4 -15z"/>
<path d="M3360 6414 c-10 -26 -12 -26 -72 -20 -34 4 -70 12 -79 17 -10 5 -27
9 -38 9 -16 0 -21 -6 -21 -27 0 -22 -2 -25 -10 -13 -9 13 -11 13 -19 0 -13
-19 17 -53 41 -47 11 3 18 0 18 -9 0 -8 7 -14 15 -14 9 0 20 -11 25 -24 12
-32 43 -49 59 -33 10 9 15 8 26 -7 12 -15 17 -17 29 -7 9 8 15 8 18 1 4 -14
108 -26 108 -12 0 23 32 21 57 -4 16 -16 29 -22 35 -16 5 5 32 7 59 4 46 -4
53 -2 78 25 15 17 34 33 42 36 11 5 9 10 -8 23 -13 9 -23 22 -23 30 0 7 -9 18
-20 24 -15 8 -19 17 -15 31 6 16 1 19 -32 19 -21 1 -48 7 -61 14 -20 11 -30 9
-70 -10 l-46 -22 -27 29 c-34 36 -56 37 -69 3z m275 -44 c3 -5 1 -10 -4 -10
-6 0 -11 5 -11 10 0 6 2 10 4 10 3 0 8 -4 11 -10z"/>
<path d="M3446 6433 c-11 -11 -6 -23 9 -23 8 0 15 4 15 9 0 13 -16 22 -24 14z"/>
<path d="M5380 6415 c-18 -19 -20 -27 -11 -39 9 -11 8 -15 -4 -20 -19 -7 -21
-70 -2 -64 6 3 13 17 15 31 2 19 9 27 23 27 16 0 19 7 19 45 0 51 -7 55 -40
20z"/>
<path d="M3740 6390 c0 -5 6 -10 14 -10 8 0 18 5 21 10 3 6 -3 10 -14 10 -12
0 -21 -4 -21 -10z"/>
<path d="M7023 6278 c2 -7 12 -13 22 -13 10 0 20 6 23 13 2 7 -6 12 -23 12
-17 0 -25 -5 -22 -12z"/>
<path d="M7336 6165 c-10 -28 -7 -35 19 -35 30 0 32 11 6 34 -17 15 -19 15
-25 1z"/>
<path d="M3310 6140 c0 -5 5 -10 10 -10 6 0 10 5 10 10 0 6 -4 10 -10 10 -5 0
-10 -4 -10 -10z"/>
<path d="M3247 6109 c-16 -24 -17 -24 -33 -4 -16 20 -16 20 -12 -1 4 -17 1
-20 -17 -16 -13 2 -33 -2 -46 -8 -19 -11 -24 -10 -34 4 -7 9 -19 14 -27 11
-12 -5 -9 -12 14 -36 16 -16 35 -29 42 -29 16 0 42 -29 50 -56 9 -28 52 -68
65 -59 6 3 11 15 11 25 0 17 3 17 27 -6 25 -24 27 -24 43 -6 10 10 21 33 25
50 7 35 14 39 34 20 10 -11 16 -8 33 15 19 26 48 37 48 17 0 -5 7 -10 16 -10
13 0 12 5 -7 24 -24 25 -59 24 -59 -1 0 -22 -33 -11 -46 15 -16 33 -20 35 -42
21 -23 -14 -49 0 -61 34 -7 18 -8 18 -24 -4z"/>
<path d="M8170 6062 c0 -11 57 -38 123 -58 44 -13 61 -14 69 -6 9 9 4 12 -21
12 -18 0 -39 7 -47 15 -9 8 -25 15 -37 15 -12 1 -33 7 -47 15 -29 16 -40 18
-40 7z"/>
<path d="M8390 6010 c0 -5 9 -10 21 -10 11 0 17 5 14 10 -3 6 -13 10 -21 10
-8 0 -14 -4 -14 -10z"/>
<path d="M5876 5982 c-2 -4 -1 -14 4 -22 7 -11 12 -12 21 -3 6 6 8 16 5 22 -8
13 -23 14 -30 3z"/>
<path d="M8790 5980 c0 -5 5 -10 10 -10 6 0 10 5 10 10 0 6 -4 10 -10 10 -5 0
-10 -4 -10 -10z"/>
<path d="M3782 5957 c-7 -8 -10 -21 -7 -29 3 -8 0 -20 -8 -27 -12 -10 -12 -16
2 -46 9 -19 21 -34 27 -35 6 0 14 -13 18 -30 3 -16 12 -30 19 -30 8 0 22 -9
32 -20 10 -11 30 -20 46 -20 25 0 26 2 16 25 -7 14 -15 25 -19 25 -5 0 -8 9
-8 20 0 26 16 26 23 -1 3 -12 10 -18 16 -14 14 8 14 35 1 35 -6 0 -15 10 -21
23 -23 50 -39 71 -66 85 -15 8 -35 23 -44 34 -13 17 -17 18 -27 5z m75 -123
c-3 -3 -12 -4 -19 -1 -8 3 -5 6 6 6 11 1 17 -2 13 -5z"/>
<path d="M6975 5950 c-3 -5 -1 -10 4 -10 6 0 11 5 11 10 0 6 -2 10 -4 10 -3 0
-8 -4 -11 -10z"/>
<path d="M3115 5940 c4 -6 11 -8 16 -5 14 9 11 15 -7 15 -8 0 -12 -5 -9 -10z"/>
<path d="M3420 5940 c0 -5 5 -10 10 -10 6 0 10 5 10 10 0 6 -4 10 -10 10 -5 0
-10 -4 -10 -10z"/>
<path d="M3370 5920 c0 -5 5 -10 11 -10 5 0 7 5 4 10 -3 6 -8 10 -11 10 -2 0
-4 -4 -4 -10z"/>
<path d="M9126 5873 c-11 -11 -6 -23 9 -23 8 0 15 4 15 9 0 13 -16 22 -24 14z"/>
<path d="M8628 5821 c-10 -10 -15 -21 -11 -24 11 -12 23 -8 23 8 0 8 7 15 15
15 8 0 15 5 15 10 0 16 -23 11 -42 -9z"/>
<path d="M8701 5806 c-23 -23 -32 -39 -27 -51 4 -10 12 -15 22 -11 9 3 20 6
25 6 5 0 9 16 9 35 0 24 5 35 15 35 8 0 15 5 15 10 0 19 -25 9 -59 -24z"/>
<path d="M8770 5806 c0 -9 30 -14 35 -6 4 6 -3 10 -14 10 -12 0 -21 -2 -21 -4z"/>
<path d="M8782 5763 c-21 -15 -22 -17 -6 -34 28 -31 44 -24 37 14 -3 17 -6 33
-7 33 -1 1 -11 -5 -24 -13z"/>
<path d="M8165 5750 c-3 -5 1 -10 9 -10 9 0 16 5 16 10 0 6 -4 10 -9 10 -6 0
-13 -4 -16 -10z"/>
<path d="M4920 5690 c19 -13 30 -13 30 0 0 6 -10 10 -22 10 -19 0 -20 -2 -8
-10z"/>
<path d="M3310 5662 c0 -4 9 -13 20 -20 18 -11 20 -10 20 8 0 13 -7 20 -20 20
-11 0 -20 -3 -20 -8z"/>
<path d="M4200 5650 c0 -11 5 -20 10 -20 6 0 10 6 10 14 0 8 6 17 13 19 6 3 2
6 -10 6 -17 1 -23 -5 -23 -19z"/>
<path d="M5070 5661 c0 -6 5 -13 10 -16 6 -3 10 1 10 9 0 9 -4 16 -10 16 -5 0
-10 -4 -10 -9z"/>
<path d="M8863 5663 c-18 -7 -16 -33 2 -33 8 0 15 2 15 4 0 2 3 11 6 20 6 16
0 19 -23 9z"/>
<path d="M3110 5643 c0 -4 5 -15 10 -23 8 -13 10 -13 10 2 0 9 -4 20 -10 23
-5 3 -10 3 -10 -2z"/>
<path d="M3272 5626 c7 -8 15 -12 17 -11 5 6 -10 25 -20 25 -5 0 -4 -6 3 -14z"/>
<path d="M4987 5623 c-12 -11 -8 -22 14 -33 15 -9 24 -8 36 1 13 12 13 14 -3
26 -20 14 -37 17 -47 6z"/>
<path d="M7030 5616 c0 -9 5 -16 10 -16 6 0 10 4 10 9 0 6 -4 13 -10 16 -5 3
-10 -1 -10 -9z"/>
<path d="M8880 5617 c0 -8 9 -22 19 -31 18 -17 20 -16 26 3 3 12 3 25 0 31 -9
15 -45 12 -45 -3z"/>
<path d="M4317 5571 c3 -12 10 -21 15 -21 13 0 6 32 -9 37 -7 3 -9 -3 -6 -16z"/>
<path d="M5574 5579 c-3 -6 -1 -16 5 -22 8 -8 11 -5 11 11 0 24 -5 28 -16 11z"/>
<path d="M3201 5564 c0 -11 3 -14 6 -6 3 7 2 16 -1 19 -3 4 -6 -2 -5 -13z"/>
<path d="M3285 5550 c3 -5 8 -10 11 -10 2 0 4 5 4 10 0 6 -5 10 -11 10 -5 0
-7 -4 -4 -10z"/>
<path d="M4427 5535 c-4 -8 -2 -17 3 -20 6 -4 10 3 10 14 0 25 -6 27 -13 6z"/>
<path d="M4705 5542 c-21 -22 26 -48 55 -30 11 7 19 17 17 22 -3 10 -63 17
-72 8z"/>
<path d="M4932 5525 c-15 -33 -15 -35 3 -35 10 0 15 10 15 30 0 37 -3 37 -18
5z"/>
<path d="M4985 5528 c-8 -21 1 -38 21 -38 18 0 18 11 0 36 -13 17 -15 18 -21
2z"/>
<path d="M5630 5520 c0 -5 5 -10 10 -10 6 0 10 5 10 10 0 6 -4 10 -10 10 -5 0
-10 -4 -10 -10z"/>
<path d="M6866 5511 c-4 -7 -5 -15 -2 -18 9 -9 19 4 14 18 -4 11 -6 11 -12 0z"/>
<path d="M3784 5497 c-3 -9 -3 -25 1 -34 6 -16 8 -16 18 5 7 16 7 26 -1 34 -8
8 -13 7 -18 -5z"/>
<path d="M5995 5481 c-3 -5 -1 -12 5 -16 5 -3 10 1 10 9 0 18 -6 21 -15 7z"/>
<path d="M4150 5470 c0 -5 5 -10 10 -10 6 0 10 5 10 10 0 6 -4 10 -10 10 -5 0
-10 -4 -10 -10z"/>
<path d="M4814 5449 c-10 -17 13 -36 27 -22 12 12 4 33 -11 33 -5 0 -12 -5
-16 -11z"/>
<path d="M3110 5443 c0 -5 5 -15 10 -23 8 -12 10 -11 10 8 0 12 -4 22 -10 22
-5 0 -10 -3 -10 -7z"/>
<path d="M4594 5417 c-5 -8 -17 -16 -27 -18 -28 -6 -25 -24 5 -27 19 -2 30 3
38 18 14 26 -2 52 -16 27z"/>
<path d="M6127 5400 c3 -11 12 -20 20 -20 10 0 13 6 9 16 -3 9 -6 18 -6 20 0
2 -6 4 -14 4 -9 0 -12 -7 -9 -20z"/>
<path d="M4290 5401 c0 -5 -8 -12 -17 -14 -14 -4 -12 -5 5 -6 13 -1 22 5 22
14 0 8 -2 15 -5 15 -3 0 -5 -4 -5 -9z"/>
<path d="M6765 5390 c-3 -5 3 -10 14 -10 12 0 21 5 21 10 0 6 -6 10 -14 10 -8
0 -18 -4 -21 -10z"/>
<path d="M3878 5383 c6 -2 18 -2 25 0 6 3 1 5 -13 5 -14 0 -19 -2 -12 -5z"/>
<path d="M4159 5383 c-18 -4 -43 -52 -33 -62 4 -3 9 0 11 7 3 6 11 12 19 12 8
0 17 7 20 15 4 8 15 15 25 15 10 0 19 5 19 10 0 10 -30 12 -61 3z"/>
<path d="M4708 5383 c7 -3 16 -2 19 1 4 3 -2 6 -13 5 -11 0 -14 -3 -6 -6z"/>
<path d="M2215 5370 c-10 -17 12 -37 25 -24 8 8 6 15 -4 23 -10 9 -16 9 -21 1z"/>
<path d="M5765 5361 c-7 -12 12 -24 25 -16 11 7 4 25 -10 25 -5 0 -11 -4 -15
-9z"/>
<path d="M6722 5359 c2 -6 8 -10 13 -10 5 0 11 4 13 10 2 6 -4 11 -13 11 -9 0
-15 -5 -13 -11z"/>
<path d="M4380 5343 c0 -10 4 -14 8 -8 4 6 11 13 16 18 5 4 2 7 -7 7 -10 0
-17 -8 -17 -17z"/>
<path d="M6160 5340 c0 -11 5 -20 10 -20 6 0 10 9 10 20 0 11 -4 20 -10 20 -5
0 -10 -9 -10 -20z"/>
<path d="M3720 5341 c0 -23 14 -41 31 -41 23 0 26 35 3 44 -22 9 -34 7 -34 -3z"/>
<path d="M6220 5336 c0 -9 5 -16 10 -16 6 0 10 4 10 9 0 6 -4 13 -10 16 -5 3
-10 -1 -10 -9z"/>
<path d="M3060 5329 c0 -5 5 -7 10 -4 6 3 10 8 10 11 0 2 -4 4 -10 4 -5 0 -10
-5 -10 -11z"/>
<path d="M3820 5325 c0 -9 6 -12 15 -9 8 4 15 10 15 15 0 5 -7 9 -15 9 -8 0
-15 -7 -15 -15z"/>
<path d="M3670 5300 c0 -5 5 -10 10 -10 6 0 10 5 10 10 0 6 -4 10 -10 10 -5 0
-10 -4 -10 -10z"/>
<path d="M4630 5300 c0 -5 7 -10 15 -10 8 0 15 5 15 10 0 6 -7 10 -15 10 -8 0
-15 -4 -15 -10z"/>
<path d="M1435 5268 c-10 -15 -11 -24 -5 -26 12 -4 50 26 50 40 0 17 -29 7
-45 -14z"/>
<path d="M5735 5280 c-3 -5 1 -10 10 -10 9 0 13 5 10 10 -3 6 -8 10 -10 10 -2
0 -7 -4 -10 -10z"/>
<path d="M6190 5280 c0 -5 5 -10 10 -10 6 0 10 5 10 10 0 6 -4 10 -10 10 -5 0
-10 -4 -10 -10z"/>
<path d="M6472 5253 c4 -19 30 -28 55 -19 23 9 -3 36 -34 36 -18 0 -24 -5 -21
-17z"/>
<path d="M3726 5253 c-3 -4 -6 -16 -6 -28 0 -12 3 -24 6 -28 12 -12 34 6 34
28 0 22 -22 40 -34 28z"/>
<path d="M5690 5250 c0 -5 7 -10 16 -10 8 0 12 5 9 10 -3 6 -10 10 -16 10 -5
0 -9 -4 -9 -10z"/>
<path d="M1860 5229 c0 -25 33 -22 38 4 2 12 -3 17 -17 17 -15 0 -21 -6 -21
-21z"/>
<path d="M7318 5243 c7 -3 16 -2 19 1 4 3 -2 6 -13 5 -11 0 -14 -3 -6 -6z"/>
<path d="M7670 5240 c0 -5 5 -10 10 -10 6 0 10 5 10 10 0 6 -4 10 -10 10 -5 0
-10 -4 -10 -10z"/>
<path d="M7220 5216 c0 -22 17 -28 24 -10 9 22 8 24 -9 24 -8 0 -15 -6 -15
-14z"/>
<path d="M7509 5223 c-1 -4 -1 -12 0 -16 1 -4 -3 -17 -9 -27 -9 -17 -7 -20 15
-26 34 -8 42 1 21 25 -10 11 -15 24 -12 30 4 5 2 12 -4 16 -5 3 -11 3 -11 -2z"/>
<path d="M7396 5205 c-3 -8 -1 -15 4 -15 6 0 10 7 10 15 0 8 -2 15 -4 15 -2 0
-6 -7 -10 -15z"/>
<path d="M1345 5199 c-7 -11 15 -35 53 -57 25 -14 66 0 59 21 -5 17 -34 21
-40 5 -2 -7 -2 0 1 17 4 27 3 28 -12 16 -13 -11 -20 -11 -28 -3 -15 15 -25 15
-33 1z"/>
<path d="M4430 5196 c0 -9 7 -16 16 -16 17 0 14 22 -4 28 -7 2 -12 -3 -12 -12z"/>
<path d="M5792 5194 c4 -21 22 -23 26 -1 2 10 -3 17 -13 17 -10 0 -15 -6 -13
-16z"/>
<path d="M1800 5190 c0 -5 5 -10 10 -10 6 0 10 5 10 10 0 6 -4 10 -10 10 -5 0
-10 -4 -10 -10z"/>
<path d="M4380 5173 c0 -12 53 -54 59 -47 3 4 0 9 -6 11 -7 3 -13 11 -13 18 0
7 -9 15 -20 18 -11 3 -20 3 -20 0z"/>
<path d="M4502 5168 c-7 -7 -12 -19 -11 -27 0 -11 2 -12 6 -3 2 6 11 12 19 12
8 0 14 7 14 15 0 18 -12 19 -28 3z"/>
<path d="M4645 5157 c-20 -29 -19 -37 5 -37 16 0 40 26 40 43 0 17 -32 13 -45
-6z"/>
<path d="M6416 5171 c-3 -4 6 -13 19 -19 25 -12 42 -1 30 18 -8 12 -42 13 -49
1z"/>
<path d="M5830 5154 c0 -9 5 -14 12 -12 18 6 21 28 4 28 -9 0 -16 -7 -16 -16z"/>
<path d="M6391 5144 c0 -11 3 -14 6 -6 3 7 2 16 -1 19 -3 4 -6 -2 -5 -13z"/>
<path d="M7622 5140 c0 -14 2 -19 5 -12 2 6 2 18 0 25 -3 6 -5 1 -5 -13z"/>
<path d="M1130 5108 c0 -78 22 -303 31 -312 5 -6 9 -45 9 -88 0 -61 3 -80 15
-84 9 -4 15 -19 15 -38 0 -17 7 -40 15 -50 8 -11 15 -39 15 -62 0 -58 14 -62
46 -15 14 22 35 43 45 46 10 3 21 15 24 25 3 10 21 24 39 30 19 6 42 20 52 32
11 11 28 24 39 30 30 14 61 32 80 48 9 8 30 13 45 12 32 -2 50 15 26 24 -9 3
-16 13 -16 21 0 19 -46 63 -66 63 -16 0 -19 16 -4 25 6 4 3 16 -10 32 -11 14
-20 33 -20 43 0 28 -11 31 -38 10 -13 -11 -33 -20 -42 -20 -25 0 -34 30 -14
45 14 10 14 14 4 20 -9 5 -15 4 -18 -3 -5 -15 -38 -16 -47 -2 -4 6 -4 24 0 40
5 23 12 30 31 30 13 0 24 -4 24 -9 0 -5 10 -13 23 -17 12 -4 25 -12 29 -18 4
-6 10 -7 14 -3 4 4 -4 17 -18 30 -14 13 -28 35 -32 50 -9 38 -71 97 -101 97
-14 0 -25 -4 -25 -10 0 -5 -6 -10 -14 -10 -20 0 -28 -32 -20 -75 5 -31 4 -35
-15 -35 -12 0 -21 6 -21 15 0 8 -9 15 -20 15 -11 0 -20 5 -20 10 0 6 7 10 15
10 26 0 16 27 -14 40 -16 6 -31 20 -34 31 -9 35 -27 20 -27 -23z m210 2 c0 -5
-5 -10 -11 -10 -5 0 -7 5 -4 10 3 6 8 10 11 10 2 0 4 -4 4 -10z m-20 -39 c0
-10 7 -24 15 -31 21 -17 19 -23 -12 -37 -21 -10 -28 -10 -35 0 -11 16 -10 41
2 72 11 28 30 25 30 -4z"/>
<path d="M1825 5142 c-6 -4 -16 -15 -24 -24 -11 -15 -11 -18 1 -18 24 0 54 27
43 39 -6 6 -15 7 -20 3z"/>
<path d="M4540 5136 c0 -9 5 -16 10 -16 6 0 10 4 10 9 0 6 -4 13 -10 16 -5 3
-10 -1 -10 -9z"/>
<path d="M6190 5136 c0 -9 5 -16 10 -16 6 0 10 4 10 9 0 6 -4 13 -10 16 -5 3
-10 -1 -10 -9z"/>
<path d="M7227 5129 c-7 -25 2 -51 14 -43 12 7 12 51 0 58 -5 3 -11 -4 -14
-15z"/>
<path d="M7365 5140 c-3 -5 1 -10 10 -10 9 0 13 5 10 10 -3 6 -8 10 -10 10 -2
0 -7 -4 -10 -10z"/>
<path d="M7445 5140 c-3 -5 3 -18 15 -30 11 -11 20 -27 20 -36 0 -10 7 -14 22
-12 28 4 34 24 9 31 -12 3 -25 17 -31 31 -10 27 -24 33 -35 16z"/>
<path d="M6470 5115 c0 -8 5 -15 10 -15 6 0 10 7 10 15 0 8 -4 15 -10 15 -5 0
-10 -7 -10 -15z"/>
<path d="M5819 5113 c-25 -6 -32 -43 -8 -43 21 0 26 -29 9 -61 -9 -16 -7 -19
12 -19 19 0 23 5 22 30 0 17 -6 36 -12 42 -15 15 -15 35 0 40 17 6 -4 15 -23
11z"/>
<path d="M4458 5103 c7 -3 16 -2 19 1 4 3 -2 6 -13 5 -11 0 -14 -3 -6 -6z"/>
<path d="M6348 5103 c7 -3 16 -2 19 1 4 3 -2 6 -13 5 -11 0 -14 -3 -6 -6z"/>
<path d="M1770 5081 c0 -6 5 -13 10 -16 6 -3 10 1 10 9 0 9 -4 16 -10 16 -5 0
-10 -4 -10 -9z"/>
<path d="M4590 5080 c0 -5 9 -10 20 -10 11 0 20 5 20 10 0 6 -9 10 -20 10 -11
0 -20 -4 -20 -10z"/>
<path d="M7400 5081 c0 -5 7 -12 16 -15 22 -9 24 -8 24 9 0 8 -9 15 -20 15
-11 0 -20 -4 -20 -9z"/>
<path d="M6135 5059 c-10 -15 0 -21 27 -17 l23 3 -22 13 c-15 8 -24 9 -28 1z"/>
<path d="M5910 5050 c0 -5 5 -10 10 -10 6 0 10 5 10 10 0 6 -4 10 -10 10 -5 0
-10 -4 -10 -10z"/>
<path d="M6360 5050 c0 -5 5 -10 10 -10 6 0 10 5 10 10 0 6 -4 10 -10 10 -5 0
-10 -4 -10 -10z"/>
<path d="M7340 5051 c0 -5 7 -12 16 -15 22 -9 24 -8 24 9 0 8 -9 15 -20 15
-11 0 -20 -4 -20 -9z"/>
<path d="M4650 5026 c0 -13 20 -26 41 -26 15 0 10 27 -7 34 -24 9 -34 7 -34
-8z"/>
<path d="M7253 4990 c-10 -26 -9 -32 3 -37 22 -8 26 1 17 36 l-8 32 -12 -31z"/>
<path d="M3700 4996 c0 -9 7 -16 16 -16 9 0 14 5 12 12 -6 18 -28 21 -28 4z"/>
<path d="M7305 5001 c-7 -12 12 -24 25 -16 11 7 4 25 -10 25 -5 0 -11 -4 -15
-9z"/>
<path d="M5878 4993 c6 -2 18 -2 25 0 6 3 1 5 -13 5 -14 0 -19 -2 -12 -5z"/>
<path d="M8030 4970 c0 -5 5 -10 10 -10 6 0 10 5 10 10 0 6 -4 10 -10 10 -5 0
-10 -4 -10 -10z"/>
<path d="M7967 4936 c-32 -32 -15 -60 22 -37 11 7 12 15 5 32 -9 20 -11 21
-27 5z"/>
<path d="M3477 4920 c3 -11 7 -20 9 -20 2 0 4 9 4 20 0 11 -4 20 -9 20 -5 0
-7 -9 -4 -20z"/>
<path d="M3720 4920 c-19 -12 -7 -22 21 -18 19 2 20 5 8 15 -9 7 -20 9 -29 3z"/>
<path d="M7763 4917 c5 -15 37 -22 37 -9 0 5 -9 12 -21 15 -13 3 -19 1 -16 -6z"/>
<path d="M2775 4910 c3 -5 8 -10 11 -10 2 0 4 5 4 10 0 6 -5 10 -11 10 -5 0
-7 -4 -4 -10z"/>
<path d="M3766 4874 c-4 -9 -4 -19 -1 -22 3 -3 5 0 5 6 0 7 7 12 15 12 8 0 15
5 15 10 0 16 -27 11 -34 -6z"/>
<path d="M7590 4875 c0 -13 4 -14 20 -5 11 6 20 13 20 15 0 3 -9 5 -20 5 -11
0 -20 -7 -20 -15z"/>
<path d="M2542 4869 c-13 -5 -22 -14 -20 -21 6 -18 22 -20 43 -4 26 19 9 37
-23 25z"/>
<path d="M3659 4852 c-26 -27 -28 -52 -4 -52 13 0 39 52 34 69 -2 5 -16 -2
-30 -17z"/>
<path d="M7674 4859 c-7 -12 44 -69 63 -69 17 0 16 2 -4 45 -16 34 -45 46 -59
24z"/>
<path d="M3254 4839 c-3 -6 -2 -15 2 -19 12 -12 38 5 30 19 -9 14 -23 14 -32
0z"/>
<path d="M8260 4835 c0 -8 7 -15 16 -15 14 0 14 3 4 15 -7 8 -14 15 -16 15 -2
0 -4 -7 -4 -15z"/>
<path d="M7380 4820 c-8 -16 -8 -18 4 -14 9 3 29 -4 45 -15 36 -26 41 -26 41
-1 0 14 -7 20 -24 20 -13 0 -26 7 -30 15 -8 21 -23 19 -36 -5z"/>
<path d="M7583 4800 c-3 -11 -14 -20 -24 -20 -11 0 -19 -3 -19 -7 0 -16 60 -8
77 10 16 15 16 19 3 27 -23 14 -31 12 -37 -10z"/>
<path d="M8290 4800 c0 -5 9 -10 21 -10 11 0 17 5 14 10 -3 6 -13 10 -21 10
-8 0 -14 -4 -14 -10z"/>
<path d="M7450 4744 c0 -8 5 -12 10 -9 6 3 10 10 10 16 0 5 -4 9 -10 9 -5 0
-10 -7 -10 -16z"/>
<path d="M3430 4740 c0 -5 7 -10 15 -10 8 0 15 5 15 10 0 6 -7 10 -15 10 -8 0
-15 -4 -15 -10z"/>
<path d="M7510 4725 c0 -15 6 -25 14 -25 24 0 26 15 5 33 -18 16 -19 16 -19
-8z"/>
<path d="M3700 4705 c0 -8 5 -15 10 -15 6 0 10 7 10 15 0 8 -4 15 -10 15 -5 0
-10 -7 -10 -15z"/>
<path d="M8185 4710 c3 -5 12 -10 20 -10 8 0 17 5 20 10 4 6 -5 10 -20 10 -15
0 -24 -4 -20 -10z"/>
<path d="M8290 4690 c0 -5 5 -10 10 -10 6 0 10 5 10 10 0 6 -4 10 -10 10 -5 0
-10 -4 -10 -10z"/>
<path d="M7591 4674 c0 -11 3 -14 6 -6 3 7 2 16 -1 19 -3 4 -6 -2 -5 -13z"/>
<path d="M7815 4640 c-7 -12 2 -30 16 -30 12 0 12 27 0 35 -5 3 -12 1 -16 -5z"/>
<path d="M3636 4494 c-9 -8 -16 -21 -15 -27 0 -9 2 -8 6 1 2 6 11 12 19 12 8
0 14 7 14 15 0 19 -5 19 -24 -1z"/>
<path d="M2996 4412 c-3 -6 -1 -14 5 -17 15 -10 25 3 12 16 -7 7 -13 7 -17 1z"/>
<path d="M2988 4363 c-27 -7 -22 -23 7 -23 16 0 25 6 25 15 0 15 -2 16 -32 8z"/>
<path d="M3060 4320 c0 -5 4 -10 9 -10 6 0 13 5 16 10 3 6 -1 10 -9 10 -9 0
-16 -4 -16 -10z"/>
<path d="M2950 4270 c0 -5 5 -10 11 -10 5 0 7 5 4 10 -3 6 -8 10 -11 10 -2 0
-4 -4 -4 -10z"/>
<path d="M1770 4070 c0 -5 5 -10 10 -10 6 0 10 5 10 10 0 6 -4 10 -10 10 -5 0
-10 -4 -10 -10z"/>
<path d="M1732 3988 c-7 -7 -12 -18 -12 -25 0 -19 27 -16 50 7 11 11 16 20 11
20 -5 0 -15 2 -23 5 -7 3 -19 0 -26 -7z"/>
<path d="M1652 3923 c2 -10 14 -19 26 -21 19 -3 23 1 20 15 -2 10 -14 19 -26
21 -19 3 -23 -1 -20 -15z"/>
<path d="M1613 3882 c-9 -6 -7 -11 7 -20 20 -12 36 -1 25 18 -7 12 -16 12 -32
2z"/>
<path d="M1440 3850 c0 -6 7 -10 15 -10 8 0 15 2 15 4 0 2 -7 6 -15 10 -8 3
-15 1 -15 -4z"/>
<path d="M1480 3820 c0 -5 7 -10 15 -10 8 0 15 5 15 10 0 6 -7 10 -15 10 -8 0
-15 -4 -15 -10z"/>
<path d="M1542 3780 c15 -24 33 -27 24 -4 -3 9 -6 18 -6 20 0 2 -7 4 -15 4
-13 0 -13 -3 -3 -20z"/>
<path d="M1400 3770 c-12 -7 -11 -10 5 -16 11 -4 23 -13 28 -20 4 -7 14 -11
22 -7 12 4 10 10 -10 29 -30 28 -26 26 -45 14z"/>
<path d="M928 3763 c7 -3 16 -2 19 1 4 3 -2 6 -13 5 -11 0 -14 -3 -6 -6z"/>
<path d="M1490 3759 c0 -5 5 -7 10 -4 6 3 10 8 10 11 0 2 -4 4 -10 4 -5 0 -10
-5 -10 -11z"/>
<path d="M1147 3718 c-16 -9 -16 -11 7 -29 28 -22 56 -25 56 -5 0 22 -43 46
-63 34z"/>
<path d="M2390 1864 c0 -8 5 -12 10 -9 6 4 8 11 5 16 -9 14 -15 11 -15 -7z"/>
<path d="M2360 1799 c0 -5 5 -7 10 -4 6 3 10 8 10 11 0 2 -4 4 -10 4 -5 0 -10
-5 -10 -11z"/>
<path d="M2332 1760 c-8 -13 -8 -20 -2 -20 6 0 13 7 17 15 9 24 -1 27 -15 5z"/>
</g>
</svg>
